<svg width="250mm" height="250mm" version="1.1" viewBox="0 0 250 250" xmlns="http://www.w3.org/2000/svg">
<g transform="translate(-144.49 129.76)">
<path d="m180.91 116.25c-14.529-2.8149-26.561-12.352-31.22-24.747-2.2802-6.0666-2.4419-12.503-2.0814-82.901 0.44625-87.125-0.44095-80.918 13.308-93.22 11.529-10.317 12.421-10.426 81.874-10.025l59.949 0.34641-18.261 25.91h-101.02l-4.5354 3.8765-4.5359 3.8764-0.38321 69.867c-0.3411 61.776-0.12637 70.341 1.8283 73.959 4.2315 7.8287 4.6441 7.868 82.629 7.868 49.533 0 71.885-0.44856 74.002-1.4843 7.6498-3.7425 7.8294-4.6317 7.8823-39.042l0.0528-31.889 13.925-19.931 13.924-19.931-0.40432 55.142c-0.37261 51.087-0.59415 55.484-3.0219 59.793-5.2982 9.4011-10.711 14.514-19.995 18.888l-9.2644 4.3646-74.337 0.21859c-40.885 0.12046-77.027-0.30238-80.316-0.93965zm76.811-59.592c-2.2918-1.3771-17.086-14.978-32.876-30.223-24.07-23.24-28.861-28.508-29.648-32.598-2.5129-13.061 6.5433-23.689 20.186-23.689 3.1432 0 7.0808 0.66244 8.7495 1.4721 1.6682 0.80981 11.308 9.3155 21.421 18.901 15.966 15.134 18.64 17.171 20.306 15.469 1.0551-1.078 19.903-27.671 41.885-59.095 46.961-67.135 49.471-70.426 55.132-72.314 10.647-3.5508 19.974-0.4405 25.44 8.4826 2.9632 4.8373 3.6215 7.2859 3.0513 11.351-0.88083 6.2837-2.9626 9.5075-40.324 62.446-16.247 23.02-38.458 54.509-49.359 69.976-21.23 30.121-23.596 32.341-34.451 32.331-2.9401 0-7.2203-1.1316-9.5123-2.5088z" fill="none" stroke="#000" stroke-width="5.9398"/>
</g>
</svg>
