<svg width="250mm" height="250.02mm" version="1.1" viewBox="0 0 250 250.02" xmlns="http://www.w3.org/2000/svg">
<g transform="translate(56.808 61.951)">
<path d="m-27.006 183.95c-16.377-4.6286-26.48-17.775-26.48-34.456 0-14.833 0.92425-16.102 40.992-56.261l34.981-35.061-17.295-17.398h-7.6786c-14.848 0-26.906-4.8901-36.899-14.965-14.2-14.315-18.538-37.58-10.157-54.466 2.1881-4.4089 2.9809-5.0816 6.3076-5.3527 3.5697-0.29076 4.6774 0.56598 17.922 13.862l14.117 14.172h10.359v-10.36l-14.171-14.118c-13.295-13.245-14.151-14.353-13.861-17.923 0.27114-3.3269 0.94371-4.1199 5.3521-6.3082 16.885-8.3819 40.148-4.0429 54.461 10.158 10.071 9.9923 14.963 22.054 14.963 36.893v7.6696l27.747 27.687 21.339-21.47c20.478-20.604 21.432-21.755 23.649-28.537 1.2702-3.8867 2.669-7.6069 3.1081-8.2669 0.87755-1.3187 34.466-25.557 38.144-27.525 3.9855-2.133 7.1259-0.22835 18.352 11.131 11.492 11.628 13.17 14.383 11.108 18.235-1.9924 3.7231-26.224 37.324-27.556 38.21-0.66011 0.43925-4.3799 1.8383-8.2663 3.1085-6.7811 2.2166-7.9324 3.1708-28.534 23.651l-21.468 21.341 27.685 27.749h7.6689c14.838 0 26.898 4.8923 36.889 14.965 14.2 14.314 18.538 37.58 10.157 54.466-2.1881 4.4089-2.9809 5.0816-6.3076 5.3527-3.5697 0.29086-4.6774-0.56598-17.922-13.862l-14.117-14.172h-10.359v10.36l14.171 14.118c13.295 13.245 14.151 14.353 13.861 17.923-0.27112 3.327-0.94371 4.1199-5.3522 6.3082-16.885 8.3819-40.148 4.0429-54.461-10.158-10.074-9.9946-14.963-22.053-14.963-36.903v-7.6792l-17.397-17.296-35.058 34.984c-29.361 29.299-36.045 35.434-41.13 37.755-7.3619 3.359-17.122 4.3552-23.9 2.4396zm16.927-14.742c5.1367-2.3419 11.415-7.4158 11.415-9.2256 0-1.6477-28.436-30.058-30.085-30.058-1.7839 0-6.8695 6.3139-9.195 11.416-2.8066 6.1574-2.5219 11.313 0.99686 18.049 2.4505 4.691 4.1305 6.3713 8.8211 8.8219 6.7357 3.5192 11.891 3.8039 18.048 0.99715zm154.91 1.2766c0-0.41432-4.892-5.7252-10.871-11.802l-10.871-11.048v-12.166c0-11.468 0.1533-12.32 2.6684-14.835 2.5151-2.5156 3.3669-2.6688 14.833-2.6688h12.165l11.047 10.872c6.076 5.9796 11.457 10.872 11.958 10.872 1.8238 0-0.43627-14.153-3.1895-19.973-3.2557-6.8827-10.579-14.039-17.766-17.361-4.2533-1.9658-7.0798-2.3501-17.317-2.3547h-12.234l-94.016-94.025v-12.235c0-10.238-0.38907-13.064-2.3546-17.318-3.3212-7.1872-10.477-14.511-17.359-17.767-5.8197-2.7534-19.971-5.0136-19.971-3.1897 0 0.50087 4.892 5.8823 10.871 11.959l10.871 11.048v12.166c0 11.468-0.15327 12.32-2.6684 14.835-2.5151 2.5154-3.3669 2.6686-14.833 2.6686h-12.165l-11.047-10.872c-6.076-5.9796-11.457-10.872-11.958-10.872-1.8239 0 0.43624 14.153 3.1895 19.973 3.2557 6.8826 10.579 14.039 17.766 17.361 4.2533 1.9659 7.0798 2.3502 17.317 2.3548h12.234l94.016 94.025v12.235c0 10.238 0.3891 13.065 2.3546 17.318 4.5536 9.8538 14.447 18.073 24.701 20.522 4.4358 1.0591 12.629 1.2396 12.629 0.27817zm-106.83-46.245 25.27-25.255-10.219-10.376-18.591 18.483c-16.926 16.828-18.931 18.483-22.38 18.483-4.7849 0-6.3978-1.613-6.3978-6.3984 0-3.4498 1.6557-5.4548 18.482-22.382l18.482-18.593-10.375-10.22-51.025 51.064 15.193 15.224c8.3564 8.3731 15.441 15.224 15.743 15.224 0.30241 0 11.921-11.365 25.819-25.255zm78.576-99.25c21.75-21.781 22.448-22.363 29.559-24.659l7.2831-2.3512 20.876-29.182-5.925-5.9254-5.925-5.9255-14.642 10.476-14.642 10.476-1.9596 6.7029c-1.8948 6.4814-2.7156 7.4663-24.836 29.8l-22.877 23.097 4.8071 4.8986c2.6438 2.6942 5.0766 4.8985 5.4061 4.8985 0.32952 0 10.623-10.038 22.875-22.307z" fill="none" stroke="#000" stroke-width="5.9308"/>
</g>
</svg>
