<svg width="250mm" height="250mm" version="1.1" viewBox="0 0 250 250" xmlns="http://www.w3.org/2000/svg">
<g transform="translate(7.2896 96.351)">
<g transform="matrix(2.2751 0 0 2.275 66.084 53.447)">
<path transform="translate(-150.27 -306.79)" d="m162.62 316.05-9.654-8.839a1.61 1.61 0 0 0-2.7 1.187v8.839a1.61 1.61 0 0 0 1.61 1.61h9.654a1.61 1.61 0 0 0 1.087-2.8zm-9.131-0.422v-3.573l3.9 3.573zm37.286-43.166a1.61 1.61 0 0 0-1.61 1.61v8.263h-2.361v-8.263a1.61 1.61 0 1 0-3.219 0v9.873a1.61 1.61 0 0 0 1.61 1.61h5.58a1.61 1.61 0 0 0 1.61-1.61v-9.873a1.61 1.61 0 0 0-1.61-1.61zm-9.611 0h-5.58a1.61 1.61 0 0 0-1.61 1.61v9.873a1.61 1.61 0 1 0 3.219 0v-3.259h3.97a1.61 1.61 0 0 0 1.61-1.61v-5a1.61 1.61 0 0 0-1.609-1.614zm-1.61 5h-2.361v-1.785h2.361zm-8.005 4.873h-3.97v-6.653h3.97a1.61 1.61 0 1 0 0-3.219h-5.58a1.61 1.61 0 0 0-1.61 1.61v9.873a1.61 1.61 0 0 0 1.61 1.61h5.58a1.61 1.61 0 1 0 0-3.219zm40.045-8.373a1.61 1.61 0 0 0 0-3.219h-2.683v-3.506h2.683a1.61 1.61 0 1 0 0-3.219h-2.683v-2.471a1.61 1.61 0 0 0-1.61-1.61h-2.468v-2.68a1.61 1.61 0 1 0-3.219 0v2.683h-3.505v-2.683a1.61 1.61 0 1 0-3.219 0v2.683h-3.505v-2.683a1.61 1.61 0 1 0-3.219 0v2.683h-3.506v-2.683a1.61 1.61 0 1 0-3.219 0v2.683h-3.505v-2.683a1.61 1.61 0 1 0-3.219 0v2.683h-3.505v-2.683a1.61 1.61 0 1 0-3.219 0v2.683h-3.506v-2.683a1.61 1.61 0 1 0-3.219 0v2.683h-3.509v-2.683a1.61 1.61 0 1 0-3.219 0v2.683h-3.505v-2.683a1.61 1.61 0 1 0-3.219 0v2.683h-3.506v-2.683a1.61 1.61 0 1 0-3.219 0v2.683h-2.471a1.61 1.61 0 0 0-1.61 1.61v2.467h-2.68a1.61 1.61 0 1 0 0 3.219h2.683v3.511h-2.683a1.61 1.61 0 0 0 0 3.219h2.683v3.501h-2.683a1.61 1.61 0 0 0 0 3.219h2.683v3.506h-2.683a1.61 1.61 0 0 0 0 3.219h2.683v3.505h-2.683a1.61 1.61 0 0 0 0 3.219h2.683v3.505h-2.683a1.61 1.61 0 0 0 0 3.219h2.683v3.506h-2.683a1.61 1.61 0 1 0 0 3.219h2.683v3.505h-2.683a1.61 1.61 0 0 0 0 3.219h2.683v3.505h-2.683a1.61 1.61 0 1 0 0 3.219h2.683v3.506h-2.683a1.61 1.61 0 1 0 0 3.219h2.683v2.468a1.61 1.61 0 0 0 1.61 1.61h2.467v2.683a1.61 1.61 0 1 0 3.219 0v-2.683h3.511v2.683a1.61 1.61 0 1 0 3.219 0v-2.683h3.501v2.683a1.61 1.61 0 1 0 3.219 0v-2.683h3.506v2.683a1.61 1.61 0 1 0 3.219 0v-2.683h3.505v2.683a1.61 1.61 0 1 0 3.219 0v-2.683h3.505v2.683a1.61 1.61 0 1 0 3.219 0v-2.683h3.506v2.683a1.61 1.61 0 1 0 3.219 0v-2.683h3.505v2.683a1.61 1.61 0 1 0 3.219 0v-2.683h3.505v2.683a1.61 1.61 0 1 0 3.219 0v-2.683h3.506v2.683a1.61 1.61 0 1 0 3.219 0v-2.683h2.468a1.61 1.61 0 0 0 1.61-1.61v-2.468h2.683a1.61 1.61 0 1 0 0-3.219h-2.683v-3.505h2.683a1.61 1.61 0 1 0 0-3.219h-2.683v-3.505h2.683a1.61 1.61 0 0 0 0-3.219h-2.683v-3.506h2.683a1.61 1.61 0 0 0 0-3.219h-2.683v-3.505h2.683a1.61 1.61 0 1 0 0-3.219h-2.683v-3.505h2.683a1.61 1.61 0 0 0 0-3.219h-2.683v-3.506h2.683a1.61 1.61 0 0 0 0-3.219h-2.683v-3.506h2.683a1.61 1.61 0 0 0 0-3.219h-2.683v-3.505h2.683zm-5.9 54.657h-65.462v-65.46h65.46zm-4.832-62.241h-41.711a1.61 1.61 0 0 0 0 3.219h40.1v52.581h-52.581v-52.581h5.687a1.61 1.61 0 0 0 0-3.219h-7.3a1.61 1.61 0 0 0-1.61 1.61v55.8a1.61 1.61 0 0 0 1.61 1.61h55.8a1.61 1.61 0 0 0 1.61-1.61v-55.8a1.61 1.61 0 0 0-1.605-1.61zm16.633 69.967a4.829 4.829 0 1 0 4.829 4.829 4.834 4.834 0 0 0-4.829-4.829zm0 6.439a1.61 1.61 0 1 1 1.61-1.61 1.611 1.611 0 0 1-1.61 1.61zm-89.068-6.439a4.829 4.829 0 1 0 4.829 4.829 4.834 4.834 0 0 0-4.829-4.829zm0 6.439a1.61 1.61 0 1 1 1.61-1.61 1.611 1.611 0 0 1-1.61 1.61zm89.068-96.795a4.829 4.829 0 1 0 4.829 4.829 4.834 4.834 0 0 0-4.829-4.829zm0 6.439a1.61 1.61 0 1 1 1.61-1.61 1.611 1.611 0 0 1-1.61 1.61zm-89.068-6.439a4.829 4.829 0 1 0 4.829 4.829 4.834 4.834 0 0 0-4.829-4.829zm0 6.439a1.61 1.61 0 1 1 1.61-1.61 1.611 1.611 0 0 1-1.61 1.61zm93.575 8.799h4.292a1.61 1.61 0 0 0 1.61-1.61v-17.062a1.61 1.61 0 0 0-1.609-1.61h-85.062a1.61 1.61 0 0 0 0 3.219h1.685v4.829a1.61 1.61 0 0 0 1.61 1.61h56.871a1.61 1.61 0 0 0 1.61-1.61v-4.829h21.677v13.843h-2.683a5.9 5.9 0 0 0 0 11.8h2.683v52.158h-2.683a5.9 5.9 0 0 0 0 11.8h2.683v13.843h-21.678v-4.829a1.61 1.61 0 0 0-1.61-1.61h-7.726a1.61 1.61 0 1 0 0 3.219h6.117v3.219h-53.655v-3.219h40.563a1.61 1.61 0 0 0 0-3.219h-42.173a1.61 1.61 0 0 0-1.61 1.61v4.829h-21.677v-13.839h2.681a5.9 5.9 0 0 0 0-11.8h-2.681v-52.157h2.681a5.9 5.9 0 0 0 0-11.8h-2.681v-13.848h13.092a1.61 1.61 0 0 0 0-3.219h-14.701a1.61 1.61 0 0 0-1.61 1.61v17.062a1.61 1.61 0 0 0 1.61 1.61h4.29a2.683 2.683 0 0 1 0 5.366h-4.29a1.61 1.61 0 0 0-1.61 1.609v55.373a1.61 1.61 0 0 0 1.61 1.61h4.29a2.683 2.683 0 0 1 0 5.366h-4.29a1.61 1.61 0 0 0-1.61 1.609v17.063a1.61 1.61 0 0 0 1.61 1.61h106.67a1.61 1.61 0 0 0 1.61-1.61v-17.063a1.61 1.61 0 0 0-1.61-1.61h-4.292a2.683 2.683 0 1 1 0-5.366h4.292a1.61 1.61 0 0 0 1.61-1.61v-55.372a1.61 1.61 0 0 0-1.61-1.61h-4.292a2.683 2.683 0 1 1 0-5.366zm-22.213-13.843h-53.655v-3.22h53.655z"/>
</g>
</g>
</svg>
