<svg width="250mm" height="250mm" version="1.1" viewBox="0 0 250 250" xmlns="http://www.w3.org/2000/svg">
 <g transform="translate(31.519 96.706)">
  <path d="m216.22 20.884a3.6697 3.6815 0 0 0-3.9996 0.79655l-10.989 11.026v-74.964a3.6697 3.6815 0 0 0-3.6697-3.6815h-28.188l20.1-20.165a11.191 11.227 0 0 0 0-15.874l-11.41-11.442a11.191 11.227 0 0 0-15.823 0l-9.867 9.9057-11.921 11.96-25.538 25.613h-113.9v-36.418a3.6697 3.6815 0 0 0-3.6697-3.6815 28.894 28.987 0 0 0-28.864 28.955v156.35a3.6788 3.6907 0 0 0 0.08645 0.79199 27.792 27.882 0 0 0 27.711 25.766h112.12l-21.111 21.192a3.6697 3.6815 0 0 0 2.5936 6.2835h124.93a3.6697 3.6815 0 0 0 3.6697-3.6815v-125.33a3.6697 3.6815 0 0 0-2.2637-3.4008zm-48.789-109.1a3.854 3.8664 0 0 1 5.4443 0l11.403 11.442a3.854 3.8664 0 0 1 0 5.4618l-7.2803 7.3037-16.838-16.91zm-12.461 12.501 16.849 16.901-6.732 6.7537-16.849-16.899zm56.176 141.36h-6.7706a3.6697 3.6815 0 0 0 0 7.3631h6.7706v11.093h-6.7706a3.6697 3.6815 0 0 0 0 7.3631h6.7706v11.093h-6.7706a3.6697 3.6816 0 0 0 0 7.3631h6.7706v11.093h-6.7706a3.6697 3.6815 0 0 0 0 7.3631h6.7706v17.559h-112.4l37.066-37.183a3.6697 3.6815 0 0 0-5.1895-5.2062l-14.872 14.92h-119.47a20.342 20.407 0 0 1-20.442-19.857q0.03187-1.0499 0.16155-2.0793v-0.01134q0.06143-0.48844 0.1456-0.9723l0.02267-0.1187q0.07735-0.43137 0.17289-0.85819c0.01814-0.07989 0.0364-0.15976 0.05459-0.22824q0.08418-0.36061 0.17974-0.71897c0.03412-0.1301 0.07279-0.25789 0.1092-0.38572 0.0546-0.18715 0.1092-0.37431 0.16836-0.55919 0.05915-0.18487 0.12285-0.36746 0.18657-0.55007 0.0455-0.12781 0.08871-0.25563 0.13648-0.38343 0.08874-0.24194 0.1843-0.4793 0.28211-0.71667 0.02731-0.06845 0.05462-0.13696 0.08418-0.20543 0.12515-0.29442 0.25483-0.58428 0.3936-0.87187l0.01814-0.03651a21.602 21.672 0 0 1 15.016-11.78l0.054593-0.01134c0.3026-0.06158 0.60973-0.11641 0.91003-0.16433l0.1547-0.02736c0.27985-0.04337 0.55969-0.07531 0.8418-0.10727l0.22749-0.02965c0.27302-0.02736 0.54603-0.04566 0.82132-0.06158l0.26163-0.01811q0.53921-0.02736 1.0852-0.02736a3.6697 3.6815 0 0 0 3.6902-3.6884v-26.693a3.6697 3.6815 0 0 0-7.3394 0v23.244a28.666 28.758 0 0 0-16.483 8.0022c-0.47778 0.45647-0.92825 0.95404-1.3651 1.447v-137.08a21.559 21.628 0 0 1 17.853-21.277v110.94a3.6697 3.6815 0 1 0 7.3394 0v-71.159h106.55l-20.285 20.341a3.6719 3.6838 0 0 0 5.1849 5.2176l26.55-26.636 24.023-24.095 16.847 16.904-1.977 1.9834-73.995 74.231-16.847-16.901 14.583-14.63a3.6697 3.6815 0 1 0-5.1895-5.2062l-17.179 17.235a3.6856 3.6975 0 0 0-0.25936 0.28986c-0.02729 0.03422-0.05004 0.06845-0.07506 0.10271-0.05233 0.06845-0.10239 0.13923-0.15016 0.21228-0.04778 0.07302-0.05233 0.08446-0.07735 0.1278-0.02494 0.04338-0.07964 0.13923-0.11602 0.21-0.0364 0.07073-0.0455 0.09361-0.06598 0.1415-0.02041 0.04795-0.0637 0.14609-0.09101 0.22824 0 0.02526-0.02267 0.05024-0.03184 0.07531l-7.1483 20.314-4.871 13.845a3.7129 3.7249 0 0 0-0.1456 0.55919h-12.204a3.6697 3.6815 0 1 0 0 7.3631h101.62a3.6697 3.6815 0 0 0 0-7.3631h-72.907l22.378-7.9245 0.05456-0.02297c0.08647-0.03194 0.17291-0.06845 0.25709-0.10727l0.1001-0.04566c0.08875-0.04337 0.17518-0.09361 0.25936-0.14379l0.0819-0.04795c0.08875-0.0571 0.17518-0.11869 0.25936-0.18488l0.06371-0.04795a3.6788 3.6907 0 0 0 0.29576-0.26704l75.51-75.753h31.865v78.643l-52.488 52.66a3.6697 3.6815 0 0 0 0 5.2062 3.7402 3.7523 0 0 0 0.27983 0.25336 3.6674 3.6793 0 0 0 4.9096-0.25336l64.553-64.761zm-133.93-32.602-10.511 3.7249-7.0027-7.0253 3.7107-10.545zm112.48 46.844a3.6697 3.6815 0 0 0-3.9996 0.79655l-40.098 40.232a3.6697 3.6815 0 0 0 2.5959 6.2835h40.101a3.6697 3.6815 0 0 0 3.6697-3.6815v-40.23a3.6697 3.6815 0 0 0-2.2683-3.4008zm-32.647 39.942 27.574-27.663v27.663z" stroke-width="2.2788"/>
 </g>
</svg>
