<svg width="250mm" height="250mm" version="1.1" viewBox="0 0 250 250" xmlns="http://www.w3.org/2000/svg">
<g transform="translate(-7.187 44.833)">
<path d="m39.049-2.0816h186.27c1.5536 0 2.3906 1.2606 2.3906 3.5955v125.59c0 2.3348-0.83697 3.5926-2.3906 3.5926h-186.27c-1.5537 0-2.3924-1.2578-2.3924-3.5926v-125.59c0-2.3348 0.8388-3.5955 2.3924-3.5955zm91.697 138.51a11.585 14.477 0 0 1 11.586 14.479 11.585 14.477 0 0 1-11.586 14.476 11.585 14.477 0 0 1-11.584-14.476 11.585 14.477 0 0 1 11.584-14.479zm-91.697-178.19c-15.726 0-28.799 19.65-28.799 43.284v125.59c0 21.032 10.355 38.893 23.718 42.574 0.06533 0 0.12962 0.0115 0.19531 0.0115h61.825c-0.37504 0.73336-0.59992 1.6501-0.59992 2.6507v8.1721h-7.1759c-2.7524 0-4.9686 3.3303-4.9686 7.4668v6.6582c0 4.1364 2.2162 7.4668 4.9686 7.4668h84.506c2.7524 0 4.9682-3.3304 4.9682-7.4668v-6.6582c0-4.1365-2.2158-7.4668-4.9682-7.4668h-8.1779v-8.1721c0-1.0006-0.22488-1.9173-0.5999-2.6507h66.439c13.376-3.6644 23.746-21.536 23.746-42.582v-125.59c0-23.634-13.073-43.284-28.799-43.284z" fill="none" stroke="#000" stroke-linecap="round" stroke-width="6.126" style="paint-order:fill markers stroke"/>
</g>
</svg>
