<svg width="250mm" height="230.74mm" version="1.1" viewBox="0 0 250 230.74" xmlns="http://www.w3.org/2000/svg">
<g transform="translate(88.687 70.402)">
<path d="m-78.083-70.402a10.615 10.627 0 0 0-10.603 10.615v116.7a10.615 10.627 0 0 0 10.603 10.615h9.0666a2.409 2.4115 0 1 0 0-4.8231h-9.0666a5.7916 5.7978 0 0 1-5.7857-5.7918v-9.1483h80.557v-4.8278h-80.551v-80.531h154.8l-1e-3 33.319h4.9054l0.08677-55.511a10.613 10.624 0 0 0-10.602-10.615l0.0054-1e-3zm0.13271 4.8251a5.7901 5.7963 0 0 1 0.05478 0h143.05a5.7916 5.7978 0 0 1 5.7857 5.7915l-0.0078 17.36h-154.62v-17.363a5.7901 5.7963 0 0 1 5.737-5.7888zm7.0383 4.4321a7.0707 7.0786 0 1 0 7.0706 7.0774 7.0773 7.0845 0 0 0-7.0706-7.0774zm72.423 155.36v-4.8248h-4.8224v4.8248zm-4.8224 0v-4.8248h-39.146v-4.4059a3.9864 3.9907 0 0 1 3.9819-3.9863h35.164v-4.8248h-23.07v-8.6501h23.07v-4.8197h-51.057a2.409 2.4115 0 0 0 0 4.8231h23.165v8.6505h-7.2747a8.8104 8.8196 0 0 0-8.7999 8.809v5.21a4.0194 4.0237 0 0 0 4.0149 4.019zm-49.6-155.36a7.0707 7.0786 0 1 0 7.074 7.0774 7.0786 7.0858 0 0 0-7.074-7.0774zm17.999 0a7.0707 7.0786 0 1 0 7.0709 7.0774 7.0773 7.0845 0 0 0-7.0709-7.0774zm-18.01 4.8322a2.2471 2.2495 0 0 1 2.2584 2.2496 2.2471 2.2495 0 0 1-2.2472 2.2496 2.2471 2.2496 0 0 1-0.01124-4.4991zm-18.001 0a2.2471 2.2495 0 0 1 2.2581 2.2496 2.2546 2.257 0 0 1-2.2468 2.2496 2.2471 2.2496 0 0 1-0.01124-4.4991zm36 0a2.2471 2.2495 0 0 1 2.2581 2.2496 2.2546 2.257 0 0 1-2.2472 2.2496 2.2471 2.2496 0 0 1-0.01089-4.4991zm-20.86 26.687a2.4089 2.4115 0 0 0-2.2261 1.5544l-5.9354 15.125a2.4104 2.413 0 0 0 1.3618 3.1268h3.49e-4a2.4089 2.4115 0 0 0 3.1234-1.3631l5.9337-15.125a2.4089 2.4115 0 0 0-2.2577-3.318zm5.8041 0.03096a2.4094 2.412 0 0 0-1.6854 4.1098l5.8483 5.8585-5.8497 5.8561a2.4094 2.412 0 1 0 3.4079 3.4102l7.5548-7.563a2.4089 2.4115 0 0 0 0-3.4106l-7.5548-7.5633a2.4094 2.412 0 0 0-1.7211-0.6979zm-18.065-0.0065a2.4094 2.412 0 0 0-1.6813 0.7139l-7.5531 7.5613a2.4089 2.4115 0 0 0 0 3.4119l7.5531 7.5555a2.4094 2.412 0 0 0 3.4068-3.4116l-5.85-5.8565 5.85-5.8486a2.4094 2.412 0 0 0-1.7255-4.1258zm34.951 7.0866a2.4097 2.4122 0 1 0 0 4.8244h8.319a2.4097 2.4122 0 1 0 0-4.8244zm17.635 0a2.4097 2.4122 0 1 0 0 4.8244h50.754a2.4097 2.4122 0 0 0 0-4.8244zm-17.635 10.612a2.4097 2.4122 0 1 0 0 4.8244h17.313a2.4097 2.4122 0 0 0 0-4.8244zm25.344 0a2.4097 2.4122 0 0 0 0 4.8244h7.0665a2.4097 2.4122 0 0 0 0-4.8244zm14.776 0a2.4097 2.4122 0 0 0 0 4.8244h20.559a2.4097 2.4122 0 0 0 0-4.8244zm-81.238 11.578a2.4097 2.4122 0 0 0 0 4.8244h16.23a2.4097 2.4122 0 0 0 0-4.8244zm25.078 0a2.4097 2.4122 0 0 0 0 4.8244h28.536a2.4097 2.4122 0 1 0 0-4.8244zm-25.078 10.172a2.4098 2.4124 0 0 0 0 4.8248h6.9141a2.4098 2.4124 0 0 0 0-4.8248zm15.367 0a2.4098 2.4124 0 0 0 0 4.8248h20.673a2.4089 2.4115 0 0 0 2.4163-2.4132h3.48e-4a2.4089 2.4115 0 0 0-2.4088-2.4115zm29.431 0a2.4098 2.4124 0 0 0 0 4.8248h4.2095a2.4098 2.4124 0 1 0 0-4.8248zm11.845 0a2.4089 2.4115 0 0 0-2.4091 2.4115 2.4089 2.4115 0 0 0 2.4091 2.4132h7.8859a2.4098 2.4124 0 1 0 0-4.8248zm-56.644 10.087a2.4089 2.4115 0 1 0 0 4.8231h12.469a2.4089 2.4115 0 1 0 0-4.8231zm19.848 0a2.4089 2.4115 0 1 0 0 4.8231h16.229a2.4089 2.4115 0 1 0 0.0014-4.8231zm24.454 0a2.4089 2.4115 0 1 0 0 4.8231h21.198a2.4089 2.4115 0 1 0 0-4.8231zm127.21 22.944a2.4119 2.4118 0 0 1 0.05444 3.49e-4 2.4119 2.4118 0 0 0-0.05444-3.49e-4zm-14.376 0.05989h8.3595zm-19.421 65.296-14.463-13.241a2.4119 2.4118 0 0 0-4.0448 1.7782v13.241a2.4119 2.4118 0 0 0 2.4119 2.4118h14.463a2.4119 2.4118 0 0 0 1.6284-4.1945zm-13.679-0.63217v-5.3524l5.8426 5.3524zm55.858-64.664a2.4119 2.4118 0 0 0-2.4119 2.4118v12.378h-3.537v-12.378a2.4119 2.4118 0 1 0-4.8224 0v14.79a2.4119 2.4118 0 0 0 2.4119 2.4118h8.3593a2.4119 2.4118 0 0 0 2.4119-2.4118v-14.79a2.4119 2.4118 0 0 0-2.4119-2.4118zm-14.398 0h-8.3594a2.4119 2.4118 0 0 0-2.4119 2.4118v14.79a2.4119 2.4118 0 1 0 4.8224 0v-4.8821h5.9474a2.4119 2.4118 0 0 0 2.4119-2.4118v-7.4901a2.4119 2.4118 0 0 0-2.4104-2.4178zm-2.4119 7.4901h-3.537v-2.674h3.537zm-11.992 7.2999h-5.9474v-9.9664h5.9474a2.4119 2.4118 0 1 0 0-4.8221h-8.3594a2.4119 2.4118 0 0 0-2.4119 2.4118v14.79a2.4119 2.4118 0 0 0 2.4119 2.4118h8.3594a2.4119 2.4118 0 1 0 0-4.8221zm59.991-12.543a2.4119 2.4118 0 0 0 0-4.8221h-4.0194v-5.2521h4.0194a2.4119 2.4118 0 1 0 0-4.8221h-4.0194v-3.7016a2.4119 2.4118 0 0 0-2.4119-2.4118h-3.6973v-4.0147a2.4119 2.4118 0 1 0-4.8224 0v4.0192h-5.2508v-4.0192a2.4119 2.4118 0 1 0-4.8224 0v4.0192h-5.2508v-4.0192a2.4119 2.4118 0 1 0-4.8224 0v4.0192h-5.2523v-4.0192a2.4119 2.4118 0 1 0-4.8224 0v4.0192h-5.2508v-4.0192a2.4119 2.4118 0 1 0-4.8224 0v4.0192h-5.2508v-4.0192a2.4119 2.4118 0 1 0-4.8224 0v4.0192h-5.2523v-4.0192a2.4119 2.4118 0 1 0-4.8224 0v4.0192h-5.2568v-4.0192a2.4119 2.4118 0 1 0-4.8224 0v4.0192h-5.2508v-4.0192a2.4119 2.4118 0 1 0-4.8224 0v4.0192h-5.2523v-4.0192a2.4119 2.4118 0 1 0-4.8224 0v4.0192h-3.7018a2.4119 2.4118 0 0 0-2.4119 2.4118v3.6956h-4.0149a2.4119 2.4118 0 1 0 0 4.8221h4.0194v5.2596h-4.0194a2.4119 2.4118 0 0 0 0 4.8221h4.0194v5.2446h-4.0194a2.4119 2.4118 0 0 0 0 4.8221h4.0194v5.2521h-4.0194a2.4119 2.4118 0 0 0 0 4.8221h4.0194v5.2506h-4.0194a2.4119 2.4118 0 0 0 0 4.8221h4.0194v5.2506h-4.0194a2.4119 2.4118 0 0 0 0 4.8221h4.0194v5.2521h-4.0194a2.4119 2.4118 0 1 0 0 4.8221h4.0194v5.2506h-4.0194a2.4119 2.4118 0 0 0 0 4.8222h4.0194v5.2506h-4.0194a2.4119 2.4118 0 1 0 0 4.8222h4.0194v5.2521h-4.0194a2.4119 2.4118 0 1 0 0 4.8221h4.0194v3.6971a2.4119 2.4118 0 0 0 2.4119 2.4118h3.6958v4.0192a2.4119 2.4118 0 1 0 4.8224 0v-4.0192h5.2598v4.0192a2.4119 2.4118 0 1 0 4.8224 0v-4.0192h5.2448v4.0192a2.4119 2.4118 0 1 0 4.8224 0v-4.0192h5.2523v4.0192a2.4119 2.4118 0 1 0 4.8224 0v-4.0192h5.2508v4.0192a2.4119 2.4118 0 1 0 4.8224 0v-4.0192h5.2508v4.0192a2.4119 2.4118 0 1 0 4.8224 0v-4.0192h5.2523v4.0192a2.4119 2.4118 0 1 0 4.8224 0v-4.0192h5.2508v4.0192a2.4119 2.4118 0 1 0 4.8224 0v-4.0192h5.2508v4.0192a2.4119 2.4118 0 1 0 4.8224 0v-4.0192h5.2523v4.0192a2.4119 2.4118 0 1 0 4.8224 0v-4.0192h3.6973a2.4119 2.4118 0 0 0 2.4119-2.4118v-3.6971h4.0194a2.4119 2.4118 0 1 0 0-4.8221h-4.0194v-5.2506h4.0194a2.4119 2.4118 0 1 0 0-4.8221h-4.0194v-5.2506h4.0194a2.4119 2.4118 0 0 0 0-4.8221h-4.0194v-5.2521h4.0194a2.4119 2.4118 0 0 0 0-4.8221h-4.0194v-5.2506h4.0194a2.4119 2.4118 0 1 0 0-4.8221h-4.0194v-5.2506h4.0194a2.4119 2.4118 0 0 0 0-4.8221h-4.0194v-5.2521h4.0194a2.4119 2.4118 0 0 0 0-4.8221h-4.0194v-5.2521h4.0194a2.4119 2.4118 0 0 0 0-4.8221h-4.0194v-5.2506h4.0194zm-8.8387 81.878h-98.068v-98.061h98.065zm-7.2388-93.239h-62.487a2.4119 2.4118 0 0 0 0 4.8221h60.073v78.768h-78.771v-78.768h8.5196a2.4119 2.4118 0 0 0 0-4.8221h-10.936a2.4119 2.4118 0 0 0-2.4119 2.4118v83.59a2.4119 2.4118 0 0 0 2.4119 2.4118h83.593a2.4119 2.4118 0 0 0 2.4119-2.4118v-83.59a2.4119 2.4118 0 0 0-2.4044-2.4118zm24.918 104.81a7.2343 7.234 0 1 0 7.2343 7.234 7.2418 7.2415 0 0 0-7.2343-7.234zm0 9.6458a2.4119 2.4118 0 1 1 2.4119-2.4118 2.4134 2.4133 0 0 1-2.4119 2.4118zm-133.43-9.6458a7.2343 7.234 0 1 0 7.2343 7.234 7.2418 7.2415 0 0 0-7.2343-7.234zm0 9.6458a2.4119 2.4118 0 1 1 2.4119-2.4118 2.4134 2.4133 0 0 1-2.4119 2.4118zm133.43-145a7.2343 7.234 0 1 0 7.2343 7.234 7.2418 7.2415 0 0 0-7.2343-7.234zm0 9.6458a2.4119 2.4118 0 1 1 2.4119-2.4118 2.4134 2.4133 0 0 1-2.4119 2.4118zm-133.43-9.6458a7.2343 7.234 0 1 0 7.2343 7.234 7.2418 7.2415 0 0 0-7.2343-7.234zm0 9.6458a2.4119 2.4118 0 1 1 2.4119-2.4118 2.4134 2.4133 0 0 1-2.4119 2.4118zm140.18 13.181h6.4298a2.4119 2.4118 0 0 0 2.4119-2.4118v-25.559a2.4119 2.4118 0 0 0-2.4104-2.4118h-127.43a2.4119 2.4118 0 0 0 0 4.8221h2.5243v7.234a2.4119 2.4118 0 0 0 2.4119 2.4118h85.198a2.4119 2.4118 0 0 0 2.4119-2.4118v-7.234h32.474v20.737h-4.0194a8.8387 8.8384 0 0 0 0 17.677h4.0194v78.134h-4.0194a8.8387 8.8384 0 0 0 0 17.677h4.0194v20.737h-32.476v-7.234a2.4119 2.4118 0 0 0-2.4119-2.4118h-11.574a2.4119 2.4118 0 1 0 0 4.8222h9.1638v4.8221h-80.38v-4.8221h60.767a2.4119 2.4118 0 0 0 0-4.8222h-63.179a2.4119 2.4118 0 0 0-2.4119 2.4118v7.234h-32.474v-20.731h4.0164a8.8387 8.8384 0 0 0 0-17.677h-4.0164v-78.132h4.0164a8.8387 8.8384 0 0 0 0-17.677h-4.0164v-20.745h19.613a2.4119 2.4118 0 0 0 0-4.8221h-22.023a2.4119 2.4118 0 0 0-2.4119 2.4118v25.559a2.4119 2.4118 0 0 0 2.4119 2.4118h6.4268a4.0194 4.0192 0 0 1 0 8.0384h-6.4268a2.4119 2.4118 0 0 0-2.4119 2.4103v82.95a2.4119 2.4118 0 0 0 2.4119 2.4118h6.4268a4.0194 4.0192 0 0 1 0 8.0384h-6.4268a2.4119 2.4118 0 0 0-2.4119 2.4103v25.561a2.4119 2.4118 0 0 0 2.4119 2.4118h159.8a2.4119 2.4118 0 0 0 2.4119-2.4118v-25.561a2.4119 2.4118 0 0 0-2.4119-2.4118h-6.4298a4.0194 4.0192 0 1 1 0-8.0384h6.4298a2.4119 2.4118 0 0 0 2.4119-2.4118v-82.949a2.4119 2.4118 0 0 0-2.4119-2.4118h-6.4298a4.0194 4.0192 0 1 1 0-8.0384zm-33.277-20.737h-80.38v-4.8236h80.38z" fill="#0b010d" stroke-width=".17422"/>
</g>
</svg>
