<svg width="250mm" height="250mm" version="1.1" viewBox="0 0 250 250" xmlns="http://www.w3.org/2000/svg">
<g transform="translate(-4.0024 -14.128)">
<path d="m7.8977 195.04c2.3046-35.85 13.274-65.74 33.412-91.043 9.8725-12.405 19.371-20.88 32.164-28.698 19.197-11.732 33.872-15.92 55.776-15.92 21.904 0 36.578 4.1886 55.776 15.92 36.025 22.015 60.355 64.059 64.991 112.31 0.5804 6.0431 1.0598 12.878 1.0647 15.189v4.2011h-93.728l-1.2712-7.4327c-0.69911-4.088-1.581-8.6619-1.9599-10.164-0.5634-2.2344 4.452-9.6921 27.557-40.977 15.535-21.035 28.246-38.822 28.246-39.527 0-0.70438-0.44001-1.6055-0.97742-2.0018-0.53752-0.3968-15.674 14.982-33.636 34.174-32.329 34.543-32.688 34.877-35.575 33.143-7.622-4.5777-18.747-3.2416-26.125 3.1377-6.0054 5.1924-9.745 12.442-11.23 21.771l-1.2542 7.8774h-94.007zm32.073-2.3076c2.3416-1.4958 2.7849-6.3698 0.79527-8.7446-0.76678-0.91514-4.4525-1.5512-8.9891-1.5512s-8.2223 0.63605-8.9891 1.5512c-1.9151 2.286-1.5799 7.174 0.59566 8.6865 2.4855 1.728 13.911 1.7678 16.587 0.0586zm194.95 0c2.3417-1.4958 2.7847-6.3698 0.79527-8.7446-0.76712-0.91514-4.4528-1.5512-8.9894-1.5512-4.5367 0-8.2223 0.63605-8.9889 1.5512-1.9154 2.286-1.58 7.174 0.59556 8.6865 2.4854 1.728 13.911 1.7678 16.587 0.0586zm-102.09-95.87c1.7249-2.0587 1.7249-19.399 0-21.458-0.71478-0.85306-2.3231-1.5512-3.574-1.5512-3.8508 0-4.8736 2.5773-4.8736 12.28 0 9.703 1.0228 12.28 4.8736 12.28 1.2509 0 2.8592-0.69798 3.574-1.5512z" fill="none" stroke="#000" stroke-width="5.8429"/>
</g>
</svg>
