<svg width="250mm" height="250mm" version="1.1" viewBox="0 0 250 250" xmlns="http://www.w3.org/2000/svg">
<g transform="translate(23.447 76.97)">
<path d="m88.631 166.44c-28.05-9.7067-44.337-18.601-62.67-34.225-24.691-21.042-37.568-44.772-43.386-79.952-2.3577-14.256-3.8566-58.297-2.536-74.515 1.2411-15.242 1.4098-15.383 19.578-16.369 37.344-2.0273 62.766-10.051 88.173-27.83 6.3509-4.4442 11.989-7.5487 13.709-7.5487 1.7161 0 7.3765 3.1087 13.724 7.5374 25.444 17.753 50.964 25.816 88.084 27.831 8.0456 0.43669 14.417 1.3267 15.865 2.2157 3.317 2.0366 4.3461 10.985 4.4115 38.362 0.0879 37.37-3.1871 60.284-11.712 81.913-15.517 39.366-46.838 65.704-98.712 83.006-5.3541 1.7858-10.738 3.2257-11.962 3.1997-1.2254-0.0251-6.8798-1.6568-12.565-3.6243zm25.115-17.94c20.105-7.3215 33.613-14.864 48.329-26.985 19.366-15.952 31.092-35.656 37.258-62.61 2.3095-10.097 2.8218-17.238 3.3263-46.381l0.59634-34.447h-4.1679c-9.5878 0-32.556-3.6449-45.155-7.1655-16.115-4.5036-30.366-10.693-43.013-18.681-5.989-3.783-9.8076-5.5261-10.785-4.9229-14.493 8.9445-19.48 11.725-27.656 15.424-17.657 7.9854-50.493 15.346-68.462 15.346h-4.1679l0.59632 34.447c0.50653 29.268 1.0115 36.267 3.3586 46.552 8.5154 37.318 28.955 62.509 65.797 81.095 7.1748 3.6195 29.168 12.339 31.563 12.515 0.49761 0.0371 6.159-1.8472 12.581-4.1859zm-47.352-82.858c-18.812-15.795-20.11-17.932-14.002-23.06 6.0349-5.0669 9.9474-3.8765 23.175 7.0516l11.759 9.7144 25.981-21.649c22.888-19.072 26.471-21.649 30.109-21.649 5.229 0 10.471 4.1724 10.471 8.3343 0 2.4818-5.4889 7.6169-31.364 29.343-26.716 22.431-31.927 26.334-35.159 26.334-3.1462 0-6.7294-2.4643-20.969-14.42z" fill="none" stroke="#000" stroke-width="5.9349"/>
</g>
</svg>
