<svg width="250mm" height="250mm" version="1.1" viewBox="0 0 250 250" xmlns="http://www.w3.org/2000/svg">
<g transform="translate(110.29 70.191)">
<path d="m12.398 10.981c0.80632-0.59082 1.7349-0.92667 2.7247-0.92667h2.5538m24.58-64.809h20.556c2.847 0 5.139 3.0408 5.139 6.818 0 3.7772-2.292 6.818-5.139 6.818h-20.556c-2.847 0-5.139-3.0408-5.139-6.818 0-3.7772 2.292-6.818 5.139-6.818v0m-27.134-0.64443h5.2693c3.1161 0 5.6247 3.3283 5.6247 7.4625 0 4.1342-2.5086 7.4625-5.6247 7.4625h-5.2693c-3.1161 0-5.6247-3.3283-5.6247-7.4625 0-4.1342 2.5086-7.4625 5.6247-7.4625v0m-38.646 0.64443h20.556c2.847 0 5.139 3.0408 5.139 6.818 0 3.7772-2.292 6.818-5.139 6.818h-20.556c-2.847 0-5.139-3.0408-5.139-6.818 0-3.7772 2.292-6.818 5.139-6.818v0m-20.19 60.941c1.398-5.3235 5.2053-9.1234 9.7061-9.1234h102.78c4.501 0 8.3082 3.7999 9.7062 9.1234m-110-33.668c-1.5177 1.698-2.4797 4.2401-2.4797 7.0922v9.2708c0 3.5519 1.491 6.6239 3.6909 8.1817h94.984c2.2-1.5578 3.6909-4.6297 3.6909-8.1817v-9.2708c0-2.8522-0.96202-5.3942-2.4797-7.0922h-97.406v0m-2.4816-40.908h102.78c5.6941 0 10.278 6.0817 10.278 13.636v13.636c0 7.5544-4.584 13.636-10.278 13.636h-102.78c-5.694 0-10.278-6.0817-10.278-13.636v-13.636c0-7.5544 4.584-13.636 10.278-13.636v0m107.98 218.48h5.2694c3.1161 0 5.6247 3.3283 5.6247 7.4625 0 4.1342-2.5086 7.4625-5.6247 7.4625h-5.2694c-3.116 0-5.6247-3.3282-5.6247-7.4625 0-4.1342 2.5087-7.4625 5.6247-7.4625zm-38.646 0.64441h20.556c2.847 0 5.139 3.0409 5.139 6.8181 0 3.7772-2.292 6.818-5.139 6.818h-20.556c-2.847 0-5.139-3.0408-5.139-6.818 0-3.7772 2.292-6.8181 5.139-6.8181zm65.78-65.453h20.556c2.847 0 5.139 3.0408 5.139 6.818 0 3.7772-2.292 6.818-5.139 6.818h-20.556c-2.8471 0-5.1391-3.0408-5.1391-6.818 0-3.7772 2.292-6.818 5.1391-6.818zm-27.134-0.64443h5.2694c3.1161 0 5.6247 3.3283 5.6247 7.4625 0 4.1342-2.5086 7.4625-5.6247 7.4625h-5.2694c-3.116 0-5.6247-3.3282-5.6247-7.4625 0-4.1342 2.5087-7.4625 5.6247-7.4625zm-38.646 0.64443h20.556c2.847 0 5.139 3.0408 5.139 6.818 0 3.7772-2.292 6.818-5.139 6.818h-20.556c-2.847 0-5.139-3.0408-5.139-6.818 0-3.7772 2.292-6.818 5.139-6.818zm65.78-65.453h20.556c2.847 0 5.139 3.0408 5.139 6.8181 0 3.7772-2.292 6.818-5.139 6.818h-20.556c-2.8471 0-5.1391-3.0408-5.1391-6.818 0-3.7772 2.292-6.8181 5.1391-6.8181zm-27.134-0.64443h5.2694c3.1161 0 5.6247 3.3283 5.6247 7.4625 0 4.1342-2.5086 7.4625-5.6247 7.4625h-5.2694c-3.116 0-5.6247-3.3283-5.6247-7.4625 0-4.1342 2.5087-7.4625 5.6247-7.4625zm-38.646 0.64443h20.556c2.847 0 5.139 3.0408 5.139 6.8181 0 3.7772-2.292 6.818-5.139 6.818h-20.556c-2.847 0-5.139-3.0408-5.139-6.818 0-3.7772 2.292-6.8181 5.139-6.8181zm-8.0017 92.725c-1.5179 1.698-2.4802 4.2402-2.4802 7.0925v9.2708c0 3.5519 1.491 6.6239 3.6909 8.1816h94.984c2.2-1.5577 3.6909-4.6297 3.6909-8.1816v-9.2708c0-2.8523-0.96202-5.3945-2.48-7.0925zm-2.4821 24.545h102.78c5.6941 0 10.278 6.0817 10.278 13.636v13.636c0 7.5544-4.584 13.636-10.278 13.636h-102.78c-5.694 0-10.278-6.0817-10.278-13.636v-13.636c0-7.5544 4.584-13.636 10.278-13.636zm0-65.453h102.78c5.6941 0 10.278 6.0817 10.278 13.636v13.636c0 7.5544-4.584 13.636-10.278 13.636h-102.78c-5.694 0-10.278-6.0817-10.278-13.636v-13.636c0-7.5544 4.584-13.636 10.278-13.636zm2.4816-24.545c-1.5177 1.698-2.4797 4.2401-2.4797 7.0922v9.2708c0 3.5519 1.491 6.6239 3.6909 8.1817h94.984c2.2-1.5578 3.6909-4.6297 3.6909-8.1817v-9.2708c0-2.8522-0.96202-5.3942-2.4797-7.0922zm-2.4816-40.908h102.78c5.6941 0 10.278 6.0817 10.278 13.636v13.636c0 7.5544-4.584 13.636-10.278 13.636h-102.78c-5.694 0-10.278-6.0817-10.278-13.636v-13.636c0-7.5544 4.584-13.636 10.278-13.636zm76.263 144.54h20.556c2.847 0 5.139 3.0409 5.139 6.8181 0 3.7772-2.292 6.818-5.139 6.818h-20.556c-2.8471 0-5.1391-3.0408-5.1391-6.818 0-3.7772 2.292-6.8181 5.1391-6.8181zm-150.2-0.64441h5.2693c3.1161 0 5.6247 3.3283 5.6247 7.4625 0 4.1342-2.5086 7.4625-5.6247 7.4625h-5.2693c-3.1161 0-5.6247-3.3282-5.6247-7.4625 0-4.1342 2.5086-7.4625 5.6247-7.4625zm-38.646 0.64441h20.556c2.847 0 5.139 3.0409 5.139 6.8181 0 3.7772-2.292 6.818-5.139 6.818h-20.556c-2.847 0-5.139-3.0408-5.139-6.818 0-3.7772 2.292-6.8181 5.139-6.8181zm65.78-65.453h20.556c2.847 0 5.139 3.0408 5.139 6.818 0 3.7772-2.292 6.818-5.139 6.818h-20.556c-2.847 0-5.139-3.0408-5.139-6.818 0-3.7772 2.292-6.818 5.139-6.818zm-27.134-0.64443h5.2693c3.1161 0 5.6247 3.3283 5.6247 7.4625 0 4.1342-2.5086 7.4625-5.6247 7.4625h-5.2693c-3.1161 0-5.6247-3.3282-5.6247-7.4625 0-4.1342 2.5086-7.4625 5.6247-7.4625zm-38.646 0.64443h20.556c2.847 0 5.139 3.0408 5.139 6.818 0 3.7772-2.292 6.818-5.139 6.818h-20.556c-2.847 0-5.139-3.0408-5.139-6.818 0-3.7772 2.292-6.818 5.139-6.818zm65.78-65.453h20.556c2.847 0 5.139 3.0408 5.139 6.8181 0 3.7772-2.292 6.818-5.139 6.818h-20.556c-2.847 0-5.139-3.0408-5.139-6.818 0-3.7772 2.292-6.8181 5.139-6.8181zm-27.134-0.64443h5.2693c3.1161 0 5.6247 3.3283 5.6247 7.4625 0 4.1342-2.5086 7.4625-5.6247 7.4625h-5.2693c-3.1161 0-5.6247-3.3283-5.6247-7.4625 0-4.1342 2.5086-7.4625 5.6247-7.4625zm-38.646 0.64443h20.556c2.847 0 5.139 3.0408 5.139 6.8181 0 3.7772-2.292 6.818-5.139 6.818h-20.556c-2.847 0-5.139-3.0408-5.139-6.818 0-3.7772 2.292-6.8181 5.139-6.8181zm-8.0017 92.725c-1.5179 1.698-2.4802 4.2402-2.4802 7.0925v9.2708c0 3.5519 1.491 6.6239 3.6909 8.1816h94.984c2.1999-1.5577 3.6909-4.6297 3.6909-8.1816v-9.2708c0-2.8523-0.96206-5.3945-2.4799-7.0925zm-2.4821 24.545h102.78c5.694 0 10.278 6.0817 10.278 13.636v13.636c0 7.5544-4.584 13.636-10.278 13.636h-102.78c-5.694 0-10.278-6.0817-10.278-13.636v-13.636c0-7.5544 4.584-13.636 10.278-13.636zm0-65.453h102.78c5.694 0 10.278 6.0817 10.278 13.636v13.636c0 7.5544-4.584 13.636-10.278 13.636h-102.78c-5.694 0-10.278-6.0817-10.278-13.636v-13.636c0-7.5544 4.584-13.636 10.278-13.636zm2.4816-24.545c-1.5177 1.698-2.4797 4.2401-2.4797 7.0922v9.2708c0 3.5519 1.491 6.6239 3.6909 8.1817h94.984c2.1999-1.5578 3.6909-4.6297 3.6909-8.1817v-9.2708c0-2.8522-0.96198-5.3942-2.4797-7.0922zm-2.4816-40.908h102.78c5.694 0 10.278 6.0817 10.278 13.636v13.636c0 7.5544-4.584 13.636-10.278 13.636h-102.78c-5.694 0-10.278-6.0817-10.278-13.636v-13.636c0-7.5544 4.584-13.636 10.278-13.636zm76.263 144.54h20.556c2.847 0 5.139 3.0409 5.139 6.8181 0 3.7772-2.292 6.818-5.139 6.818h-20.556c-2.847 0-5.139-3.0408-5.139-6.818 0-3.7772 2.292-6.8181 5.139-6.8181z" fill="none" stroke="#000" stroke-linecap="round" stroke-width="3.6023" style="paint-order:fill markers stroke"/>
</g>
</svg>
