<svg width="250mm" height="267.25mm" version="1.1" viewBox="0 0 250 267.25" xmlns="http://www.w3.org/2000/svg">
<g transform="translate(-59.622 .34514)">
<path d="m178.4 4.455a67.937 67.937 0 0 0-67.937 67.937 67.937 67.937 0 0 0 6.3446 28.661c8.0293 22.679 20.845 47.755 20.845 66.419v24.069h81.526v-24.069c0-18.742 12.923-43.946 20.945-66.699a67.937 67.937 0 0 0 6.2107-27.674c4e-3 -0.24511 0.0214-0.49779 0.0214-0.7406l-0.0172 0.0085a67.937 67.937 0 0 0-67.937-67.913zm13.471 10.832a2.7175 2.7175 0 0 1 0.88247 0.10086c9.4106 2.6696 18.706 6.0626 26.399 12.539 7.6927 6.4757 13.598 16.056 16.29 30.355a2.7175 2.7175 0 0 1-2.1664 3.166 2.7175 2.7175 0 0 1-3.1702-2.1622c-2.5102-13.333-7.7136-21.52-14.462-27.202-6.7488-5.6812-15.232-8.8608-24.379-11.455a2.7175 2.7175 0 0 1-1.8821-3.3542 2.7175 2.7175 0 0 1 2.4884-1.9866zm-66.446 212.38h105.98c3.7637 0 6.7937 3.03 6.7937 6.7937 0 3.7637-3.03 6.7937-6.7937 6.7937h-105.98c-3.7638 0-6.7937-3.03-6.7937-6.7937 0-3.7638 3.03-6.7937 6.7937-6.7937zm5.4349-26.022h95.112c3.7637 0 6.7937 3.03 6.7937 6.7937 0 3.7638-3.03 6.7937-6.7937 6.7937h-95.112c-3.7637 0-6.7937-3.03-6.7937-6.7937 0-3.7637 3.03-6.7937 6.7937-6.7937zm4.2149 47.762c0.54314 6.1223 4.622 10.87 9.6663 10.87h67.35c5.0443 0 9.123-4.7476 9.6663-10.87z" fill="none" stroke="#000" stroke-width="6.424"/>
</g>
</svg>
