<svg width="250mm" height="250mm" version="1.1" viewBox="0 0 250 250" xmlns="http://www.w3.org/2000/svg">
<g transform="translate(1.7041 .44249)">
<path d="m156.12 163.67h55.844c3.3432 0 6.0346 2.6948 6.0346 6.0422v0.54366c0 3.3474-2.6914 6.0422-6.0346 6.0422h-55.844c-3.3432 0-6.0346-2.6948-6.0346-6.0422v-0.54366c0-3.3474 2.6914-6.0422 6.0346-6.0422zm0-20.205h55.844c3.3432 0 6.0346 2.6948 6.0346 6.0422v0.54366c0 3.3474-2.6914 6.0422-6.0346 6.0422h-55.844c-3.3432 0-6.0346-2.6948-6.0346-6.0422v-0.54366c0-3.3474 2.6914-6.0422 6.0346-6.0422zm0-20.205h55.844c3.3432 0 6.0346 2.6948 6.0346 6.0422v0.54366c0 3.3474-2.6914 6.0422-6.0346 6.0422h-55.844c-3.3432 0-6.0346-2.6948-6.0346-6.0422v-0.54366c0-3.3474 2.6914-6.0422 6.0346-6.0422zm0-20.205h55.844c3.3432 0 6.0346 2.6948 6.0346 6.0422v0.54365c0 3.3474-2.6914 6.0422-6.0346 6.0422h-55.844c-3.3432 0-6.0346-2.6948-6.0346-6.0422v-0.54365c0-3.3474 2.6914-6.0422 6.0346-6.0422zm-84.94-100.24c-12.928 0-13.754 0.055748-15.454 1.0408-1.3037 0.75551-2.0333 1.6288-2.6644 3.1896-0.80419 1.9888-0.86942 3.0639-0.86942 14.366v12.216h-16.323c-15.737 0-16.389 0.03837-18.16 1.0645-1.8212 1.0553-1.8965 1.2066-8.9945 18.196-3.9367 9.4229-7.1576 17.737-7.1576 18.476 0 2.3326 1.5564 5.429 3.3278 6.6209 1.6082 1.082 1.9579 1.103 18.144 1.103h16.504v4.3862c0 3.3969 0.19627 4.8724 0.86942 6.537 1.2637 3.1248 3.3878 4.2304 8.1251 4.2304h3.6641v152.04h12.659v-4.8115l12.659-15.128v19.939h12.659v-152.04h3.6641c4.7374 0 6.8615-1.1056 8.1251-4.2304 0.67316-1.6646 0.86945-3.1401 0.86945-6.537v-4.3862h76.796v10.48h12.659v-10.48h9.9934c9.2285 0 10.132-0.07996 11.79-1.0408 1.3037-0.75551 2.0333-1.6289 2.6644-3.1895 0.82283-2.0348 0.86941-3.0234 0.86941-18.5 0-15.477-0.0465-16.465-0.86941-18.5-0.63119-1.5607-1.3607-2.4341-2.6644-3.1896-1.7878-1.0368-2.065-1.0408-62.846-1.0408h-61.05v-12.216c0-11.302-0.06523-12.377-0.86944-14.366-0.63115-1.5607-1.3607-2.4341-2.6644-3.1896-1.6997-0.98502-2.5256-1.0408-15.454-1.0408zm-6.3293 15.154h12.659v15.659h-12.659v-7.8293zm-40.31 30.812h14.993v15.154h-10.549c-5.8019 0-10.549-0.11112-10.549-0.24765 0-0.1365 1.3738-3.546 3.0526-7.5768zm78.286 0h29.737l-12.637 15.154h-17.1v-7.5768zm60.564 0h19.804l-4.8385 5.8089c-2.6613 3.1949-4.9398 5.8089-5.0635 5.8089-0.1236 0-2.4022-2.614-5.0634-5.8089zm39.75 0h1.7982v15.154h-16.235l6.3186-7.5768c6.1693-7.3975 6.3616-7.5768 8.1177-7.5768zm-55.166 3.2882 4.9555 5.9332 4.9563 5.9322h-19.824l4.9563-5.9322zm-83.125 42.173h12.659v17.174c0 9.4457-0.04943 17.174-0.11053 17.174-0.06092 0-2.9091-3.3553-6.3293-7.4565l-6.2189-7.4564v-9.7176zm0 41.172 4.9555 5.9332 4.9563 5.9322-4.9563 5.9322-4.9555 5.9332v-11.865zm12.659 30.307v11.742c0 6.4577-0.05039 11.741-0.11212 11.741-0.06188 0-2.2913-2.6155-4.9539-5.8119l-4.8409-5.8119 4.9538-5.9292zm-12.659 30.307 4.9555 5.9332 4.9563 5.9322-4.9563 5.9322-4.9555 5.9332v-11.865zm85.446-106.46h69.622c4.0908 0 7.3842 3.9425 7.3842 8.8396v83.345c0 4.8971-3.2934 8.8396-7.3842 8.8396h-69.622c-4.0908 0-7.3842-3.9425-7.3842-8.8396v-83.345c0-4.8971 3.2934-8.8396 7.3842-8.8396zm-60.129 114.21h147.47c4.0908 0 7.3842-3.9425 7.3842-8.8396v-158.81c0-4.8971-3.2934-8.8396-7.3842-8.8396h-147.47v6.3436h61.05c30.391 0 45.656 0 53.546 0.13221 3.9452 0.06532 6.0466 0.16264 7.2738 0.30877 0.61355 0.07308 1.008 0.1582 1.3054 0.25751 0.2974 0.09934 0.49764 0.21276 0.72112 0.34232 0.65184 0.37776 1.1605 0.7855 1.5848 1.2934 0.42422 0.50783 0.76397 1.1158 1.0796 1.8962 0.20571 0.50864 0.36285 0.95194 0.48293 1.5726 0.12011 0.62062 0.20317 1.419 0.26044 2.6371 0.11445 2.436 0.12607 6.552 0.12607 14.29 0 7.7383-0.0118 11.855-0.12607 14.291-0.0572 1.2181-0.14033 2.0154-0.26044 2.6361-0.12008 0.62064-0.27722 1.0639-0.48293 1.5726-0.31562 0.7803-0.65537 1.3893-1.0796 1.8972-0.42429 0.50786-0.93299 0.91463-1.5848 1.2923-0.41458 0.24023-0.78155 0.42567-1.2436 0.56825-0.46205 0.14266-1.0189 0.24273-1.8123 0.31278-1.5867 0.14011-4.1199 0.15981-8.7341 0.15981h-9.9934v10.48h27.638c0.51136 0 1.0101 0.06223 1.4917 0.17959 0.48154 0.11738 0.94581 0.28993 1.3878 0.51298 0.44201 0.22308 0.86161 0.49588 1.2544 0.81295 0.39271 0.31712 0.75908 0.67889 1.0928 1.0783 0.33368 0.39946 0.63509 0.83709 0.89993 1.3072 0.26493 0.47012 0.49277 0.9724 0.6791 1.5015 0.18635 0.52917 0.33131 1.0849 0.42939 1.6614 0.098 0.57645 0.14915 1.1736 0.14915 1.7857v83.345c0 0.61215-0.0511 1.2092-0.14915 1.7857-0.0981 0.5765-0.24304 1.1322-0.42939 1.6614-0.18633 0.52912-0.41417 1.0324-0.6791 1.5025-0.26484 0.47013-0.56625 0.90776-0.89993 1.3072-0.33368 0.39939-0.70005 0.7602-1.0928 1.0773-0.39274 0.31704-0.81234 0.58982-1.2544 0.81287-0.44201 0.22313-0.90628 0.39668-1.3878 0.51401-0.48158 0.11741-0.98033 0.17855-1.4917 0.17855h-69.622c-0.51137 0-1.0101-0.0611-1.4917-0.17855-0.48154-0.11733-0.94582-0.29088-1.3878-0.51401-0.44204-0.22305-0.86164-0.49583-1.2543-0.81287-0.39272-0.31712-0.7583-0.67793-1.092-1.0773-0.33366-0.39946-0.6359-0.83709-0.90076-1.3072-0.26492-0.47012-0.49276-0.97341-0.6791-1.5025-0.18632-0.52915-0.33132-1.0849-0.42937-1.6614-0.0981-0.57646-0.14916-1.1735-0.14916-1.7857v-83.345c0-0.61209 0.0511-1.2092 0.14916-1.7857 0.0981-0.57648 0.24305-1.1322 0.42937-1.6614 0.18634-0.5291 0.41418-1.0314 0.6791-1.5015 0.26486-0.47012 0.5671-0.90775 0.90076-1.3072 0.33366-0.39944 0.69924-0.76121 1.092-1.0783 0.3927-0.31707 0.8123-0.58987 1.2543-0.81295 0.44199-0.22305 0.90627-0.3956 1.3878-0.51298 0.48159-0.11735 0.98031-0.17959 1.4917-0.17959h29.326v-10.48h-76.796v4.3863c0 1.6984-0.0489 2.9171-0.18214 3.9186-0.13325 1.0016-0.35075 1.786-0.6873 2.6184-0.31591 0.78116-0.68565 1.4359-1.1365 1.9791-0.45086 0.54305-0.98294 0.97468-1.6236 1.3081-0.64054 0.33349-1.3895 0.56969-2.2746 0.72218-0.88504 0.15249-1.9061 0.22098-3.0905 0.22098h-3.6641v76.02zm89.454-114.21h-29.326c-0.51137 0-1.0101 0.06223-1.4917 0.17959-0.48154 0.11738-0.94582 0.28993-1.3878 0.51298-0.44204 0.22308-0.86164 0.49588-1.2543 0.81295-0.39272 0.31712-0.7583 0.67889-1.092 1.0783-0.33366 0.39946-0.6359 0.83709-0.90076 1.3072-0.26492 0.47012-0.49276 0.9724-0.6791 1.5015-0.18632 0.52917-0.33132 1.0849-0.42937 1.6614-0.0981 0.57645-0.14916 1.1736-0.14916 1.7857v83.345c0 0.61215 0.0511 1.2092 0.14916 1.7857 0.0981 0.5765 0.24305 1.1322 0.42937 1.6614 0.18634 0.52912 0.41418 1.0324 0.6791 1.5025 0.26486 0.47013 0.5671 0.90776 0.90076 1.3072 0.33366 0.39939 0.69924 0.7602 1.092 1.0773 0.3927 0.31704 0.8123 0.58982 1.2543 0.81287 0.44199 0.22313 0.90627 0.39668 1.3878 0.51401 0.48159 0.11741 0.98031 0.17855 1.4917 0.17855h69.622c0.51136 0 1.0101-0.0611 1.4917-0.17855 0.48154-0.11733 0.94581-0.29088 1.3878-0.51401 0.44201-0.22305 0.86161-0.49583 1.2544-0.81287 0.39271-0.31712 0.75908-0.67793 1.0928-1.0773 0.33368-0.39946 0.63509-0.83709 0.89993-1.3072 0.26493-0.47012 0.49277-0.97341 0.6791-1.5025 0.18635-0.52915 0.33131-1.0849 0.42939-1.6614 0.098-0.57646 0.14915-1.1735 0.14915-1.7857v-83.345c0-0.61209-0.0511-1.2092-0.14915-1.7857-0.0981-0.57648-0.24304-1.1322-0.42939-1.6614-0.18633-0.5291-0.41417-1.0314-0.6791-1.5015-0.26484-0.47012-0.56625-0.90775-0.89993-1.3072-0.33368-0.39944-0.70005-0.76121-1.0928-1.0783-0.39274-0.31707-0.81234-0.58987-1.2544-0.81295-0.44201-0.22305-0.90628-0.3956-1.3878-0.51298-0.48158-0.11735-0.98033-0.17959-1.4917-0.17959h-27.638zm-103.38 98.282c0.22766 0.25807 1.1394 1.3536 1.1538 1.3536 0.0617 0 0.11207-5.2834 0.11207-11.741v-11.742l-1.2659 1.5154zm0-60.622c0.18347 0.20783 1.1443 1.3615 1.1554 1.3615 0.06108 0 0.11043-7.7283 0.11043-17.174v-17.174h-1.2659zm0.33297-93.601h0.93288v-2.4644c-0.41997 0.74259-0.71626 1.5825-0.93288 2.4644zm26.25 15.154v15.154h17.1l6.3186-7.5768 6.3186-7.5768h-14.868zm60.564 0 4.8385 5.8089c2.6613 3.1949 4.9398 5.8089 5.0635 5.8089 0.12358 0 2.4022-2.614 5.0634-5.8089l4.8384-5.8089h-9.9019zm39.75 0c-0.43899 0-0.78006 0.01161-1.1414 0.14407-0.36136 0.13239-0.7432 0.38536-1.2626 0.87011-1.0388 0.96953-2.629 2.8638-5.7137 6.5626l-6.3186 7.5768h16.235v-15.154zm-55.166 3.2882-4.9555 5.9332-4.9563 5.9322h19.824l-4.9563-5.9322z" fill="none" stroke="#000" stroke-linecap="round" stroke-width="6.5325" style="paint-order:fill markers stroke"/>
</g>
</svg>
