<svg width="250mm" height="372.72mm" version="1.1" viewBox="0 0 250 372.72" xmlns="http://www.w3.org/2000/svg">
<g transform="translate(-3.3463 86.919)">
<path d="m55.759-83.455c-24.193 0-44.736 15.553-48.949 35.616v294.31c0 0.0986 0.015298 0.19241 0.015298 0.29262 4.2312 20.045 24.762 35.574 48.939 35.574h144.36c27.166 0 49.756-19.608 49.756-43.196l-3e-3 -279.4c-4.8e-4 -23.588-22.586-43.197-49.756-43.197zm0.0037 39.612h144.36c2.6861 0 4.1326 1.2546 4.1326 3.5848v279.4c0 2.3285-1.4466 3.5886-4.1326 3.5886h-144.36c-2.6841 0-4.1298-1.26-4.1298-3.5886v-279.4c0-2.3304 1.4458-3.5848 4.1298-3.5848zm69.691 293.65a12.614 12.614 0 0 1 12.611 12.616 12.614 12.614 0 0 1-12.611 12.616 12.614 12.614 0 0 1-12.618-12.616 12.614 12.614 0 0 1 12.618-12.616z" fill="none" stroke="#000" stroke-linecap="round" stroke-width="6.9273" style="paint-order:fill markers stroke"/>
</g>
</svg>
