<svg width="250mm" height="250.06mm" version="1.1" viewBox="0 0 250 250.06" xmlns="http://www.w3.org/2000/svg">
<g transform="translate(29.419 60.236)">
<path d="m116.89 184.45c-1.8184-2.0297-2.1552-5.7298-2.1552-23.678v-21.273h-7.7206c-8.0761 0-11.814-2.0066-11.813-6.3424 1.02e-4 -2.0337 49.477-66.491 56.677-73.837 2.5976-2.6504 3.7284-3.0023 6.3429-1.9732 3.8175 1.5024 59.393 72.353 59.393 75.717 0 4.4289-3.684 6.4361-11.813 6.4361h-7.7206v21.611c0 17.893-0.35192 21.967-2.0464 23.678-1.7656 1.7833-7.1892 2.067-39.517 2.067-34.647 0-37.633-0.18134-39.626-2.4056zm-64.013-49.749c-38.431-8.069-64.893-31.943-76.386-68.914-2.6115-8.4009-3.0339-12.385-2.9236-27.578 0.11318-15.626 0.55204-19.022 3.6527-28.282 5.1491-15.377 12.715-27.454 24.743-39.494 41.505-41.547 109.23-35.686 144.75 12.527 10.494 14.245 16.234 31.468 17.15 51.455l0.70064 15.28-6.4969-0.63064c-5.788-0.56178-6.9363-0.21976-10.523 3.1362-7.3109 6.8398-58.984 74.47-59.714 78.153-0.53862 2.7205-1.6834 3.805-4.6486 4.4039-4.2859 0.86601-26.105 0.82469-30.305-0.0571zm21.916-29.734c1.2255-0.90536 2.6754-3.3348 3.222-5.3992 0.7405-2.7968 2.2677-4.1955 5.9938-5.4895 12.729-4.4203 21.632-17.39 21.582-31.44-0.063-17.649-10.105-27.895-31.674-32.315-16.363-3.3536-21.69-7.9166-21.69-18.579 0-8.0419 4.6054-13.867 12.372-15.647 9.4474-2.1661 15.871 1.0186 21.928 10.871 3.9421 6.4126 15.186 3.7294 15.186-3.6239 0-6.5993-11.493-18.139-19.86-19.941-2.8276-0.60879-3.5813-1.5142-3.5813-4.3016 0-4.7863-2.4749-7.793-7.1625-8.7014-5.0492-0.97862-8.4348 1.5801-9.5809 7.2409-0.73046 3.6078-1.7952 4.7324-5.8092 6.1362-14.535 5.0833-22.75 20.731-19.054 36.294 2.9129 12.265 11.845 19.13 31.318 24.071 17.96 4.5571 24.122 11.72 20.772 24.146-1.9487 7.2283-6.0527 11.419-13.047 13.321-10.609 2.8855-19.464-1.6948-24.203-12.52-2.9969-6.8451-3.39-7.2012-7.9502-7.2012-5.1183 0-9.5686 3.0075-9.5477 6.4524 0.02448 3.756 6.0743 15.163 10.037 18.919 2.1274 2.0167 6.7223 4.7611 10.211 6.0988 4.9646 1.9036 6.5598 3.2506 7.3401 6.1978 1.1564 4.3676 4.286 7.0573 8.2114 7.0573 1.5168 0 3.7606-0.74058 4.9861-1.6457z" fill="none" stroke="#000" stroke-width="5.9396"/>
</g>
</svg>
