<svg width="250mm" height="250mm" version="1.1" viewBox="0 0 250 250" xmlns="http://www.w3.org/2000/svg">
<g transform="translate(-34.696 115.57)">
<path d="m189.66 128.34c-3.5876-1.6917-7.8075-4.4744-9.3774-6.1837-4.5036-4.9034-8.1749-14.295-8.2061-20.993l-0.0296-6.1443-56.424-0.37818c-54.902-0.36831-56.565-0.4541-61.643-3.1866-6.7052-3.6083-10.278-7.5001-13.589-14.803-2.5837-5.6987-2.6623-8.1745-2.6902-84.643-0.019736-58.341 0.38512-80.165 1.566-84.142 2.0968-7.0603 11.717-16.68 18.778-18.777 6.7461-2.0032 146.15-2.2948 153.04-0.31998 7.271 2.0852 13.866 7.5363 17.749 14.67 3.0841 5.6663 3.7435 8.6621 4.2581 19.347l0.60883 12.643 12.644 0.60877c10.686 0.51454 13.682 1.1738 19.349 4.2578 7.1342 3.8827 12.586 10.477 14.671 17.748 1.9748 6.8855 1.6832 146.28-0.32004 153.03-2.0968 7.0603-11.717 16.68-18.778 18.777-3.5542 1.0554-15.464 1.5902-35.224 1.5818-28.637-0.0108-30.121-0.13805-36.378-3.0887zm70.787-11.241c2.3385-1.4258 5.4184-4.5055 6.8443-6.8439 2.5035-4.1058 2.5926-6.7069 2.5973-75.803 6e-3 -79.802 0.23817-77.633-8.9401-83.34-4.5719-2.8429-5.8741-2.9557-34.107-2.9557-33.137 0-35.051 0.46938-40.352 9.9013-2.7365 4.8685-2.7607 5.6494-2.4061 77.316 0.35109 70.883 0.41471 72.475 3.0603 76.08 5.5687 7.5888 8.7773 8.2442 40.35 8.241 26.34-3e-3 29.051-0.21594 32.953-2.5951zm-50.305-12.009c-2.2602-2.2601-1.9255-5.5316 0.82025-8.0163 1.9042-1.7232 5.1775-2.159 16.214-2.159 14.499 0 17.929 1.2157 17.929 6.3549 0 4.5828-2.7232 5.3858-18.264 5.3858-10.031 0-15.661-0.52781-16.699-1.5654zm-11.024-48.111c-2.6208-1.5263-3.0246-6.4594-0.71756-8.7662 1.088-1.0879 7.9726-1.5654 22.57-1.5654 21.621 0 24.135 0.56108 24.135 5.3858 0 5.5509-3.0511 6.357-23.902 6.3152-11.009-0.01977-20.816-0.63007-22.085-1.3694zm-0.71756-24.942c-0.86102-0.86098-1.5655-2.7982-1.5655-4.3049 0-5.5184 1.7988-5.8704 30.006-5.8704 28.207 0 30.006 0.35206 30.006 5.8704 0 5.5185-1.7986 5.8704-30.006 5.8704-19.163 0-27.324-0.44918-28.441-1.5654zm0-24.786c-2.3432-2.343-2.1434-30.249 0.2308-32.219 1.2541-1.0408 10.212-1.3843 29.68-1.1382l27.884 0.35254 0.36883 15.469c0.24505 10.29-0.1356 16.077-1.1382 17.285-2.0308 2.4468-54.597 2.6775-57.025 0.24998zm46.705-16.046v-5.8704h-36.529v11.741h36.529zm-73.058 85.446v-6.5226h-11.117c-10.587 0-11.188-0.15531-12.601-3.256-1.2259-2.6904-1.0726-3.7102 0.8824-5.8704 1.9847-2.1929 4.016-2.6143 12.601-2.6143h10.235v-13.045h-11.043c-9.7081 0-11.212-0.31558-12.44-2.6091-1.6133-3.0143 0-7.0478 3.332-8.3259 1.1549-0.44324 6.1613-0.80574 11.125-0.80574h9.0256v-11.741h-10.008c-15.258 0-14.78 0.98442-14.78-30.43 0-31.913-0.49654-30.883 14.886-30.883h10.568l1.431-4.2397c0.78703-2.3318 1.8763-5.2726 2.4205-6.5351 0.93789-2.1756-2.3365-2.2777-62.754-1.9568l-63.744 0.33872v61.544c0 60.193 0.05911 61.625 2.7019 65.226 6.0353 8.2248 6.1855 8.2438 65.464 8.246l53.815 0.0028zm-108.02-8.0881c-2.0124-2.0122-2.0124-6.5976 0-8.6099 1.0849-1.0848 7.8649-1.5654 22.085-1.5654 16.915 0 20.88 0.35991 22.57 2.0499 2.404 2.4039 2.5344 3.7393 0.69957 7.1675-1.2502 2.3359-2.9261 2.5233-22.57 2.5233-14.764 0-21.695-0.47628-22.785-1.5654zm-0.6958-24.09c-1.9045-1.9043-0.81056-8.2019 1.6537-9.5206 2.7197-1.4554 62.242-1.9474 65.898-0.54467 3.331 1.2781 4.9452 5.3117 3.332 8.3259-1.3421 2.5075-2.7316 2.6091-35.705 2.6091-18.87 0-34.7-0.39151-35.178-0.86969zm1.4133-24.021c-2.061-1.2003-2.2831-4.026-2.2831-29.051 0-19.822 0.44625-28.168 1.5656-29.287 1.1349-1.1348 10.623-1.5654 34.498-1.5654 32.553 0 32.956 0.03463 34.963 2.8993 1.6676 2.3807 2.0309 7.3978 2.0309 28.047 0 23.409-0.1805 25.328-2.6092 27.757-2.4681 2.468-4.3201 2.6069-34.246 2.5693-19.051-0.02449-32.545-0.5686-33.92-1.3693zm58.381-29.247v-18.263l-48.923-0.70999v37.946l48.923-0.71001zm48.923 0v-18.916h-13.046v18.046c0 9.9253 0.3915 18.437 0.86975 18.916 0.47828 0.47823 3.4137 0.86966 6.523 0.86966h5.6533zm49.273-67.081c-0.50172-8.7991-1.3466-12.743-3.463-16.168-5.5137-8.9207-3.6085-8.7212-83.189-8.7157-69.101 5e-3 -71.702 0.0936-75.808 2.5972-7.3137 4.4589-9.436 9.5189-9.4416 22.51l-0.0053 11.415h172.57zm-158.86-5.9726v-5.8703h11.741v11.741h-11.741zm23.483 0v-5.8703h12.413l-0.46694 5.8703-0.46694 5.8704h-11.479zm24.788 0v-5.8703h11.741v11.741h-11.741z" fill="none" stroke="#000" stroke-width="6.0003"/>
</g>
</svg>
