<svg width="250mm" height="250mm" version="1.1" viewBox="0 0 250 250" xmlns="http://www.w3.org/2000/svg">
<path d="m176.33 66.028c-8.8902 0-16.439 5.6371-17.987 12.909v106.67c0 0.0359 5e-3 0.0708 5e-3 0.10633 1.5548 7.2646 9.0996 12.894 17.984 12.894h53.051c9.9834 0 18.284-7.1069 18.284-15.657v-101.27c0-8.5496-8.3001-15.656-18.284-15.656zm0 14.357h53.051c0.98623 0 1.5187 0.45474 1.5187 1.2993v101.27c0 0.8446-0.5325 1.3005-1.5187 1.3005h-53.051c-0.98624 0-1.5176-0.45583-1.5176-1.3005v-101.27c0-0.84464 0.53138-1.2993 1.5176-1.2993zm25.609 106.43a4.6353 4.5719 0 0 1 4.6348 4.5713 4.6353 4.5719 0 0 1-4.6348 4.5724 4.6353 4.5719 0 0 1-4.6359-4.5724 4.6353 4.5719 0 0 1 4.6359-4.5713zm-188.25-97.137c-5.6072 0-10.368 4.5996-11.344 10.533v87.039c0 0.0304 2e-3 0.0559 2e-3 0.0863 0.98064 5.9274 5.7387 10.52 11.342 10.52h33.459c6.2966 0 11.532-5.7988 11.532-12.775v-82.629c0-6.9759-5.2351-12.775-11.532-12.775zm0 11.715h33.459c0.62203 0 0.95788 0.37063 0.95788 1.0597v82.629c0 0.6891-0.33584 1.0613-0.95788 1.0613h-33.459c-0.62203 0-0.95669-0.37207-0.95669-1.0613v-82.629c0-0.68914 0.33466-1.0597 0.95669-1.0597zm16.512 86.571a2.9977 4.0191 0 0 1 2.9977 4.0191 2.9977 4.0191 0 0 1-2.9977 4.0191 2.9977 4.0191 0 0 1-2.9977-4.0191 2.9977 4.0191 0 0 1 2.9977-4.0191zm31.099-138c-9.9834 0-18.282 11.128-18.282 24.513v15.205h4.1312c0.78708 0 1.5575 0.08993 2.3033 0.26218 0.74574 0.17225 1.4665 0.42723 2.1546 0.75355 0.68813 0.32632 1.3437 0.7245 1.9579 1.1869 0.6142 0.46239 1.1868 0.98793 1.7108 1.5684 0.52396 0.58042 0.99944 1.2161 1.4169 1.8965 0.41744 0.6804 0.77686 1.4058 1.0714 2.1681 0.29461 0.76234 0.52372 1.5618 0.67917 2.3879 0.15545 0.82615 0.23772 1.6792 0.23772 2.5512v67.265h38.772c-0.23991 0.41612-0.38757 0.93338-0.38757 1.5024v4.6283h-4.5563c-1.7473 0-3.1534 1.8852-3.1534 4.2278v3.771c0 2.3426 1.4062 4.2279 3.1534 4.2279h53.646c1.7473 0 3.1546-1.8853 3.1546-4.2279v-3.771c0-2.3426-1.4073-4.2278-3.1546-4.2278h-5.1909v-4.6283c0-0.56927-0.14865-1.0862-0.38876-1.5024h17.772v-22.083h-97.047c-0.98628 0-1.5188-0.71237-1.5188-2.0347v-71.127c0-1.3223 0.5325-2.0363 1.5188-2.0363h100.43c0.22321-0.25671 0.40698-0.53881 0.64757-0.78339 0.67416-0.68536 1.4151-1.3217 2.2132-1.9012 0.798-0.57955 1.6538-1.1024 2.5574-1.5605 0.90364-0.45811 1.8556-0.8517 2.8466-1.1728 0.99105-0.32107 2.0206-0.56955 3.0808-0.73789 1.0603-0.16831 2.1511-0.25579 3.2624-0.25579h20.287c-2.613-9.2943-9.3032-16.064-17.07-16.064zm57.519 102.35a7.7219 7.9443 0 0 1 9e-3 0 7.7219 7.9443 0 0 1 7.722 7.9443 7.7219 7.9443 0 0 1-7.722 7.9443 7.7219 7.9443 0 0 1-7.7219-7.9443 7.7219 7.9443 0 0 1 7.7135-7.9443z" fill="none" stroke="#000" stroke-linecap="round" stroke-width="4.6753" style="paint-order:fill markers stroke"/>
</svg>
