<svg width="250mm" height="250mm" version="1.1" viewBox="0 0 250 250" xmlns="http://www.w3.org/2000/svg">
<g transform="translate(22.542 75.338)">
<path d="m-16.53 169.73c-4.9278-4.9413-2.3866-8.4422 28.831-39.72 31.188-31.248 34.686-33.8 39.587-28.885 4.9278 4.9413 2.3866 8.4422-28.831 39.72-31.188 31.248-34.686 33.8-39.587 28.885zm64.681 0c-4.5736-4.5862-2.016-8.7489 17.3-28.158 19.344-19.437 23.508-22.012 28.12-17.387 4.6121 4.6247 2.0443 8.8005-17.339 28.197-19.356 19.369-23.507 21.934-28.081 17.348zm70.015-46.58c-7.261-12.647-11.262-18.214-13.38-18.618-1.6618-0.317-8.3904-1.5559-14.953-2.7532-22.569-4.1182-34.478-16.032-38.575-38.591-1.2062-6.6416-2.4619-13.48-2.7905-15.196-0.42649-2.226-5.4395-5.9009-17.49-12.82-9.2907-5.3346-17.367-10.416-17.948-11.292-3.3867-5.1075-0.98186-9.0755 15.209-25.093l16.309-16.135h57.041l23.804-23.513c25.391-25.08 31.495-29.252 45.612-31.173 9.8262-1.337 46.358 2.0724 48.836 4.558 2.5473 2.5545 5.2288 28.62 4.5335 44.075-0.84315 18.744-3.2242 22.662-30.887 50.821l-23.449 23.869v57.197l-16.091 16.354c-13.945 14.172-16.713 16.353-20.757 16.353-4.4635 0-5.1169-0.7844-15.025-18.042zm36.062-49.728v-27.904l24.24-24.588c14.507-14.715 25.558-27.191 27.521-31.071 3.6463-7.2065 4.232-15.504 2.3556-33.4l-1.1593-11.058-11.028-1.0892c-30.117-2.9748-32.171-2.0239-64.134 29.697l-24.682 24.495h-55.814l-19.315 19.22 14.563 8.4367c8.0096 4.6401 14.843 8.7179 15.186 9.0618 0.34281 0.34374 1.7652 7.6789 3.1607 16.3 1.3955 8.6213 3.5193 17.569 4.7196 19.883 5.013 9.6656 12.824 13.858 30.484 16.362 18.046 2.5583 17.24 2.1152 23.113 12.704 2.9688 5.3532 6.8874 12.122 8.7078 15.042l3.3099 5.3088 18.77-19.496zm6.4681-69.746c-7.9284-3.5335-13.655-12.2-13.655-20.665 0-6.6022 5.3215-15.443 11.335-18.833 14.557-8.2036 31.313 0.4924 32.902 17.076 1.5923 16.616-15.497 29.145-30.583 22.422zm13.367-15.549c4.0318-4.0429 0.99428-11.242-4.7432-11.242-1.6602 0-3.7946 0.77829-4.7433 1.7295-0.94863 0.95125-1.7248 3.0915-1.7248 4.7563 0 1.6646 0.77617 3.805 1.7248 4.7563 0.9487 0.95125 3.0831 1.7295 4.7433 1.7295 1.6601 0 3.7946-0.77829 4.7432-1.7295zm-190.56 116.23c-6.1791-4.3399-4.2208-7.6793 16.684-28.45 10.933-10.863 20.959-19.751 22.279-19.751 3.1238 0 8.1497 5.0757 8.1497 8.2306 0 3.0192-38.792 42.214-41.78 42.214-1.1764 0-3.5764-1.0095-5.3333-2.2436z" fill="none" stroke="#000" stroke-width="5.9409"/>
</g>
</svg>
