<svg width="250mm" height="250mm" version="1.1" viewBox="0 0 250 250" xmlns="http://www.w3.org/2000/svg">
<g transform="translate(38.979 1.8381)">
<g transform="matrix(.9502 0 0 .95063 -1.9388 -.093351)" fill="none" stroke="#000" stroke-linecap="round">
<path d="m-14.411 1.3397h213.96c11.853 0 21.396 9.0781 21.396 20.355v20.354c0 11.276-9.5425 20.354-21.396 20.354h-213.96c-11.853 0-21.396-9.0781-21.396-20.354v-20.354c0-11.276 9.5425-20.355 21.396-20.355z" stroke-width="6.35" style="paint-order:fill markers stroke"/>
<path transform="scale(.26458)" d="m-34.941 235.86c-11.941 9.5795-19.51 23.921-19.51 40.012v52.303c0 20.039 11.731 37.37 29.039 46.158h747.31c17.308-8.7883 29.039-26.119 29.039-46.158v-52.303c0-16.091-7.5686-30.432-19.51-40.012z" stroke-width="24" style="paint-order:fill markers stroke"/>
<path d="m-14.411 99.041h213.96c11.853 0 21.396 9.0781 21.396 20.355v20.354c0 11.276-9.5425 20.354-21.396 20.354h-213.96c-11.853 0-21.396-9.0781-21.396-20.354v-20.354c0-11.276 9.5425-20.355 21.396-20.355z" stroke-width="6.35" style="paint-order:fill markers stroke"/>
<path d="m-14.411 196.74h213.96c11.853 0 21.396 9.0781 21.396 20.354v20.355c0 11.276-9.5425 20.354-21.396 20.354h-213.96c-11.853 0-21.396-9.0781-21.396-20.354v-20.355c0-11.276 9.5425-20.354 21.396-20.354z" stroke-width="6.35" style="paint-order:fill markers stroke"/>
<path transform="scale(.26458)" d="m-34.938 605.12c-11.943 9.5796-19.514 23.922-19.514 40.014v52.303c0 20.039 11.731 37.37 29.039 46.158h747.31c17.308-8.7883 29.039-26.119 29.039-46.158v-52.303c0-16.092-7.5693-30.434-19.512-40.014z" stroke-width="24" style="paint-order:fill markers stroke"/>
<g stroke-width="6.35">
<path d="m7.4133 21.694h42.791c5.9266 0 10.698 4.5391 10.698 10.177 0 5.6382-4.7712 10.177-10.698 10.177h-42.791c-5.9266 0-10.698-4.539-10.698-10.177 0-5.6382 4.7712-10.177 10.698-10.177z" style="paint-order:fill markers stroke"/>
<path d="m87.862 20.732h10.969c6.4868 0 11.709 4.9681 11.709 11.139 0 6.1711-5.2222 11.139-11.709 11.139h-10.969c-6.4868 0-11.709-4.9681-11.709-11.139 0-6.1711 5.2222-11.139 11.709-11.139z" style="paint-order:fill markers stroke"/>
<path d="m144.35 21.694h42.791c5.9266 0 10.698 4.5391 10.698 10.177 0 5.6382-4.7712 10.177-10.698 10.177h-42.791c-5.9266 0-10.698-4.539-10.698-10.177 0-5.6382 4.7712-10.177 10.698-10.177z" style="paint-order:fill markers stroke"/>
<path d="m7.4133 119.4h42.791c5.9266 0 10.698 4.539 10.698 10.177 0 5.6382-4.7712 10.177-10.698 10.177h-42.791c-5.9266 0-10.698-4.539-10.698-10.177 0-5.6382 4.7712-10.177 10.698-10.177z" style="paint-order:fill markers stroke"/>
<path d="m87.862 118.43h10.969c6.4868 0 11.709 4.9681 11.709 11.139 0 6.1711-5.2222 11.139-11.709 11.139h-10.969c-6.4868 0-11.709-4.9681-11.709-11.139 0-6.1711 5.2222-11.139 11.709-11.139z" style="paint-order:fill markers stroke"/>
<path d="m144.35 119.4h42.791c5.9266 0 10.698 4.539 10.698 10.177 0 5.6382-4.7712 10.177-10.698 10.177h-42.791c-5.9266 0-10.698-4.539-10.698-10.177 0-5.6382 4.7712-10.177 10.698-10.177z" style="paint-order:fill markers stroke"/>
<path d="m7.4133 217.1h42.791c5.9266 0 10.698 4.5391 10.698 10.177 0 5.6382-4.7712 10.177-10.698 10.177h-42.791c-5.9266 0-10.698-4.5391-10.698-10.177 0-5.6382 4.7712-10.177 10.698-10.177z" style="paint-order:fill markers stroke"/>
<path d="m87.862 216.14h10.969c6.4868 0 11.709 4.9681 11.709 11.139 0 6.1711-5.2222 11.139-11.709 11.139h-10.969c-6.4868 0-11.709-4.9681-11.709-11.139 0-6.1711 5.2222-11.139 11.709-11.139z" style="paint-order:fill markers stroke"/>
<path d="m144.35 217.1h42.791c5.9266 0 10.698 4.5391 10.698 10.177 0 5.6382-4.7712 10.177-10.698 10.177h-42.791c-5.9266 0-10.698-4.5391-10.698-10.177 0-5.6382 4.7712-10.177 10.698-10.177z" style="paint-order:fill markers stroke"/>
</g>
</g>
</g>
</svg>
