<svg width="250mm" height="250mm" version="1.1" viewBox="0 0 250 250" xmlns="http://www.w3.org/2000/svg">
<g transform="translate(-1.7847 -1.4824)">
<path d="m83.442 15.542a10.738 10.75 0 1 0 10.738 10.748 10.748 10.759 0 0 0-10.738-10.748zm0 14.171a3.4126 3.4163 0 1 1 3.4126-3.4163 3.424 3.4277 0 0 1-3.4126 3.4163zm-27.335-14.171a10.738 10.75 0 1 0 10.743 10.748 10.75 10.761 0 0 0-10.743-10.748zm0 14.171a3.4126 3.4163 0 1 1 3.4126-3.4163 3.4126 3.4163 0 0 1-3.4126 3.4163zm-27.337-14.171a10.738 10.75 0 1 0 10.738 10.748 10.748 10.759 0 0 0-10.738-10.748zm0 14.171a3.4126 3.4163 0 1 1 3.4126-3.4163 3.424 3.4277 0 0 1-3.4126 3.4163zm206.91-28.23h-217.8a16.121 16.139 0 0 0-16.103 16.12v177.23a16.121 16.139 0 0 0 16.103 16.12h13.769a3.6584 3.6623 0 1 0 0-7.3246h-13.769a8.7955 8.8049 0 0 1-8.7864-8.7958v-13.893h133.3v6.3133h-2.9007a7.2029 7.2107 0 0 0-7.1961 7.2038v9.1739h-78.402a3.6584 3.6623 0 1 0 0 7.3246h35.18v13.137h-11.048a13.38 13.394 0 0 0-13.364 13.378v7.9122a6.1041 6.1106 0 0 0 6.0973 6.1038h111.75a6.1041 6.1106 0 0 0 6.0972-6.1038v-7.9122a13.38 13.394 0 0 0-13.364-13.378h-11.046v-4.6325h67.641a7.2029 7.2107 0 0 0 7.1939-7.2039v-1.7241a16.126 16.143 0 0 0 12.463-15.697l0.27757-177.23a16.117 16.134 0 0 0-16.101-16.12zm-96.061 170.73v-17.555h92.105v17.558zm10.095-24.884v-7.7049h71.913v7.7072zm71.913 32.209v7.7071h-71.913v-7.7071zm-125.23 31.412h35.905v1.305a7.2029 7.2107 0 0 0 7.1961 7.2016h17.391v4.6302h-60.492zm78.859 20.464a6.054 6.0605 0 0 1 6.0472 6.0537v6.6914h-109.32v-6.6914a6.054 6.0605 0 0 1 6.0472-6.0537zm56.47-19.284h-92.105v-17.555h92.105zm12.463-17.309a8.7864 8.7958 0 0 1-5.1439 7.9918v-8.363a7.2052 7.2129 0 0 0-7.1961-7.2016h-2.903v-6.3133h15.243zm0-21.22h-5.2646c0.0748-0.41452 0.12063-19.074 0.12063-19.074a7.2052 7.2129 0 0 0-7.1961-7.2039h-2.903v-7.6981h2.9007a7.2052 7.2129 0 0 0 7.1961-7.2038v-17.801a7.2052 7.2129 0 0 0-7.1961-7.2038h-20.665a3.6595 3.6634 0 0 0 0 7.3268h20.544v17.558h-92.105v-17.558h48.794a3.6595 3.6634 0 0 0 0-7.3268h-48.914a7.2052 7.2129 0 0 0-7.196 7.2038v17.801a7.2052 7.2129 0 0 0 7.196 7.2038h2.9007v7.7072h-2.903a7.2052 7.2129 0 0 0-7.1961 7.2015s0.0455 18.66 0.12057 19.074h-123.32v-122.3h235.09zm0-129.63h-234.82v-26.369a8.7932 8.8027 0 0 1 8.7955-8.7913h217.25a8.7955 8.8049 0 0 1 8.7864 8.7958zm-59.291 155.72h-5.6877a3.6583 3.6623 0 1 0 0 7.3245h5.6877a3.6583 3.6623 0 1 0 0-7.3245zm37.282 0h-24.855a3.6583 3.6623 0 0 0 0 7.3245h24.855a3.6583 3.6623 0 1 0 0-7.3245zm-55.407 0h-17.607a3.6583 3.6623 0 0 0 0 7.3245h17.607a3.6583 3.6623 0 0 0 0-7.3245zm12.431-32.591h5.6877a3.6584 3.6623 0 1 0 0-7.3246h-5.6877a3.6584 3.6623 0 0 0 0 7.3246zm18.123 0h24.855a3.6584 3.6623 0 1 0 0-7.3246h-24.855a3.6584 3.6623 0 0 0 0 7.3246zm-48.159 0h17.607a3.6584 3.6623 0 0 0 0-7.3246h-17.607a3.6584 3.6623 0 1 0 0 7.3246zm35.73-47.241h-5.6877a3.6595 3.6634 0 1 0 0 7.3268h5.6877a3.6595 3.6634 0 0 0 0-7.3268zm12.429 7.3268h24.855a3.6595 3.6634 0 1 0 0-7.3268h-24.855a3.6595 3.6634 0 0 0 0 7.3268zm-30.554-7.3268h-17.607a3.6595 3.6634 0 0 0 0 7.3268h17.607a3.6595 3.6634 0 0 0 0-7.3268zm-43.541 18.815h-32.192a3.6583 3.6623 0 1 0 0 7.3245h32.192a3.6583 3.6623 0 1 0 0-7.3245zm-80.536 0h-18.936a3.6583 3.6623 0 1 0 0 7.3245h18.936a3.6583 3.6623 0 1 0 0-7.3245zm35.855 0h-24.648a3.6583 3.6623 0 1 0 0 7.3245h24.646a3.6583 3.6623 0 1 0 0-7.3245zm7.6534-41.023h26.293a3.6595 3.6634 0 0 0 0-7.3268h-26.293a3.6595 3.6634 0 1 0 0 7.3268zm49.221-7.3268h-10.732a3.6595 3.6634 0 0 0 0 7.3268h10.732a3.6595 3.6634 0 0 0 0-7.3268zm42.931 0h-31.223a3.6595 3.6634 0 0 0 0 7.3268h31.223a3.6595 3.6634 0 0 0 0-7.3268zm-65.37-8.789h77.078a3.6595 3.6634 0 0 0 0-7.3268h-77.078a3.6595 3.6634 0 1 0 0 7.3268zm-26.782 0h12.634a3.6595 3.6634 0 1 0 0-7.3268h-12.634a3.6595 3.6634 0 1 0 0 7.3268zm19.921 45.482a3.6583 3.6623 0 0 0 3.6583 3.6646h11.976a3.6595 3.6634 0 1 0 0-7.3268h-11.976a3.6583 3.6623 0 0 0-3.6583 3.6622zm-23.961 0a3.6583 3.6623 0 0 0-3.6583-3.6622h-31.408a3.6595 3.6634 0 0 0 0 7.3268h31.396a3.6583 3.6623 0 0 0 3.6697-3.6646zm9.6305-3.6622a3.6595 3.6634 0 0 0 0 7.3268h6.393a3.6595 3.6634 0 1 0 0-7.3268zm-68.034 7.3268h10.5a3.6595 3.6634 0 0 0 0-7.3268h-10.5a3.6595 3.6634 0 0 0 0 7.3268zm81.421-22.775h-43.336a3.6595 3.6634 0 0 0 0 7.3268h43.336a3.6595 3.6634 0 1 0 0-7.3268zm-81.421 7.3268h24.648a3.6595 3.6634 0 0 0 0-7.3268h-24.648a3.6595 3.6634 0 0 0 0 7.3268zm17.659-21.746a3.6583 3.6623 0 0 0 4.7435-2.0703l9.0116-22.969a3.6583 3.6623 0 1 0-6.8094-2.6784l-9.0139 22.969a3.6606 3.6645 0 0 0 2.0681 4.7487zm25.463-14.893-8.8842 8.8938a3.6591 3.663 0 1 0 5.1758 5.1791l11.473-11.486a3.6583 3.6623 0 0 0 0-5.1792l-11.473-11.486a3.6591 3.663 0 0 0-5.1735 5.1814zm-36.31 14.075a3.6591 3.663 0 0 0 5.1735-5.1814l-8.8842-8.8938 8.8842-8.8824a3.6591 3.663 0 1 0-5.1735-5.1814l-11.471 11.483a3.6583 3.6623 0 0 0 0 5.1814z" stroke-width="2.2763"/>
</g>
</svg>
