<svg width="250mm" height="250.11mm" version="1.1" viewBox="0 0 250 250.11" xmlns="http://www.w3.org/2000/svg">
<g transform="translate(39.179 66.986)">
<path d="m-21.737 178.44c-5.4624-2.1413-9.3133-5.4544-12.149-10.452-2.1935-3.8664-2.2876-7.6814-2.2876-92.696 0-86.382 0.06133-88.773 2.3935-92.905 4.8807-8.6481 13.117-11.975 29.647-11.975h11.243v21.737h110.61v-21.935l12.324 0.3705c14.628 0.43994 20.015 2.4479 25.549 9.5227 3.4893 4.4607 3.6198 5.0682 4.0024 18.621l0.39536 14.01-13.415 15.498v-18.641c0-22.576-1.3254-26.141-9.7168-26.141-2.2164 0-2.3063 1.1403-2.3063 29.254v29.254l-16.944 19.382c-9.3194 10.66-17.979 21.202-19.243 23.425-3.9756 6.993-5.8937 16.009-5.8937 27.704 0 13.051-1.1539 12.39 15.029 8.6175 11.5-2.6807 19.922-6.0365 24.347-9.7014l2.7052-2.2405v18.715c0 18.421-0.0462 18.757-2.9511 21.383l-2.9511 2.6677h-133.68l-2.9511-2.6677-2.9511-2.6677v-163.12h-3.0605c-1.6832 0-4.3884 1.2004-6.0116 2.6677l-2.9511 2.6677v172.78l5.8023 6.0988 76.408 0.30272c83.458 0.33068 83.564 0.32371 86.121-5.7551 0.68995-1.6404 1.1975-16.012 1.2014-34.016l0.01-31.176 13.212-14.962-0.0273 40.629c-0.0228 37.067-0.21995 41.015-2.2335 45.022-2.6935 5.3601-8.3283 9.8175-14.309 11.319-2.872 0.72103-32.425 1.1095-82.622 1.0861-67.092-0.0326-78.744-0.26941-82.35-1.6827zm65.173-55.639c9.7781-8.839 17.778-16.663 17.778-17.386 0-2.2886-8.5907-10.016-11.135-10.016-1.4733 0-7.2758 4.3025-14.655 10.867l-12.216 10.867-4.0768-3.8022c-2.2422-2.0912-4.5101-3.8022-5.0397-3.8022-2.2196 0-10.588 8.0268-10.588 10.156 0 2.6445 17.56 19.189 20.367 19.189 0.98305 0 9.7877-7.2319 19.566-16.071zm0.03185-45.594c9.7618-8.8095 17.749-16.572 17.749-17.251 0-1.2682-10.132-10.205-11.569-10.205-0.44125 0-6.4066 4.9852-13.256 11.078l-12.454 11.078-3.961-3.4703c-2.1785-1.9087-4.7238-3.4703-5.6564-3.4703-2.611 0-10.814 7.7739-10.814 10.248 0 2.9104 16.595 18.01 19.794 18.01 1.513 0 9.0731-6.0039 20.169-16.017zm0.06637-44.656c9.7252-8.8618 17.682-16.546 17.682-17.077 0-1.3553-9.8553-10.285-11.351-10.285-0.67763 0-6.7539 4.9746-13.503 11.055l-12.271 11.055-4.886-3.9902c-2.6873-2.1946-5.1534-3.9902-5.4802-3.9902-1.9392 0-10.22 8.2286-10.22 10.156 0 2.6971 17.587 19.189 20.463 19.189 1.036 0 9.8406-7.2506 19.566-16.112zm57.365 77.79c0.0135-6.7642 2.3875-16.607 5.1792-21.471 2.755-4.8007 70.246-82.912 73.946-85.582 1.0354-0.74718 3.3027-1.3585 5.0385-1.3585 2.0956 0 4.4076-1.278 6.8815-3.8039 4.4585-4.5523 8.29-4.8939 12.772-1.1387 3.9219 3.2856 4.1402 7.6839 0.55283 11.136-1.9602 1.8862-2.5698 3.7-2.3975 7.1345 0.22492 4.4901-0.61412 5.571-33.531 43.188-18.569 21.221-35.75 40.457-38.18 42.748-5.6628 5.3374-12.945 9.2098-20.934 11.132-8.8855 2.1382-9.3357 2.0425-9.3278-1.9834zm-83.987-134.49c0.41805-8.3225 0.61892-8.8493 4.8215-12.648 3.6056-3.2592 5.4744-4.0586 10.512-4.4962 5.3103-0.46122 6.1267-0.84729 6.1267-2.8975 0-1.301 1.4049-4.9139 3.122-8.0288 10.24-18.576 41.096-14.231 44.902 6.3234 0.66822 3.6085 0.99599 3.8343 6.3812 4.3956 10.778 1.1234 16.531 7.8142 16.531 19.226v6.8097h-92.834z" fill="none" stroke="#000" stroke-width="6.0109"/>
</g>
</svg>
