<svg width="250mm" height="250.03mm" version="1.1" viewBox="0 0 250 250.03" xmlns="http://www.w3.org/2000/svg">
<g transform="translate(15.923 64.161)">
<path d="m93.52 181.91c-48.861-6.3343-89.898-42.239-102.44-89.625-8.8181-33.324-3.0151-69.607 15.73-98.351 6.8268-10.468 24.893-28.516 35.372-35.335 48.022-31.252 110.88-25.016 152.17 15.099 49.028 47.624 49.028 126.55 0 174.18-26.981 26.209-64.23 38.781-100.84 34.035zm39.163-26.104c26.988-6.4063 51.255-25.947 64.005-51.538 7.3712-14.796 10.15-26.7 10.15-43.481 0-37.657-20.49-70.729-54.206-87.492-14.811-7.3637-26.727-10.14-43.526-10.14-16.799 0-28.715 2.7759-43.526 10.14-33.716 16.763-54.206 49.834-54.206 87.492 0 16.782 2.7789 28.686 10.15 43.481 14.655 29.416 42.385 49.165 75.582 53.827 9.1085 1.2792 24.797 0.26994 35.577-2.2891zm-4.6827-64.31c-23.127-13.891-27.912-17.194-29.527-20.382-1.7347-3.423-1.8984-6.9373-1.6322-35.028 0.29195-30.647 0.34137-31.268 2.7198-33.644 3.5723-3.5662 9.6159-3.2976 12.951 0.57558 2.5744 2.99 2.579 3.0494 2.579 32.05v29.055l24.231 14.331c13.327 7.8821 24.834 14.934 25.571 15.67 0.73746 0.73681 1.3407 3.1792 1.3407 5.4279 0 4.8744-3.2946 8.5212-7.6986 8.5212-1.8536 0-13.105-6.1085-30.535-16.577z" fill="none" stroke="#000" stroke-width="5.9336"/>
</g>
</svg>
