<svg width="250mm" height="250mm" version="1.1" viewBox="0 0 250 250" xmlns="http://www.w3.org/2000/svg">
<g transform="translate(4.4081 107.46)">
<path d="m165.41-29.772c1.1883-0.8742 6.97 0.64162 12.848 3.368 7.4284 3.4455 13.578 4.4473 20.167 3.2856 19.326-3.4074 31.45 11.998 16.259 20.66-10.583 6.0342-22.65 3.301-25.702-5.821-1.7494-5.2289-5.5435-8.5773-13.532-11.942-11.565-4.8709-13.674-6.8777-10.04-9.5505zm-67.962 158.41c0-9.5739-1.8957-12.771-15.517-26.166-18.687-18.377-20.008-21.43-20.008-46.228 0-16.222 1.0053-20.194 6.1614-24.329 4.9179-3.945 8.5025-4.7144 17.763-3.8127l11.602 1.1297v-77.738l8.3615-4.7747c9.7807-5.585 21.144-4.6019 29.481 2.5506 4.5501 3.9037 5.406 9.303 5.406 34.104v29.466l12.357 0.39073c6.7962 0.21443 14.094 0.4509 16.218 0.52552 2.1238 0.07623 9.6724-0.45347 16.775-1.172 10.854-1.0983 13.551-0.5645 16.915 3.3447 3.2777 3.8101 6.0492 4.4137 15.322 3.3374 9.0938-1.0557 12.676-0.32972 18.217 3.6924 6.6582 4.8334 6.8396 6.1013 5.2522 36.689-1.0753 20.71-3.4916 35.954-6.9787 44.017-2.934 6.7838-5.9721 17.684-6.7516 24.223-0.90838 7.6211-2.6974 11.584-4.9834 11.04-6.3547-1.5125-5.5769-13.723 2.271-35.65 4.3436-12.136 8.6099-32.112 9.8177-45.969 1.8656-21.401 1.4703-24.989-3.1187-28.321-7.0558-5.1221-16.212-4.8191-20.26 0.67043-5.0881 6.9017-12.357 5.6291-12.357-2.1637 0-8.7075-8.7403-12.432-18.057-7.6941-3.6608 1.8614-6.6561 5.3455-6.6561 7.7424 0 2.3969-2.0851 4.3579-4.6337 4.3579-2.8656 0-4.6338-2.1092-4.6338-5.5275 0-3.0401-2.4327-6.4529-5.4061-7.584-7.7542-2.9497-19.307 0.82726-19.307 6.3116 0 2.556-2.0349 4.5574-4.6338 4.5574-3.9309 0-4.6337-5.5886-4.6337-36.842 0-30.503-0.8348-37.449-4.8545-40.366-6.7118-4.8724-12.477-4.4083-18.139 1.4601-3.9951 4.1406-4.8088 13.249-4.8088 53.822 0 31.063-1.1244 48.838-3.0893 48.838-1.699 0-3.0891-3.0938-3.0891-6.8751 0-3.7813-1.439-8.8272-3.1979-11.213-4.0676-5.5174-17.234-5.6599-21.237-0.22968-4.2756 5.7996-5.6822 42.765-1.7027 44.749 1.7651 0.88039 9.7584 7.7186 17.763 15.196 13.759 12.853 14.554 14.352 14.554 27.472 0 7.7559-1.3625 13.876-3.0893 13.876-1.699 0-3.0891-4.9078-3.0891-10.906zm-62.426-104.03c-13.494-7.7003-5.8006-22.481 11.641-22.366 5.9558 0.042364 12.444-2.2661 18.854-6.6995 13.922-9.6293 20.101-5.8132 6.763 4.1767-6.738 5.0466-10.427 10.105-10.748 14.738-0.75774 10.933-15.349 16.52-26.51 10.15zm16.217-7.401c3.2831-2.8718 3.0803-4.1255-1.1664-7.2082-4.7948-3.4808-5.4866-3.4808-10.281 0-4.2466 3.0828-4.4495 4.3365-1.1664 7.2082 2.1858 1.9121 5.024 3.4765 6.307 3.4765 1.283 0 4.1212-1.5644 6.3071-3.4765zm-45.694-45.93c-5.3505-1.5613-6.9508-3.8337-6.9508-9.8706 0-12.113 18.077-17.041 29.347-8.0001 3.9571 3.1742 9.5146 4.4851 19.014 4.4851 9.8718 0 13.423 0.88997 13.423 3.3639 0 2.4421-3.4641 3.3638-12.642 3.3638-7.9641 0-15.548 1.6596-20.496 4.4852-8.6131 4.9183-11.347 5.1922-21.695 2.1727zm16.218-9.991c0-5.1311-10.371-7.5415-14.018-3.2579-3.8208 4.488 0.30824 9.1324 7.4602 8.3916 4.1689-0.43228 6.5575-2.3017 6.5575-5.1337zm43.249-34.791c-6.3423-4.8058-11.782-6.7277-19.042-6.7277-7.277 0-11.522-1.5061-14.95-5.3038-9.1585-10.147 3.9875-21.954 20.268-18.203 6.8437 1.5768 12.969 10.433 10.477 15.148-0.84065 1.5913 3.3143 6.3011 9.2341 10.466 5.9198 4.1653 10.04 8.4225 9.1566 9.4605-2.7091 3.1821-5.9027 2.1613-15.143-4.8405zm-13.773-14.689c3.2831-2.8718 3.0803-4.1256-1.1664-7.2083-4.7948-3.4808-5.4866-3.4808-10.281 0-4.2466 3.0828-4.4495 4.3365-1.1664 7.2083 2.1858 1.912 5.024 3.4764 6.307 3.4764 1.283 0 4.1212-1.5644 6.3071-3.4764zm106.74 19.518c-0.88967-1.0447 2.5039-4.7655 7.5406-8.2685 6.3653-4.4271 9.1577-8.5286 9.1577-13.451 0-14.437 23.484-19.354 31.493-6.5939 5.5796 8.8897-0.92708 16.757-13.858 16.757-7.4124 0-12.79 1.8863-19.179 6.7277-9.2497 7.0087-12.434 8.0232-15.154 4.8283zm40.803-23.615c-0.5943-3.0264-3.1706-4.7604-7.0716-4.7604-7.0683 0-10.389 7.5286-4.4879 10.176 6.1821 2.7736 12.58-0.22376 11.56-5.4157z" fill="none" stroke="#000" stroke-width="6.0008"/>
</g>
</svg>
