<svg width="248.96mm" height="248.91mm" version="1.1" viewBox="0 0 248.96 248.91" xmlns="http://www.w3.org/2000/svg">
<g transform="translate(27.497 7.2641)">
<g transform="matrix(.085293 0 0 .15717 -907.44 259.72)" fill="none">
<g transform="matrix(3.5913 0 0 3.5929 11444 -1692.1)" stroke="#000" stroke-linecap="round">
<path d="m-14.411 1.3397h213.96c11.853 0 21.396 9.0781 21.396 20.355v20.354c0 11.276-9.5425 20.354-21.396 20.354h-213.96c-11.853 0-21.396-9.0781-21.396-20.354v-20.354c0-11.276 9.5425-20.355 21.396-20.355z" stroke-width="6.35" style="paint-order:fill markers stroke"/>
<path transform="scale(.26458)" d="m-34.941 235.86c-11.941 9.5795-19.51 23.921-19.51 40.012v52.303c0 20.039 11.731 37.37 29.039 46.158h747.31c17.308-8.7883 29.039-26.119 29.039-46.158v-52.303c0-16.091-7.5686-30.432-19.51-40.012z" stroke-width="24" style="paint-order:fill markers stroke"/>
<path d="m-14.411 99.041h213.96c11.853 0 21.396 9.0781 21.396 20.355v20.354c0 11.276-9.5425 20.354-21.396 20.354h-213.96c-11.853 0-21.396-9.0781-21.396-20.354v-20.354c0-11.276 9.5425-20.355 21.396-20.355z" stroke-width="6.35" style="paint-order:fill markers stroke"/>
<path d="m-14.411 196.74h213.96c11.853 0 21.396 9.0781 21.396 20.354v20.355c0 11.276-9.5425 20.354-21.396 20.354h-213.96c-11.853 0-21.396-9.0781-21.396-20.354v-20.355c0-11.276 9.5425-20.354 21.396-20.354z" stroke-width="6.35" style="paint-order:fill markers stroke"/>
<path transform="scale(.26458)" d="m-34.938 605.12c-11.943 9.5796-19.514 23.922-19.514 40.014v52.303c0 20.039 11.731 37.37 29.039 46.158h747.31c17.308-8.7883 29.039-26.119 29.039-46.158v-52.303c0-16.092-7.5693-30.434-19.512-40.014z" stroke-width="24" style="paint-order:fill markers stroke"/>
<g stroke-width="6.35">
<path d="m7.4133 21.694h42.791c5.9266 0 10.698 4.5391 10.698 10.177 0 5.6382-4.7712 10.177-10.698 10.177h-42.791c-5.9266 0-10.698-4.539-10.698-10.177 0-5.6382 4.7712-10.177 10.698-10.177z" style="paint-order:fill markers stroke"/>
<path d="m87.862 20.732h10.969c6.4868 0 11.709 4.9681 11.709 11.139 0 6.1711-5.2222 11.139-11.709 11.139h-10.969c-6.4868 0-11.709-4.9681-11.709-11.139 0-6.1711 5.2222-11.139 11.709-11.139z" style="paint-order:fill markers stroke"/>
<path d="m144.35 21.694h42.791c5.9266 0 10.698 4.5391 10.698 10.177 0 5.6382-4.7712 10.177-10.698 10.177h-42.791c-5.9266 0-10.698-4.539-10.698-10.177 0-5.6382 4.7712-10.177 10.698-10.177z" style="paint-order:fill markers stroke"/>
<path d="m7.4133 119.4h42.791c5.9266 0 10.698 4.539 10.698 10.177 0 5.6382-4.7712 10.177-10.698 10.177h-42.791c-5.9266 0-10.698-4.539-10.698-10.177 0-5.6382 4.7712-10.177 10.698-10.177z" style="paint-order:fill markers stroke"/>
<path d="m87.862 118.43h10.969c6.4868 0 11.709 4.9681 11.709 11.139 0 6.1711-5.2222 11.139-11.709 11.139h-10.969c-6.4868 0-11.709-4.9681-11.709-11.139 0-6.1711 5.2222-11.139 11.709-11.139z" style="paint-order:fill markers stroke"/>
<path d="m144.35 119.4h42.791c5.9266 0 10.698 4.539 10.698 10.177 0 5.6382-4.7712 10.177-10.698 10.177h-42.791c-5.9266 0-10.698-4.539-10.698-10.177 0-5.6382 4.7712-10.177 10.698-10.177z" style="paint-order:fill markers stroke"/>
<path d="m7.4133 217.1h42.791c5.9266 0 10.698 4.5391 10.698 10.177 0 5.6382-4.7712 10.177-10.698 10.177h-42.791c-5.9266 0-10.698-4.5391-10.698-10.177 0-5.6382 4.7712-10.177 10.698-10.177z" style="paint-order:fill markers stroke"/>
<path d="m87.862 216.14h10.969c6.4868 0 11.709 4.9681 11.709 11.139 0 6.1711-5.2222 11.139-11.709 11.139h-10.969c-6.4868 0-11.709-4.9681-11.709-11.139 0-6.1711 5.2222-11.139 11.709-11.139z" style="paint-order:fill markers stroke"/>
<path d="m144.35 217.1h42.791c5.9266 0 10.698 4.5391 10.698 10.177 0 5.6382-4.7712 10.177-10.698 10.177h-42.791c-5.9266 0-10.698-4.5391-10.698-10.177 0-5.6382 4.7712-10.177 10.698-10.177z" style="paint-order:fill markers stroke"/>
</g>
</g>
<g stroke="#000" stroke-linecap="round" stroke-width="22.81">
<g transform="translate(4009.6 1504.2)">
<path d="m8369.3-1850h768.38c42.568 0 76.838 32.617 76.838 73.132v73.132c0 40.515-34.27 73.132-76.838 73.132h-768.38c-42.568 0-76.838-32.617-76.838-73.132v-73.132c0-40.515 34.27-73.132 76.838-73.132z" style="paint-order:fill markers stroke"/>
<path d="m8447.7-1776.9h153.68c21.284 0 38.419 16.308 38.419 36.566s-17.135 36.566-38.419 36.566h-153.68c-21.284 0-38.419-16.308-38.419-36.566s17.135-36.566 38.419-36.566z" style="paint-order:fill markers stroke"/>
<path d="m8736.6-1780.3h39.393c23.296 0 42.05 17.85 42.05 40.022 0 22.172-18.754 40.022-42.05 40.022h-39.393c-23.296 0-42.05-17.85-42.05-40.022 0-22.172 18.754-40.022 42.05-40.022z" style="paint-order:fill markers stroke"/>
<path d="m8939.4-1776.9h153.68c21.284 0 38.419 16.308 38.419 36.566s-17.135 36.566-38.419 36.566h-153.68c-21.284 0-38.419-16.308-38.419-36.566s17.135-36.566 38.419-36.566z" style="paint-order:fill markers stroke"/>
</g>
<g transform="translate(3015.6 1504.2)">
<path d="m8369.3-1850h768.38c42.568 0 76.838 32.617 76.838 73.132v73.132c0 40.515-34.27 73.132-76.838 73.132h-768.38c-42.568 0-76.838-32.617-76.838-73.132v-73.132c0-40.515 34.27-73.132 76.838-73.132z" style="paint-order:fill markers stroke"/>
<path d="m8447.7-1776.9h153.68c21.284 0 38.419 16.308 38.419 36.566s-17.135 36.566-38.419 36.566h-153.68c-21.284 0-38.419-16.308-38.419-36.566s17.135-36.566 38.419-36.566z" style="paint-order:fill markers stroke"/>
<path d="m8736.6-1780.3h39.393c23.296 0 42.05 17.85 42.05 40.022 0 22.172-18.754 40.022-42.05 40.022h-39.393c-23.296 0-42.05-17.85-42.05-40.022 0-22.172 18.754-40.022 42.05-40.022z" style="paint-order:fill markers stroke"/>
<path d="m8939.4-1776.9h153.68c21.284 0 38.419 16.308 38.419 36.566s-17.135 36.566-38.419 36.566h-153.68c-21.284 0-38.419-16.308-38.419-36.566s17.135-36.566 38.419-36.566z" style="paint-order:fill markers stroke"/>
</g>
<g transform="translate(2035.6 1504.2)">
<path d="m8369.3-1850h768.38c42.568 0 76.838 32.617 76.838 73.132v73.132c0 40.515-34.27 73.132-76.838 73.132h-768.38c-42.568 0-76.838-32.617-76.838-73.132v-73.132c0-40.515 34.27-73.132 76.838-73.132z" style="paint-order:fill markers stroke"/>
<path d="m8447.7-1776.9h153.68c21.284 0 38.419 16.308 38.419 36.566s-17.135 36.566-38.419 36.566h-153.68c-21.284 0-38.419-16.308-38.419-36.566s17.135-36.566 38.419-36.566z" style="paint-order:fill markers stroke"/>
<path d="m8736.6-1780.3h39.393c23.296 0 42.05 17.85 42.05 40.022 0 22.172-18.754 40.022-42.05 40.022h-39.393c-23.296 0-42.05-17.85-42.05-40.022 0-22.172 18.754-40.022 42.05-40.022z" style="paint-order:fill markers stroke"/>
<path d="m8939.4-1776.9h153.68c21.284 0 38.419 16.308 38.419 36.566s-17.135 36.566-38.419 36.566h-153.68c-21.284 0-38.419-16.308-38.419-36.566s17.135-36.566 38.419-36.566z" style="paint-order:fill markers stroke"/>
</g>
</g>
<path d="m10841-532.82c-27.605 0-49.83 22.225-49.83 49.83v137.21h1975.6v-137.21c0-27.605-22.223-49.83-49.828-49.83z" stroke="#040404" stroke-linecap="round" stroke-width="17.374" style="paint-order:fill markers stroke"/>
<path d="m11772-344.91v-417.25" stroke="#000" stroke-width="22.81"/>
<path d="m11192-127.35 1973.3 0.99609" stroke="#000" stroke-width="22.81"/>
</g>
</g>
</svg>
