<svg width="250mm" height="250mm" version="1.1" viewBox="0 0 250 250" xmlns="http://www.w3.org/2000/svg">
<g transform="translate(5.8746 107.03)">
<path d="m27.623 108.24h26.63c3.3756 0 6.0931 2.7205 6.0931 6.0997 0 3.3793-2.7175 6.0997-6.0931 6.0997h-26.63c-3.3756 0-6.0931-2.7205-6.0931-6.0997 0-3.3792 2.7175-6.0997 6.0931-6.0997zm0-24.399h26.63c3.3756 0 6.0931 2.7205 6.0931 6.0997 0 3.3792-2.7175 6.0997-6.0931 6.0997h-26.63c-3.3756 0-6.0931-2.7205-6.0931-6.0997 0-3.3793 2.7175-6.0997 6.0931-6.0997zm0-24.399h26.63c3.3756 0 6.0931 2.7205 6.0931 6.0997 0 3.3793-2.7175 6.0997-6.0931 6.0997h-26.63c-3.3756 0-6.0931-2.7205-6.0931-6.0997 0-3.3792 2.7175-6.0997 6.0931-6.0997zm0-24.399h26.63c3.3756 0 6.0931 2.7205 6.0931 6.0997 0 3.3792-2.7175 6.0997-6.0931 6.0997h-26.63c-3.3756 0-6.0931-2.7205-6.0931-6.0997 0-3.3793 2.7175-6.0997 6.0931-6.0997zm0-24.399h26.63c3.3756 0 6.0931 2.7205 6.0931 6.0997 0 3.3793-2.7175 6.0997-6.0931 6.0997h-26.63c-3.3756 0-6.0931-2.7205-6.0931-6.0997 0-3.3792 2.7175-6.0997 6.0931-6.0997zm0-24.399h26.63c3.3756 0 6.0931 2.7205 6.0931 6.0997 0 3.3792-2.7175 6.0997-6.0931 6.0997h-26.63c-3.3756 0-6.0931-2.7205-6.0931-6.0997 0-3.3793 2.7175-6.0997 6.0931-6.0997zm0-24.399h26.63c3.3756 0 6.0931 2.7205 6.0931 6.0997 0 3.3793-2.7175 6.0997-6.0931 6.0997h-26.63c-3.3756 0-6.0931-2.7205-6.0931-6.0997 0-3.3792 2.7175-6.0997 6.0931-6.0997zm80.96 131.75h98.718c3.3756 0 6.093 2.7205 6.093 6.0997 0 3.3792-2.7175 6.0997-6.093 6.0997h-98.718c-3.3756 0-6.093-2.7205-6.093-6.0997 0-3.3793 2.7175-6.0997 6.093-6.0997zm0-26.839h98.718c3.3756 0 6.093 2.7205 6.093 6.0997 0 3.3792-2.7175 6.0997-6.093 6.0997h-98.718c-3.3756 0-6.093-2.7205-6.093-6.0997 0-3.3793 2.7175-6.0997 6.093-6.0997zm49.907-24.399h48.811c3.3756 0 6.0931 2.7205 6.0931 6.0997 0 3.3793-2.7175 6.0997-6.0931 6.0997h-48.811c-3.3756 0-6.093-2.7205-6.093-6.0997 0-3.3792 2.7175-6.0997 6.093-6.0997zm0-24.399h48.811c3.3756 0 6.0931 2.7205 6.0931 6.0997 0 3.3792-2.7175 6.0997-6.0931 6.0997h-48.811c-3.3756 0-6.093-2.7205-6.093-6.0997 0-3.3793 2.7175-6.0997 6.093-6.0997zm0-24.399h48.811c3.3756 0 6.0931 2.7205 6.0931 6.0997 0 3.3792-2.7175 6.0997-6.0931 6.0997h-48.811c-3.3756 0-6.093-2.7205-6.093-6.0997 0-3.3792 2.7175-6.0997 6.093-6.0997zm-55.452 0h32.176c3.3756 0 6.0931 2.7205 6.0931 6.0997v36.598c0 3.3793-2.7175 6.0997-6.0931 6.0997h-32.176c-3.3755 0-6.0931-2.7205-6.0931-6.0997v-36.598c0-3.3792 2.7175-6.0997 6.0931-6.0997zm0-30.499h104.26c3.3756 0 6.093 2.7205 6.093 6.0997 0 3.3792-2.7175 6.0997-6.093 6.0997h-104.26c-3.3755 0-6.0931-2.7205-6.0931-6.0997 0-3.3793 2.7175-6.0997 6.0931-6.0997zm-4.0946-12.199h112.45c7.2512 0 13.089 5.844 13.089 13.103v150.69c0 7.2591-5.8376 13.103-13.089 13.103h-112.45c-7.2512 0-13.089-5.844-13.089-13.103v-150.69c0-7.2591 5.8376-13.103 13.089-13.103zm-72.555 0h30.209c6.9922 0 12.621 5.6353 12.621 12.635v151.62c0 6.9999-5.6291 12.635-12.621 12.635h-30.209c-6.9922 0-12.621-5.6353-12.621-12.635v-151.62c0-6.9999 5.6291-12.635 12.621-12.635zm5.11-36.598h180.8c6.7511 0 12.186 5.441 12.186 12.199 0 6.7585-5.435 12.199-12.186 12.199h-180.8c-6.7511 0-12.186-5.441-12.186-12.199 0-6.7585 5.435-12.199 12.186-12.199zm-9.9947-18.299h195.24c13.502 0 24.372 10.882 24.372 24.399v195.19c0 13.517-10.87 24.399-24.372 24.399h-195.24c-13.502 0-24.372-10.882-24.372-24.399v-195.19c0-13.517 10.87-24.399 24.372-24.399z" fill="none" stroke="#000" stroke-linecap="round" stroke-width="6.0111" style="paint-order:fill markers stroke"/>
</g>
</svg>
