<svg width="250mm" height="250mm" version="1.1" viewBox="0 0 250 250" xmlns="http://www.w3.org/2000/svg">
<g transform="translate(-59.397 81.536)">
<path d="m124.05 164.2c-0.89225-0.82682-1.4047-5.0022-1.4047-11.445v-10.144l-4.2713-1.6537-4.2712-1.6538-7.7568 7.133c-4.2663 3.9231-8.5442 7.1329-9.5065 7.1329-0.96229 0-6.6663-4.5751-12.676-10.167-12.563-11.69-12.483-10.624-1.5443-20.586l6.9684-6.3461-1.7779-4.194-1.7779-4.1942-23.673-0.61507v-30.373l23.673-0.61507 1.7779-4.1941 1.7779-4.1941-6.9684-6.3461c-10.939-9.9619-11.019-8.896 1.5443-20.586 6.0093-5.5919 11.713-10.167 12.676-10.167 0.9623 0 5.2402 3.2098 9.5065 7.1329l7.7568 7.133 4.2712-1.6538 4.2713-1.6537v-10.144c0-6.4432 0.51247-10.619 1.4047-11.446 1.9463-1.8035 30.362-1.8035 32.309 0 0.89227 0.82692 1.4047 5.0023 1.4047 11.446v10.144l4.2713 1.6537 4.2712 1.6538 7.7568-7.133c4.2663-3.9231 8.5442-7.1329 9.5065-7.1329 0.96232 0 6.6663 4.5751 12.676 10.167 12.563 11.69 12.483 10.624 1.5443 20.586l-6.9684 6.3461 1.7779 4.1941 1.7779 4.1941 23.673 0.61507v30.373l-23.673 0.61507-1.7779 4.1942-1.7779 4.194 6.9684 6.3461c10.939 9.9618 11.019 8.896-1.5443 20.586-6.0093 5.5919-11.713 10.167-12.676 10.167-0.96227 0-5.2402-3.2098-9.5065-7.1329l-7.7568-7.133-4.2712 1.6538-4.2713 1.6537v10.144c0 6.4432-0.51244 10.619-1.4047 11.445-0.94396 0.87475-6.2432 1.3017-16.154 1.3017s-15.21-0.42695-16.154-1.3017zm25.519-17.026c0.43581-7.5916 1.0333-10.393 2.3412-10.979 7.102-3.181 13.245-5.4062 14.925-5.4062 1.0921 0 5.2909 3.0356 9.3304 6.7456l7.3447 6.7456 12.894-11.8-15.611-14.578 3.1767-6.845c1.7472-3.7648 3.6011-7.5772 4.1199-8.4722 0.71027-1.2254 3.5866-1.7043 11.647-1.9391l10.704-0.31198v-16.19h-10.392c-6.9486 0-10.755-0.44932-11.489-1.356-0.60304-0.74579-2.588-4.6892-4.411-8.7629l-3.3146-7.4069 7.7848-7.2697 7.7848-7.2697-6.4468-5.8997-6.4468-5.8999-7.3447 6.7456c-4.0395 3.7101-8.2383 6.7456-9.3304 6.7456-1.6801 0-7.8231-2.2251-14.925-5.4062-1.3078-0.58578-1.9052-3.387-2.3412-10.978l-0.58528-10.192h-17.559l-0.58533 10.192c-0.43581 7.5915-1.0333 10.393-2.3412 10.978-7.102 3.1811-13.245 5.4062-14.925 5.4062-1.0921 0-5.2908-3.0355-9.3304-6.7456l-7.3447-6.7456-6.4468 5.8999-6.4468 5.8997 15.611 14.578-3.1767 6.845c-1.7472 3.7647-3.6012 7.5772-4.1199 8.4721-0.71027 1.2253-3.5866 1.7042-11.647 1.939l-10.704 0.31198v16.109l10.704 0.31198c8.0607 0.23497 10.937 0.71381 11.647 1.939 0.51871 0.89494 2.3727 4.7075 4.1199 8.4722l3.1767 6.845-15.611 14.578 6.4468 5.8998 6.4468 5.8999 7.3447-6.7456c4.0396-3.7101 8.2382-6.7456 9.3304-6.7456 1.6806 0 7.8681 2.2418 14.925 5.4073 1.313 0.58892 1.8352 3.0849 2.0703 9.8938 0.173 5.0085 0.56044 9.738 0.861 10.51 0.39511 1.015 2.9016 1.3155 9.0504 1.0848l8.5038-0.31893zm-21.92-24.688c-7.0833-2.3242-15.864-10.064-19.156-16.886-4.0154-8.3211-3.8417-19.909 0.4132-27.556 6.148-11.049 17.979-17.765 31.298-17.765 9.1347 0 16.534 2.6112 23.246 8.2036 10.986 9.1535 14.497 24.562 8.4562 37.117-3.3875 7.0408-12.119 14.583-19.627 16.953-6.7395 2.128-18.035 2.0972-24.631-0.0673zm24.344-8.7822c16.287-7.6446 19.519-26.65 6.5708-38.632-16.625-15.383-44.717-4.5333-44.551 17.207 0.14291 18.753 19.913 29.904 37.98 21.424zm99.653-14.59c-0.77257-0.71595-1.4047-3.248-1.4047-5.6268v-4.3251l-3.2832 2.9148c-1.8057 1.6033-4.3561 2.9149-5.6675 2.9149-2.3933 0-16.803-12.872-16.803-15.01 0-0.6025 1.3637-2.5973 3.0306-4.4329l3.0306-3.3376h-3.1076c-6.8222 0-7.636-1.3104-7.636-12.296 0-11.245 0.75424-12.654 6.7765-12.654h3.9671l-3.0306-3.3376c-1.6668-1.8356-3.0306-3.8304-3.0306-4.4329 0-2.138 14.409-15.01 16.803-15.01 1.3114 0 3.8618 1.3116 5.6675 2.9149l3.2832 2.9148v-4.3251c0-2.3788 0.63214-4.9109 1.4047-5.6268 1.8972-1.758 21.047-1.758 22.944 0 0.77258 0.71595 1.4047 3.248 1.4047 5.6268v4.3251l3.2832-2.9148c1.8057-1.6033 4.3561-2.9149 5.6675-2.9149 2.3933 0 16.803 12.872 16.803 15.01 0 0.60251-1.3638 2.5973-3.0306 4.4329l-3.0306 3.3376h3.9671c6.0223 0 6.7765 1.4083 6.7765 12.654 0 10.986-0.81381 12.296-7.636 12.296h-3.1076l3.0306 3.3376c1.6668 1.8356 3.0306 3.8304 3.0306 4.4329 0 2.138-14.409 15.01-16.803 15.01-1.3114 0-3.8617-1.3116-5.6675-2.9149l-3.2832-2.9148v4.3251c0 2.3788-0.63216 4.9109-1.4047 5.6268-1.8972 1.758-21.047 1.758-22.944 0zm16.154-12.196c0-4.872 0.45498-6.2 2.6017-7.5933 3.752-2.4353 5.0331-2.1514 10.34 2.2914l4.754 3.98 2.9327-2.7178 2.9328-2.7178-4.1716-3.8657c-4.5697-4.2346-5.1244-6.6785-2.3494-10.35 1.4652-1.9385 2.9562-2.4109 7.609-2.4109h5.7866v-7.5935h-5.4682c-10.164 0-12.672-5.6742-5.6786-12.848l4.0711-4.1758-2.8637-2.493-2.8637-2.493-4.7226 3.9538c-5.2748 4.416-6.5596 4.6984-10.308 2.265-2.1467-1.3933-2.6017-2.7212-2.6017-7.5933v-5.9048h-9.3648v5.9048c0 4.872-0.45502 6.2-2.6017 7.5933-3.7488 2.4334-5.0336 2.151-10.308-2.265l-4.7226-3.9538-5.679 4.944 4.0469 4.5766c4.5288 5.1216 4.8548 6.5982 2.2247 10.078-1.4652 1.9385-2.9562 2.4109-7.609 2.4109h-5.7866v7.5935h5.4682c10.222 0 12.853 6.0192 5.578 12.761l-4.1716 3.8657 2.9328 2.7178 2.9328 2.7178 4.754-3.98c5.3068-4.4428 6.5878-4.7267 10.34-2.2914 2.1467 1.3933 2.6017 2.7212 2.6017 7.5933v5.9048h9.3648zm-14.167-13.914c-10.454-6.4714-10.454-20.062 0-26.534 7.4518-4.6131 19.219-2.4912 24.046 4.3361 0.99672 1.4097 2.1075 4.728 2.4683 7.3739 1.2823 9.4025-6.4844 17.286-17.03 17.286-3.7765 0-6.7566-0.77367-9.4844-2.4623zm14.083-6.1743c1.1571-0.57386 2.7442-2.4763 3.5271-4.2277 4.1523-9.2894-10.815-15.477-15.806-6.5344-4.091 7.3311 4.3244 14.707 12.279 10.762zm-152.76-53.54c-0.32918-0.79479-0.44576-6.0458-0.25927-11.669l0.33934-10.224 16.887-0.63558 0.5561-3.4788c0.30571-1.9133 1.138-7.1158 1.8494-11.561 4.1612-26.005 17.619-44.374 35.946-49.063 2.434-0.62289 5.1223-2.0542 5.9739-3.1809 1.3816-1.8278 3.1726-2.0484 16.633-2.0484 13.461 0 15.252 0.22052 16.633 2.0484 0.8516 1.1267 3.5398 2.558 5.9739 3.1809 11.83 3.0268 20.877 10.973 27.843 24.455 4.6679 9.0346 9.1662 24.943 9.2434 32.69 0.0222 2.3865 0.44483 4.9245 0.93561 5.64 0.5143 0.74969 4.3507 1.4392 9.0543 1.6272l8.1619 0.3263v22.78l-77.586 0.2789c-63.751 0.22911-77.693 0.02057-78.185-1.1662zm148.16-10.503v-4.339h-95.99v-7.5935h77.26v-4.2436c0-6.4184-2.9396-19.281-6.2839-27.497-5.3177-13.064-12.563-20.719-22.769-24.056l-4.8947-1.6002v36.786h-8.1426l-0.31856-20.34-0.31852-20.339h-17.559l-0.31857 20.339-0.31854 20.34h-8.1426v-36.75l-5.5192 1.7427c-14.485 4.5736-26.218 24.496-28.122 47.754l-0.6441 7.8646h16.726v7.5935h-35.118v8.6781h140.47z" fill="none" stroke="#000" stroke-width="5.9274"/>
</g>
</svg>
