<svg xmlns="http://www.w3.org/2000/svg" width="109.887" height="109.887" viewBox="0 0 109.887 109.887"><g transform="translate(0)"><path d="M103.984,20.282h4.292a1.61,1.61,0,0,0,1.61-1.61V1.61A1.61,1.61,0,0,0,108.277,0H23.215a1.61,1.61,0,0,0,0,3.219H24.9V8.048a1.61,1.61,0,0,0,1.61,1.61H83.381a1.61,1.61,0,0,0,1.61-1.61V3.219h21.677V17.062h-2.683a5.9,5.9,0,0,0,0,11.8h2.683V81.02h-2.683a5.9,5.9,0,0,0,0,11.8h2.683v13.843H84.99v-4.829a1.61,1.61,0,0,0-1.61-1.61H75.654a1.61,1.61,0,1,0,0,3.219h6.117v3.219H28.116v-3.219H68.679a1.61,1.61,0,0,0,0-3.219H26.506a1.61,1.61,0,0,0-1.61,1.61v4.829H3.219V92.824H5.9a5.9,5.9,0,0,0,0-11.8H3.219V28.867H5.9a5.9,5.9,0,0,0,0-11.8H3.219V3.219H16.311a1.61,1.61,0,0,0,0-3.219H1.61A1.61,1.61,0,0,0,0,1.61V18.672a1.61,1.61,0,0,0,1.61,1.61H5.9a2.683,2.683,0,0,1,0,5.366H1.61A1.61,1.61,0,0,0,0,27.257V82.63a1.61,1.61,0,0,0,1.61,1.61H5.9a2.683,2.683,0,0,1,0,5.366H1.61A1.61,1.61,0,0,0,0,91.215v17.063a1.61,1.61,0,0,0,1.61,1.61H108.277a1.61,1.61,0,0,0,1.61-1.61V91.215a1.61,1.61,0,0,0-1.61-1.61h-4.292a2.683,2.683,0,1,1,0-5.366h4.292a1.61,1.61,0,0,0,1.61-1.61V27.257a1.61,1.61,0,0,0-1.61-1.61h-4.292a2.683,2.683,0,1,1,0-5.366ZM81.771,6.439H28.116V3.219H81.771Z" transform="translate(0)" fill="#777"/></g><g transform="translate(5.58 5.044)"><path d="M30.829,23.5a4.829,4.829,0,1,0,4.829,4.829A4.834,4.834,0,0,0,30.829,23.5Zm0,6.439a1.61,1.61,0,1,1,1.61-1.61A1.611,1.611,0,0,1,30.829,29.939Z" transform="translate(-26 -23.5)" fill="#777"/></g><g transform="translate(94.648 5.044)"><path d="M445.829,23.5a4.829,4.829,0,1,0,4.829,4.829A4.834,4.834,0,0,0,445.829,23.5Zm0,6.439a1.61,1.61,0,1,1,1.61-1.61A1.611,1.611,0,0,1,445.829,29.939Z" transform="translate(-441 -23.5)" fill="#777"/></g><g transform="translate(5.58 95.4)"><path d="M30.829,444.5a4.829,4.829,0,1,0,4.829,4.829A4.834,4.834,0,0,0,30.829,444.5Zm0,6.439a1.61,1.61,0,1,1,1.61-1.61A1.611,1.611,0,0,1,30.829,450.939Z" transform="translate(-26 -444.5)" fill="#777"/></g><g transform="translate(94.648 95.4)"><path d="M445.829,444.5a4.829,4.829,0,1,0,4.829,4.829A4.834,4.834,0,0,0,445.829,444.5Zm0,6.439a1.61,1.61,0,1,1,1.61-1.61A1.611,1.611,0,0,1,445.829,450.939Z" transform="translate(-441 -444.5)" fill="#777"/></g><g transform="translate(25.433 25.433)"><path d="M175.911,118.5H134.2a1.61,1.61,0,0,0,0,3.219h40.1V174.3H121.719V121.719h5.687a1.61,1.61,0,0,0,0-3.219h-7.3a1.61,1.61,0,0,0-1.61,1.61v55.8a1.61,1.61,0,0,0,1.61,1.61h55.8a1.61,1.61,0,0,0,1.61-1.61v-55.8A1.61,1.61,0,0,0,175.911,118.5Z" transform="translate(-118.5 -118.5)" fill="#777"/></g><g transform="translate(14.702 14.702)"><path d="M147.374,86.815a1.61,1.61,0,0,0,0-3.219h-2.683V80.09h2.683a1.61,1.61,0,1,0,0-3.219h-2.683V74.4a1.61,1.61,0,0,0-1.61-1.61h-2.468V70.11a1.61,1.61,0,1,0-3.219,0v2.683h-3.505V70.11a1.61,1.61,0,1,0-3.219,0v2.683h-3.505V70.11a1.61,1.61,0,1,0-3.219,0v2.683h-3.506V70.11a1.61,1.61,0,1,0-3.219,0v2.683h-3.505V70.11a1.61,1.61,0,1,0-3.219,0v2.683h-3.505V70.11a1.61,1.61,0,1,0-3.219,0v2.683h-3.506V70.11a1.61,1.61,0,1,0-3.219,0v2.683H93.539V70.11a1.61,1.61,0,1,0-3.219,0v2.683H86.815V70.11a1.61,1.61,0,1,0-3.219,0v2.683H80.09V70.11a1.61,1.61,0,1,0-3.219,0v2.683H74.4a1.61,1.61,0,0,0-1.61,1.61V76.87H70.11a1.61,1.61,0,1,0,0,3.219h2.683V83.6H70.11a1.61,1.61,0,0,0,0,3.219h2.683V90.32H70.11a1.61,1.61,0,0,0,0,3.219h2.683v3.506H70.11a1.61,1.61,0,0,0,0,3.219h2.683v3.505H70.11a1.61,1.61,0,0,0,0,3.219h2.683v3.505H70.11a1.61,1.61,0,0,0,0,3.219h2.683v3.506H70.11a1.61,1.61,0,1,0,0,3.219h2.683v3.505H70.11a1.61,1.61,0,0,0,0,3.219h2.683v3.505H70.11a1.61,1.61,0,1,0,0,3.219h2.683v3.506H70.11a1.61,1.61,0,1,0,0,3.219h2.683v2.468a1.61,1.61,0,0,0,1.61,1.61H76.87v2.683a1.61,1.61,0,1,0,3.219,0v-2.683H83.6v2.683a1.61,1.61,0,1,0,3.219,0v-2.683H90.32v2.683a1.61,1.61,0,1,0,3.219,0v-2.683h3.506v2.683a1.61,1.61,0,1,0,3.219,0v-2.683h3.505v2.683a1.61,1.61,0,1,0,3.219,0v-2.683h3.505v2.683a1.61,1.61,0,1,0,3.219,0v-2.683h3.506v2.683a1.61,1.61,0,1,0,3.219,0v-2.683h3.505v2.683a1.61,1.61,0,1,0,3.219,0v-2.683h3.505v2.683a1.61,1.61,0,1,0,3.219,0v-2.683h3.506v2.683a1.61,1.61,0,1,0,3.219,0v-2.683h2.468a1.61,1.61,0,0,0,1.61-1.61v-2.468h2.683a1.61,1.61,0,1,0,0-3.219h-2.683v-3.505h2.683a1.61,1.61,0,1,0,0-3.219h-2.683v-3.505h2.683a1.61,1.61,0,0,0,0-3.219h-2.683v-3.506h2.683a1.61,1.61,0,0,0,0-3.219h-2.683v-3.505h2.683a1.61,1.61,0,1,0,0-3.219h-2.683v-3.505h2.683a1.61,1.61,0,0,0,0-3.219h-2.683v-3.506h2.683a1.61,1.61,0,0,0,0-3.219h-2.683V93.539h2.683a1.61,1.61,0,0,0,0-3.219h-2.683V86.815h2.683Zm-5.9,54.657H76.012V76.012h65.46Z" transform="translate(-68.5 -68.5)" fill="#777"/></g><g transform="translate(46.341 31.517)"><path d="M223.107,156.723h-3.97v-6.653h3.97a1.61,1.61,0,1,0,0-3.219h-5.58a1.61,1.61,0,0,0-1.61,1.61v9.873a1.61,1.61,0,0,0,1.61,1.61h5.58a1.61,1.61,0,1,0,0-3.219Z" transform="translate(-215.917 -146.85)" fill="#777"/></g><g transform="translate(55.954 31.517)"><path d="M267.9,146.85h-5.58a1.61,1.61,0,0,0-1.61,1.61v9.873a1.61,1.61,0,1,0,3.219,0v-3.259h3.97a1.61,1.61,0,0,0,1.61-1.61v-5A1.61,1.61,0,0,0,267.9,146.85Zm-1.61,5h-2.361v-1.785h2.361Z" transform="translate(-260.708 -146.85)" fill="#777"/></g><g transform="translate(65.567 31.517)"><path d="M312.69,146.85a1.61,1.61,0,0,0-1.61,1.61v8.263h-2.361V148.46a1.61,1.61,0,1,0-3.219,0v9.873a1.61,1.61,0,0,0,1.61,1.61h5.58a1.61,1.61,0,0,0,1.61-1.61V148.46A1.61,1.61,0,0,0,312.69,146.85Z" transform="translate(-305.5 -146.85)" fill="#777"/></g><g transform="translate(32.251 65.844)"><path d="M162.622,316.049l-9.654-8.839a1.61,1.61,0,0,0-2.7,1.187v8.839a1.61,1.61,0,0,0,1.61,1.61h9.654a1.61,1.61,0,0,0,1.087-2.8Zm-9.131-.422v-3.573l3.9,3.573Z" transform="translate(-150.271 -306.788)" fill="#777"/></g></svg>