<?xml version="1.0" encoding="UTF-8" standalone="no"?>
<svg
   xmlns:dc="http://purl.org/dc/elements/1.1/"
   xmlns:cc="http://creativecommons.org/ns#"
   xmlns:rdf="http://www.w3.org/1999/02/22-rdf-syntax-ns#"
   xmlns:svg="http://www.w3.org/2000/svg"
   xmlns="http://www.w3.org/2000/svg"
   xmlns:sodipodi="http://sodipodi.sourceforge.net/DTD/sodipodi-0.dtd"
   xmlns:inkscape="http://www.inkscape.org/namespaces/inkscape"
   sodipodi:docname="idea.svg"
   inkscape:version="1.0 (1.0+r73+1)"
   id="svg2520"
   version="1.1"
   viewBox="0 0 17.596714 31.357113"
   height="31.357113mm"
   width="17.596714mm">
  <defs
     id="defs2514" />
  <sodipodi:namedview
     inkscape:window-maximized="1"
     inkscape:window-y="0"
     inkscape:window-x="0"
     inkscape:window-height="843"
     inkscape:window-width="1440"
     fit-margin-bottom="0"
     fit-margin-right="0"
     fit-margin-left="0"
     fit-margin-top="0"
     showgrid="false"
     inkscape:document-rotation="0"
     inkscape:current-layer="layer1"
     inkscape:document-units="mm"
     inkscape:cy="68.466067"
     inkscape:cx="50.356408"
     inkscape:zoom="3.959798"
     inkscape:pageshadow="2"
     inkscape:pageopacity="0"
     borderopacity="1.0"
     bordercolor="#666666"
     pagecolor="#000000"
     id="base" />
  <metadata
     id="metadata2517">
    <rdf:RDF>
      <cc:Work
         rdf:about="">
        <dc:format>image/svg+xml</dc:format>
        <dc:type
           rdf:resource="http://purl.org/dc/dcmitype/StillImage" />
        <dc:title></dc:title>
      </cc:Work>
    </rdf:RDF>
  </metadata>
  <g
     transform="translate(-5.3322092,-3.9026295)"
     id="layer1"
     inkscape:groupmode="layer"
     inkscape:label="Capa 1">
    <path
       id="path2132"
       style="fill:none;fill-opacity:1;stroke:#777777;stroke-width:0.805593;stroke-linecap:round;stroke-miterlimit:4;stroke-dasharray:none;stroke-opacity:1;paint-order:fill markers stroke"
       d="m 8.7760557,33.513856 c 0.0671,0.75649 0.57109,1.34309 1.19436,1.34309 h 8.3217603 c 0.62328,0 1.12725,-0.58661 1.19437,-1.34309 z m -1.19233,-2.6862 H 20.678876 c 0.46505,0 0.83943,0.37438 0.83943,0.83942 0,0.46505 -0.37438,0.83943 -0.83943,0.83943 H 7.5837257 c -0.46505,0 -0.83943,-0.37438 -0.83943,-0.83943 0,-0.46504 0.37438,-0.83942 0.83943,-0.83942 z m 0.67155,-2.68615 H 20.007336 c 0.46504,0 0.83943,0.37439 0.83943,0.83944 0,0.46503 -0.37439,0.83942 -0.83943,0.83942 H 8.2552757 c -0.46505,0 -0.83944,-0.37439 -0.83944,-0.83942 0,-0.46505 0.37439,-0.83944 0.83944,-0.83944 z m 5.8740503,-23.836 a 8.3943288,8.3943288 0 0 0 -8.3943203,8.39432 8.3943288,8.3943288 0 0 0 0.78393,3.54139 c 0.9921,2.80225 2.57556,5.90055 2.57556,8.20673 v 2.97399 H 19.167776 v -2.97399 c 0,-2.31574 1.59671,-5.42999 2.58796,-8.24136 a 8.3943288,8.3943288 0 0 0 0.76739,-3.41943 c 5.3e-4,-0.0303 0.003,-0.0615 0.003,-0.0915 l -0.002,0.001 a 8.3943288,8.3943288 0 0 0 -8.39432,-8.39123 z m 1.6645,1.33843 a 0.33577318,0.33577318 0 0 1 0.10903,0.0124 c 1.16278,0.32987 2.31131,0.7491 3.26182,1.54926 0.95051,0.80014 1.68017,1.98387 2.0128,3.75068 a 0.33577318,0.33577318 0 0 1 -0.26769,0.39119 0.33577318,0.33577318 0 0 1 -0.3917,-0.26717 c -0.31016,-1.64745 -0.9531,-2.65904 -1.78697,-3.36103 -0.83388,-0.70196 -1.88213,-1.09483 -3.01222,-1.41542 a 0.33577318,0.33577318 0 0 1 -0.23255,-0.41445 0.33577318,0.33577318 0 0 1 0.30748,-0.24546 z" />
  </g>
</svg>
