<?xml version="1.0" encoding="UTF-8" standalone="no"?>
<svg
   xmlns:dc="http://purl.org/dc/elements/1.1/"
   xmlns:cc="http://creativecommons.org/ns#"
   xmlns:rdf="http://www.w3.org/1999/02/22-rdf-syntax-ns#"
   xmlns:svg="http://www.w3.org/2000/svg"
   xmlns="http://www.w3.org/2000/svg"
   xmlns:sodipodi="http://sodipodi.sourceforge.net/DTD/sodipodi-0.dtd"
   xmlns:inkscape="http://www.inkscape.org/namespaces/inkscape"
   width="262.53436mm"
   height="262.2128mm"
   viewBox="0 0 262.53436 262.2128"
   version="1.1"
   id="svg11822"
   inkscape:version="1.0 (1.0+r73+1)"
   sodipodi:docname="mark.svg">
  <defs
     id="defs11816" />
  <sodipodi:namedview
     id="base"
     pagecolor="#ffffff"
     bordercolor="#666666"
     borderopacity="1.0"
     inkscape:pageopacity="0.0"
     inkscape:pageshadow="2"
     inkscape:zoom="0.35"
     inkscape:cx="367.55648"
     inkscape:cy="712.66311"
     inkscape:document-units="mm"
     inkscape:current-layer="layer1"
     inkscape:document-rotation="0"
     showgrid="false"
     fit-margin-top="0"
     fit-margin-left="0"
     fit-margin-right="0"
     fit-margin-bottom="0"
     inkscape:window-width="1440"
     inkscape:window-height="843"
     inkscape:window-x="0"
     inkscape:window-y="0"
     inkscape:window-maximized="1" />
  <metadata
     id="metadata11819">
    <rdf:RDF>
      <cc:Work
         rdf:about="">
        <dc:format>image/svg+xml</dc:format>
        <dc:type
           rdf:resource="http://purl.org/dc/dcmitype/StillImage" />
        <dc:title />
      </cc:Work>
    </rdf:RDF>
  </metadata>
  <g
     inkscape:label="Capa 1"
     inkscape:groupmode="layer"
     id="layer1"
     transform="translate(-8.5840149,40.392115)">
    <path
       d="m 174.32643,131.74163 h 58.64466 c 3.51083,0 6.33724,2.82641 6.33724,6.33727 v 0.5702 c 0,3.51084 -2.82641,6.33725 -6.33724,6.33725 h -58.64466 c -3.51084,0 -6.33725,-2.82641 -6.33725,-6.33725 v -0.5702 c 0,-3.51086 2.82641,-6.33727 6.33725,-6.33727 z m 0,-21.19154 h 58.64466 c 3.51083,0 6.33724,2.82641 6.33724,6.33727 v 0.57021 c 0,3.51083 -2.82641,6.33724 -6.33724,6.33724 h -58.64466 c -3.51084,0 -6.33725,-2.82641 -6.33725,-6.33724 v -0.57021 c 0,-3.51086 2.82641,-6.33727 6.33725,-6.33727 z m 0,-21.191544 h 58.64466 c 3.51083,0 6.33724,2.82644 6.33724,6.33727 v 0.57021 c 0,3.51083 -2.82641,6.337254 -6.33724,6.337254 h -58.64466 c -3.51084,0 -6.33725,-2.826424 -6.33725,-6.337254 v -0.57021 c 0,-3.51083 2.82641,-6.33727 6.33725,-6.33727 z m 0,-21.19154 h 58.64466 c 3.51083,0 6.33724,2.82644 6.33724,6.33728 v 0.5702 c 0,3.51084 -2.82641,6.33727 -6.33724,6.33727 h -58.64466 c -3.51084,0 -6.33725,-2.82643 -6.33725,-6.33727 v -0.5702 c 0,-3.51084 2.82641,-6.33728 6.33725,-6.33728 z M 85.126255,-36.964225 c -13.576909,0 -14.444187,0.05847 -16.229172,1.091618 -1.369113,0.792401 -2.135267,1.708388 -2.798074,3.345339 -0.844524,2.085948 -0.913024,3.213523 -0.913024,15.067861 V -4.6472496 H 48.044609 c -16.526033,0 -17.211172,0.04024 -19.070505,1.116463 -1.912541,1.106884 -1.991572,1.265502 -9.445651,19.0847126 -4.134194,9.883008 -7.516548,18.603595 -7.516548,19.37856 0,2.446522 1.63449,5.69415 3.494749,6.944201 1.688809,1.134851 2.056103,1.156811 19.054021,1.156811 h 17.331796 v 4.600416 c 0,3.5628 0.206111,5.110322 0.913024,6.856228 1.327045,3.277367 3.557667,4.436956 8.532628,4.436956 h 3.847862 v 79.732852 79.73285 h 13.293513 v -2.52275 -2.52367 l 6.646757,-7.93335 6.646756,-7.93337 v 10.45607 10.45707 H 105.06653 V 138.65995 58.927098 h 3.84783 c 4.97499,0 7.20559,-1.159589 8.53263,-4.436956 0.70691,-1.745906 0.91305,-3.293428 0.91305,-6.856228 v -4.600416 h 40.32367 40.32366 v 7.946813 3.045222 h 13.29351 v -3.045222 -7.946813 h 10.49462 c 9.69135,0 10.63996,-0.08387 12.38131,-1.091671 1.36911,-0.7924 2.13524,-1.708441 2.79808,-3.345259 0.8641,-2.134156 0.91302,-3.171058 0.91302,-19.403431 0,-16.2324516 -0.0489,-17.2693536 -0.91302,-19.40342964 -0.66284,-1.63692396 -1.42897,-2.55293796 -2.79808,-3.34533896 -1.87746,-1.087384 -2.16852,-1.091618 -65.99851,-1.091618 H 105.06653 V -17.459407 c 0,-11.854338 -0.0685,-12.981913 -0.91306,-15.067861 -0.6628,-1.636951 -1.42896,-2.552938 -2.79807,-3.345339 -1.784986,-1.033119 -2.652263,-1.091618 -16.229145,-1.091618 z m -6.646757,15.8936 h 6.646757 6.646756 v 8.211688 8.2116874 H 85.126255 78.479498 V -12.858937 Z M 36.147964,11.246324 h 7.872227 7.87228 v 7.946813 7.946787 H 40.814526 c -6.092878,0 -11.077946,-0.116549 -11.077946,-0.259741 0,-0.143166 1.442667,-3.719169 3.205692,-7.946813 z m 82.212076,0 h 15.6147 15.61381 l -6.63551,7.946813 -6.63549,7.946787 h -8.97922 -8.97829 v -7.946787 z m 63.60203,0 h 10.39854 10.39855 l -5.08114,6.092561 c -2.79474,3.350895 -5.1876,6.092533 -5.31741,6.092533 -0.1298,0 -2.52267,-2.741638 -5.31741,-6.092533 z m 41.74392,0 h 1.88841 v 7.946813 7.946787 h -8.52483 -8.52392 l 6.63549,-7.946787 c 6.47874,-7.7588 6.6807,-7.946813 8.52485,-7.946813 z m -57.9324,3.448764 5.20401,6.222921 5.20491,6.221915 h -10.40892 -10.40892 l 5.20491,-6.221915 z m -87.294092,44.23201 h 6.646757 6.646756 v 18.012728 c 0,9.90701 -0.05191,18.01275 -0.116073,18.01275 -0.06398,0 -3.055011,-3.51914 -6.646756,-7.8206 l -6.530764,-7.82056 v -10.19217 z m 0,43.182732 5.20401,6.22292 5.204883,6.22191 -5.204883,6.22187 -5.20401,6.22294 v -12.44481 z m 13.293513,31.7872 v 12.31545 c 0,6.7731 -0.05292,12.31448 -0.117739,12.31448 -0.06498,0 -2.406227,-2.7432 -5.202344,-6.09568 l -5.083677,-6.09569 5.20229,-6.21871 z m -13.293513,31.78717 5.20401,6.22292 5.204883,6.22192 -5.204883,6.22186 -5.20401,6.22292 V 178.12904 Z M 168.21077,54.02548 h 73.11435 c 4.29601,0 7.75454,4.135015 7.75454,9.271266 v 87.414734 c 0,5.13628 -3.45853,9.27132 -7.75454,9.27132 h -73.11435 c -4.29601,0 -7.75454,-4.13504 -7.75454,-9.27132 V 63.296746 c 0,-5.136251 3.45853,-9.271266 7.75454,-9.271266 z M 105.06645,173.8108 h 154.86949 c 4.29601,0 7.75454,-4.13499 7.75454,-9.27127 V -2.0296466 c 0,-5.136277 -3.45853,-9.2712654 -7.75454,-9.2712654 H 105.06645 v 6.6533714 h 64.1118 c 31.91499,0 47.94556,0 56.23176,0.138668 4.14311,0.0685 6.34992,0.170577 7.63857,0.32385 0.64432,0.07665 1.05857,0.165921 1.37089,0.270087 0.31231,0.104193 0.5226,0.22315 0.75729,0.35904 0.68453,0.396213 1.21875,0.823859 1.66431,1.356571 0.4455,0.532633 0.80229,1.170279 1.13374,1.98876696 0.21603,0.53348 0.38105,0.998432 0.50715,1.64938604 0.12613,0.650928 0.21336,1.488308 0.2735,2.765849 0.1202,2.555002 0.1324,6.8719696 0.1324,14.9881686 0,8.116174 -0.0124,12.4342 -0.1324,14.989255 -0.0601,1.27754 -0.14737,2.113862 -0.2735,2.76479 -0.1261,0.650954 -0.29112,1.115854 -0.50715,1.649386 -0.33145,0.818409 -0.68824,1.45714 -1.13374,1.989825 -0.44556,0.532659 -0.97978,0.9593 -1.66431,1.355461 -0.43537,0.251962 -0.82074,0.446458 -1.30601,0.596 -0.48522,0.149622 -1.07,0.254582 -1.90315,0.328057 -1.66624,0.14695 -4.32649,0.167613 -9.17215,0.167613 h -10.49462 v 7.946814 3.045195 h 29.02418 c 0.537,0 1.06077,0.06527 1.5665,0.188357 0.50569,0.123111 0.99324,0.304086 1.45743,0.53803 0.46418,0.233971 0.90482,0.520092 1.31725,0.852647 0.41241,0.332607 0.79716,0.712046 1.14758,1.130987 0.35041,0.418968 0.66693,0.877967 0.94506,1.371045 0.27821,0.493077 0.51748,1.019889 0.71316,1.574828 0.19569,0.55501 0.34793,1.13789 0.45093,1.74252 0.10292,0.6046 0.15663,1.23087 0.15663,1.87285 v 87.414764 c 0,0.64204 -0.0537,1.26826 -0.15663,1.87288 -0.103,0.60465 -0.25524,1.18753 -0.45093,1.74252 -0.19568,0.55496 -0.43495,1.08283 -0.71316,1.57591 -0.27813,0.49308 -0.59465,0.95208 -0.94506,1.37105 -0.35042,0.41889 -0.73517,0.79732 -1.14758,1.12993 -0.41243,0.33252 -0.85307,0.61862 -1.31725,0.85256 -0.46419,0.23403 -0.95174,0.41606 -1.45743,0.53912 -0.50573,0.12314 -1.0295,0.18727 -1.5665,0.18727 h -73.11435 c -0.53702,0 -1.06076,-0.0641 -1.56651,-0.18727 -0.50568,-0.12306 -0.99325,-0.30509 -1.45741,-0.53912 -0.46421,-0.23394 -0.90485,-0.52004 -1.31725,-0.85256 -0.41241,-0.33261 -0.79632,-0.71104 -1.14673,-1.12993 -0.35039,-0.41897 -0.66779,-0.87797 -0.94594,-1.37105 -0.27819,-0.49308 -0.51747,-1.02095 -0.71316,-1.57591 -0.19566,-0.55499 -0.34793,-1.13787 -0.4509,-1.74252 -0.10295,-0.60462 -0.15664,-1.23084 -0.15664,-1.87288 V 63.296506 c 0,-0.64198 0.0537,-1.26825 0.15664,-1.87285 0.10297,-0.60463 0.25524,-1.18751 0.4509,-1.74252 0.19569,-0.554939 0.43497,-1.081751 0.71316,-1.574828 0.27815,-0.493078 0.59555,-0.952077 0.94594,-1.371045 0.35041,-0.418941 0.73432,-0.79838 1.14673,-1.130987 0.4124,-0.332555 0.85304,-0.618676 1.31725,-0.852647 0.46416,-0.233944 0.95173,-0.414919 1.45741,-0.53803 0.50575,-0.123084 1.02949,-0.188357 1.56651,-0.188357 h 30.79666 v -3.045195 -7.946814 h -40.32367 -40.32366 v 4.60047 c 0,1.781386 -0.0514,3.059509 -0.19127,4.109958 -0.13994,1.050475 -0.36835,1.873223 -0.72178,2.746216 -0.33176,0.819309 -0.72004,1.506061 -1.19348,2.075709 -0.47348,0.569569 -1.03225,1.022271 -1.70501,1.372024 -0.67267,0.349779 -1.45917,0.597508 -2.38865,0.757449 -0.92943,0.15994 -2.00174,0.231775 -3.24549,0.231775 h -3.84786 V 138.65969 Z M 199.00732,54.025242 h -30.79666 c -0.53702,0 -1.06076,0.06527 -1.56651,0.188357 -0.50568,0.123111 -0.99325,0.304086 -1.45741,0.53803 -0.46421,0.233971 -0.90485,0.520092 -1.31725,0.852647 -0.41241,0.332607 -0.79632,0.712046 -1.14673,1.130987 -0.35039,0.418968 -0.66779,0.877967 -0.94594,1.371045 -0.27819,0.493077 -0.51747,1.019889 -0.71316,1.574828 -0.19566,0.55501 -0.34793,1.13789 -0.4509,1.74252 -0.10295,0.6046 -0.15664,1.23087 -0.15664,1.87285 v 87.414764 c 0,0.64204 0.0537,1.26826 0.15664,1.87288 0.10297,0.60465 0.25524,1.18753 0.4509,1.74252 0.19569,0.55496 0.43497,1.08283 0.71316,1.57591 0.27815,0.49308 0.59555,0.95208 0.94594,1.37105 0.35041,0.41889 0.73432,0.79732 1.14673,1.12993 0.4124,0.33252 0.85304,0.61862 1.31725,0.85256 0.46416,0.23403 0.95173,0.41606 1.45741,0.53912 0.50575,0.12314 1.02949,0.18727 1.56651,0.18727 h 73.11435 c 0.537,0 1.06077,-0.0641 1.5665,-0.18727 0.50569,-0.12306 0.99324,-0.30509 1.45743,-0.53912 0.46418,-0.23394 0.90482,-0.52004 1.31725,-0.85256 0.41241,-0.33261 0.79716,-0.71104 1.14758,-1.12993 0.35041,-0.41897 0.66693,-0.87797 0.94506,-1.37105 0.27821,-0.49308 0.51748,-1.02095 0.71316,-1.57591 0.19569,-0.55499 0.34793,-1.13787 0.45093,-1.74252 0.10292,-0.60462 0.15663,-1.23084 0.15663,-1.87288 V 63.296506 c 0,-0.64198 -0.0537,-1.26825 -0.15663,-1.87285 -0.103,-0.60463 -0.25524,-1.18751 -0.45093,-1.74252 -0.19568,-0.554939 -0.43495,-1.081751 -0.71316,-1.574828 -0.27813,-0.493078 -0.59465,-0.952077 -0.94506,-1.371045 -0.35042,-0.418941 -0.73517,-0.79838 -1.14758,-1.130987 -0.41243,-0.332555 -0.85307,-0.618676 -1.31725,-0.852647 -0.46419,-0.233944 -0.95174,-0.414919 -1.45743,-0.53803 -0.50573,-0.123084 -1.0295,-0.188357 -1.5665,-0.188357 H 212.30083 Z M 90.443586,157.10699 c 0.239077,0.27067 1.196499,1.41968 1.211659,1.41968 0.0648,0 0.117687,-5.54136 0.117687,-12.3144 v -12.31548 l -1.329346,1.58938 z m 0,-63.582634 c 0.192669,0.21797 1.201684,1.42796 1.213379,1.42796 0.06414,0 0.115967,-8.10575 0.115967,-18.01275 V 58.926834 h -1.329346 z m 0.349673,-98.1718966 h 0.979673 v -2.584767 c -0.441034,0.778854 -0.752184,1.659784 -0.979673,2.584767 z M 118.35999,11.24606 v 7.946786 7.946814 h 8.97829 8.97919 l 6.63551,-7.946814 6.63552,-7.946786 h -15.61383 z m 63.60202,0 5.08114,6.092533 c 2.79474,3.350922 5.18761,6.092561 5.31741,6.092561 0.12978,0 2.52267,-2.741639 5.31741,-6.092561 l 5.08111,-6.092533 h -10.39852 z m 41.7439,0 c -0.46101,0 -0.81918,0.01217 -1.19867,0.151103 -0.37949,0.138853 -0.78047,0.404178 -1.32591,0.912601 -1.09085,1.016873 -2.76087,3.003682 -6.00025,6.883082 l -6.63551,7.946814 h 8.52395 8.52482 V 19.192846 11.24606 Z m -57.9324,3.448817 -5.20401,6.22292 -5.20489,6.221863 h 10.4089 10.40892 l -5.20489,-6.221863 z"
       style="fill:none;fill-opacity:1;stroke:#9b4dca;stroke-width:6.85578;stroke-linecap:round;stroke-miterlimit:4;stroke-dasharray:none;stroke-opacity:1;paint-order:fill markers stroke"
       id="rect3138" />
  </g>
</svg>
