<?xml version="1.0" encoding="UTF-8" standalone="no"?>
<svg
   xmlns:dc="http://purl.org/dc/elements/1.1/"
   xmlns:cc="http://creativecommons.org/ns#"
   xmlns:rdf="http://www.w3.org/1999/02/22-rdf-syntax-ns#"
   xmlns:svg="http://www.w3.org/2000/svg"
   xmlns="http://www.w3.org/2000/svg"
   xmlns:sodipodi="http://sodipodi.sourceforge.net/DTD/sodipodi-0.dtd"
   xmlns:inkscape="http://www.inkscape.org/namespaces/inkscape"
   width="267.48038mm"
   height="267.13339mm"
   viewBox="0 0 267.48038 267.13339"
   version="1.1"
   id="svg17652"
   inkscape:version="1.0 (1.0+r73+1)"
   sodipodi:docname="money.svg">
  <defs
     id="defs17646" />
  <sodipodi:namedview
     id="base"
     pagecolor="#ffffff"
     bordercolor="#666666"
     borderopacity="1.0"
     inkscape:pageopacity="0.0"
     inkscape:pageshadow="2"
     inkscape:zoom="0.35"
     inkscape:cx="574.04614"
     inkscape:cy="836.24756"
     inkscape:document-units="mm"
     inkscape:current-layer="layer1"
     inkscape:document-rotation="0"
     showgrid="false"
     fit-margin-top="0"
     fit-margin-left="0"
     fit-margin-right="0"
     fit-margin-bottom="0"
     inkscape:window-width="1440"
     inkscape:window-height="872"
     inkscape:window-x="0"
     inkscape:window-y="0"
     inkscape:window-maximized="0" />
  <metadata
     id="metadata17649">
    <rdf:RDF>
      <cc:Work
         rdf:about="">
        <dc:format>image/svg+xml</dc:format>
        <dc:type
           rdf:resource="http://purl.org/dc/dcmitype/StillImage" />
        <dc:title />
      </cc:Work>
    </rdf:RDF>
  </metadata>
  <g
     inkscape:label="Capa 1"
     inkscape:groupmode="layer"
     id="layer1"
     transform="translate(46.049708,73.0905)">
    <path
       id="path16647"
       d="m 110.48682,188.29808 c -1.94564,-2.16823 -2.30595,-6.12092 -2.30595,-25.29445 v -22.72467 h -8.260579 c -8.64092,0 -12.63981,-2.14357 -12.6396,-6.77534 1.1e-4,-2.17247 52.937389,-71.0293 60.641209,-78.87724 2.77931,-2.83128 3.98915,-3.20725 6.78653,-2.10794 4.08451,1.60491 63.54723,77.2913 63.54723,80.88514 0,4.73122 -3.94168,6.87538 -12.63973,6.87538 h -8.26058 v 23.08619 c 0,19.11385 -0.37653,23.46627 -2.18953,25.29459 -1.88905,1.90503 -7.69208,2.20814 -42.28129,2.20814 -37.07067,0 -40.26546,-0.19373 -42.39771,-2.5698 z M 41.996647,135.15295 c -41.11847185,-8.61981 -69.431853,-34.12326 -81.728443,-73.61748 -2.794159,-8.9743 -3.246093,-13.23078 -3.128036,-29.46067 0.121099,-16.693036 0.590655,-20.320844 3.90816,-30.2128996 5.509207,-16.4271334 13.604002,-29.3275024 26.473627,-42.1899564 44.408381,-44.383246 116.873445,-38.121537 154.873805,13.382307 11.22756,15.217326 17.36944,33.6154454 18.34996,54.967669 l 0.74964,16.32315 -6.95134,-0.67369 c -6.19286,-0.60012 -7.4214,-0.23476 -11.25919,3.35032 -7.82224,7.30668 -63.109839,79.55346 -63.890069,83.48789 -0.57629,2.90616 -1.8011,4.06477 -4.97369,4.70451 -4.58571,0.92511 -27.930396,0.88098 -32.424424,-0.0609 z m 23.448434,-31.76331 c 1.31122,-0.96716 2.86255,-3.56243 3.44734,-5.76773 0.79229,-2.98765 2.42628,-4.48191 6.41297,-5.86422 13.61942,-4.72205 23.14524,-18.57741 23.09137,-33.58642 C 98.329361,39.31711 87.584621,28.37228 64.506921,23.649967 46.999336,20.067429 41.299999,15.19301 41.299999,3.8024604 c 0,-8.590836 4.927521,-14.8132014 13.236812,-16.7155294 10.10814,-2.313966 16.98144,1.088126 23.46188,11.6131184 4.21782,6.850354 16.24861,3.983964 16.24861,-3.871304 0,-7.0497434 -12.29696,-19.3776074 -21.24858,-21.3020014 -3.02538,-0.650345 -3.83175,-1.617503 -3.83175,-4.595256 0,-5.112994 -2.64795,-8.32493 -7.66344,-9.295342 -5.40234,-1.045422 -9.024754,1.687962 -10.251044,7.735147 -0.781553,3.854079 -1.920743,5.05542 -6.21546,6.555052 -15.552049,5.430229 -24.341481,22.1456254 -20.386807,38.7713 3.116659,13.102564 12.672933,20.436155 33.508051,25.714405 19.21626,4.8682 25.80891,12.51961 22.22473,25.79367 -2.08499,7.72171 -6.47607,12.19825 -13.95915,14.23049 C 55.073171,81.51865 45.599002,76.62569 40.528369,65.06194 37.32183,57.7496 36.901222,57.36923 32.02212,57.36923 c -5.47624,0 -10.237814,3.21279 -10.215509,6.89282 0.02619,4.01241 6.499092,16.19761 10.739146,20.2106 2.276158,2.15434 7.192486,5.08611 10.925228,6.51512 5.311801,2.03351 7.018655,3.47245 7.853495,6.62083 1.237244,4.66572 4.585761,7.53904 8.785731,7.53904 1.62292,0 4.02359,-0.79113 5.33487,-1.758 z"
       style="fill:none;stroke:#9b4dca;stroke-width:6.35;stroke-miterlimit:4;stroke-dasharray:none;stroke-opacity:1" />
  </g>
</svg>
