<?xml version="1.0" encoding="UTF-8" standalone="no"?>
<svg
   xmlns:dc="http://purl.org/dc/elements/1.1/"
   xmlns:cc="http://creativecommons.org/ns#"
   xmlns:rdf="http://www.w3.org/1999/02/22-rdf-syntax-ns#"
   xmlns:svg="http://www.w3.org/2000/svg"
   xmlns="http://www.w3.org/2000/svg"
   xmlns:sodipodi="http://sodipodi.sourceforge.net/DTD/sodipodi-0.dtd"
   xmlns:inkscape="http://www.inkscape.org/namespaces/inkscape"
   width="264.73965mm"
   height="264.39932mm"
   viewBox="0 0 264.73965 264.39932"
   version="1.1"
   id="svg9277"
   inkscape:version="1.0 (1.0+r73+1)"
   sodipodi:docname="prototype.svg">
  <defs
     id="defs9271" />
  <sodipodi:namedview
     id="base"
     pagecolor="#ffffff"
     bordercolor="#666666"
     borderopacity="1.0"
     inkscape:pageopacity="0.0"
     inkscape:pageshadow="2"
     inkscape:zoom="0.35"
     inkscape:cx="460.56343"
     inkscape:cy="542.76917"
     inkscape:document-units="mm"
     inkscape:current-layer="layer1"
     inkscape:document-rotation="0"
     showgrid="false"
     fit-margin-top="0"
     fit-margin-left="0"
     fit-margin-right="0"
     fit-margin-bottom="0"
     inkscape:window-width="1440"
     inkscape:window-height="843"
     inkscape:window-x="0"
     inkscape:window-y="0"
     inkscape:window-maximized="1" />
  <metadata
     id="metadata9274">
    <rdf:RDF>
      <cc:Work
         rdf:about="">
        <dc:format>image/svg+xml</dc:format>
        <dc:type
           rdf:resource="http://purl.org/dc/dcmitype/StillImage" />
        <dc:title />
      </cc:Work>
    </rdf:RDF>
  </metadata>
  <g
     inkscape:label="Capa 1"
     inkscape:groupmode="layer"
     id="layer1"
     transform="translate(41.655538,119.34848)">
    <path
       style="fill:none;stroke:#9b4dca;stroke-width:6.35;stroke-miterlimit:4;stroke-dasharray:none;stroke-opacity:1"
       d="m 122.44106,138.60888 c -3.79923,-1.78916 -8.26793,-4.7321 -9.93042,-6.53978 -4.76914,-5.1857 -8.65703,-15.11859 -8.69008,-22.20156 l -0.0314,-6.49806 -59.751911,-0.39995 c -58.139677,-0.38952 -59.90098,-0.48024 -65.278055,-3.370097 -7.100596,-3.81611 -10.883899,-7.93197 -14.390158,-15.65521 -2.736056,-6.02681 -2.819347,-8.64516 -2.848848,-89.5165696 -0.0209,-61.7005634 0.407829,-84.7810404 1.658382,-88.9868304 2.220489,-7.466863 12.408376,-17.640693 19.885554,-19.858113 7.1439874,-2.1186 154.768306,-2.42697 162.060336,-0.33841 7.69987,2.20528 14.68403,7.97021 18.796,15.5148 3.26601,5.992575 3.96425,9.160827 4.50918,20.461287 l 0.64474,13.370856 13.38929,0.643824 c 11.3161,0.544166 14.48872,1.241436 20.48965,4.502984 7.55497,4.106275 13.32786,11.080779 15.53618,18.770034 2.09129,7.281939 1.78247,154.702575 -0.33891,161.836685 -2.22046,7.46684 -12.40835,17.64067 -19.88552,19.85812 -3.76383,1.11617 -16.37599,1.68177 -37.30178,1.67286 -30.32617,-0.0114 -31.89695,-0.146 -38.52305,-3.2665 z m 74.9616,-11.8886 c 2.47644,-1.50786 5.73801,-4.76491 7.24794,-7.23794 2.6511,-4.34216 2.74547,-7.09306 2.75045,-80.168197 0.006,-84.397473 0.25223,-82.102943 -9.46735,-88.138798 -4.84153,-3.006561 -6.22051,-3.125919 -36.11848,-3.125919 -35.09145,0 -37.11795,0.496408 -42.73182,10.471377 -2.89785,5.148847 -2.92354,5.974646 -2.54797,81.7678 0.37179,74.964317 0.43916,76.647967 3.24075,80.460637 5.89717,8.02582 9.29492,8.71887 42.72976,8.71559 27.89367,-0.003 30.76445,-0.22839 34.89672,-2.74455 z m -53.27129,-12.70016 c -2.39355,-2.39027 -2.03909,-5.85007 0.86863,-8.47786 2.01646,-1.82239 5.48285,-2.28335 17.17069,-2.28335 15.35414,0 18.98613,1.28571 18.98613,6.72084 0,4.84666 -2.8838,5.69595 -19.3416,5.69595 -10.62263,0 -16.58496,-0.55819 -17.68385,-1.65558 z M 132.45729,63.138843 c -2.77535,-1.6142 -3.20291,-6.83133 -0.75986,-9.271 1.15218,-1.15057 8.4428,-1.65558 23.90077,-1.65558 22.89596,0 25.55862,0.59339 25.55862,5.69593 0,5.87052 -3.23107,6.72306 -25.3119,6.67885 -11.65852,-0.0209 -22.04349,-0.66635 -23.38763,-1.4482 z m -0.75986,-26.37856 c -0.9118,-0.91056 -1.65785,-2.95931 -1.65785,-4.55282 0,-5.8362 1.90482,-6.20837 31.77564,-6.20837 29.87077,0 31.7755,0.37233 31.7755,6.20837 0,5.83626 -1.90473,6.2084 -31.7755,6.2084 -20.29346,0 -28.93565,-0.47504 -30.11779,-1.65558 z m 0,-26.21317 c -2.48137,-2.4779296 -2.26978,-31.990446 0.2444,-34.074061 1.3281,-1.100698 10.81397,-1.463987 31.43022,-1.203693 l 29.52798,0.372838 0.39058,16.3600364 c 0.2595,10.88232 -0.14359,17.00291 -1.20531,18.2802396 -2.15056,2.58768 -57.8172,2.83168 -60.38773,0.26437 z m 49.45939,-16.9695496 v -6.2084104 h -19.3416 -19.3417 v 6.2084104 6.20834999 h 19.3417 19.3416 z m -77.3666,90.3664496 v -6.89822 H 92.017452 c -11.21183,0 -11.84762,-0.16425 -13.34387,-3.4435 -1.2982,-2.84527 -1.13585,-3.9238 0.93443,-6.20839 2.10175,-2.31916 4.25289,-2.76487 13.34397,-2.76487 h 10.838238 v -6.89825 -6.89813 H 92.095682 c -10.28059,0 -11.87333,-0.33375 -13.17328,-2.75932 -1.70847,-3.18783 0,-7.4536 3.52848,-8.80533 1.22298,-0.46876 6.52468,-0.85214 11.78147,-0.85214 h 9.557868 v -6.2084 -6.20837 H 93.192012 c -16.15757,0 -15.65121,1.04111 -15.65121,-32.1818396 0,-33.7507064 -0.52581,-32.6612614 15.7639,-32.6612614 h 11.190948 l 1.51542,-4.483859 c 0.83344,-2.466086 1.98692,-5.576218 2.56324,-6.911396 0.99319,-2.300912 -2.47431,-2.408893 -66.455452,-2.069433 l -67.503277,0.358219 v 65.08778 c 0,63.65912 0.0626,65.17323 2.861284,68.98204 6.391196,8.69841 6.550342,8.71844 69.32451,8.72079 l 56.988845,0.003 z m -114.392078,-8.5538 c -2.13106,-2.12809 -2.13106,-6.97753 0,-9.10563 1.1489004,-1.14731 8.3287404,-1.65555 23.387553,-1.65555 17.912265,0 22.111229,0.38063 23.900818,2.16797 2.545794,2.54233 2.683854,3.95464 0.740833,7.5802 -1.323975,2.47042 -3.098694,2.66859 -23.900738,2.66859 -15.6350756,0 -22.9749616,-0.50371 -24.128466,-1.65558 z m -0.736838,-25.47733 c -2.016786,-2.01396 -0.858361,-8.67416 1.7512244,-10.06885 2.880069,-1.53922 65.9130266,-2.05957 69.7843336,-0.57603 3.52747,1.35173 5.23689,5.6175 3.52848,8.80533 -1.42121,2.65187 -2.89269,2.75932 -37.81089,2.75932 -19.9826556,0 -36.746603,-0.41405 -37.253148,-0.91977 z m 1.4966694,-25.40395 c -2.1825754,-1.26944 -2.4177104,-4.2578 -2.4177104,-30.7239996 0,-20.9632084 0.472572,-29.7895964 1.657879,-30.9733744 1.2018434,-1.200184 11.24987237,-1.655567 36.532635,-1.655567 34.472505,0 34.899595,0.03662 37.025475,3.066262 1.76596,2.517788 2.15064,7.823726 2.15064,29.6622794 0,24.7564996 -0.19114,26.7868296 -2.76307,29.3552796 -2.61366,2.61006 -4.574886,2.75701 -36.265672,2.71729 -20.1749286,-0.0259 -34.4642806,-0.60134 -35.9201766,-1.44817 z M 51.982181,-6.4224366 V -25.737428 L 26.07815,-26.112858 0.17419837,-26.488302 V -6.4226066 13.643053 L 26.07815,13.267613 51.982181,12.892163 Z m 51.808039,0 V -26.427247 h -6.907748 -6.90774 v 19.0850304 c 0,10.49677 0.41458,19.4988996 0.92104,20.0048096 0.50649,0.50577 3.61506,0.91974 6.90774,0.91974 h 5.986708 z m 52.17924,-70.9433224 c -0.53131,-9.305766 -1.42597,-13.477161 -3.66728,-17.098618 -5.83885,-9.434383 -3.82127,-9.223323 -88.094818,-9.217583 -73.1761056,0.006 -75.930815,0.099 -80.279003,2.7467 -7.745042,4.715664 -9.992519,10.066993 -9.998419,23.806224 l -0.0056,12.071879 h 91.373672 91.373748 z m -168.229197,-6.316557 v -6.208368 h 6.2169414 6.21699397 v 6.208368 6.208395 H -6.0427956 -12.259737 Z m 24.867844,0 v -6.208368 h 6.572276 6.572303 l -0.49448,6.208368 -0.49448,6.208395 h -6.077823 -6.077849 z m 26.249391,0 v -6.208368 h 6.216994 6.216941 v 6.208368 6.208395 h -6.216941 -6.216994 z"
       id="path2430" />
  </g>
</svg>
