<?xml version="1.0" encoding="UTF-8" standalone="no"?>
<svg
   xmlns:dc="http://purl.org/dc/elements/1.1/"
   xmlns:cc="http://creativecommons.org/ns#"
   xmlns:rdf="http://www.w3.org/1999/02/22-rdf-syntax-ns#"
   xmlns:svg="http://www.w3.org/2000/svg"
   xmlns="http://www.w3.org/2000/svg"
   xmlns:sodipodi="http://sodipodi.sourceforge.net/DTD/sodipodi-0.dtd"
   xmlns:inkscape="http://www.inkscape.org/namespaces/inkscape"
   width="264.63364mm"
   height="268.63406mm"
   viewBox="0 0 264.63364 268.63406"
   version="1.1"
   id="svg13111"
   inkscape:version="1.0 (1.0+r73+1)"
   sodipodi:docname="redundancia.svg">
  <defs
     id="defs13105" />
  <sodipodi:namedview
     id="base"
     pagecolor="#ffffff"
     bordercolor="#666666"
     borderopacity="1.0"
     inkscape:pageopacity="0.0"
     inkscape:pageshadow="2"
     inkscape:zoom="0.35"
     inkscape:cx="468.66645"
     inkscape:cy="556.22639"
     inkscape:document-units="mm"
     inkscape:current-layer="layer1"
     inkscape:document-rotation="0"
     showgrid="false"
     fit-margin-top="0"
     fit-margin-left="0"
     fit-margin-right="0"
     fit-margin-bottom="0"
     inkscape:window-width="1440"
     inkscape:window-height="843"
     inkscape:window-x="0"
     inkscape:window-y="0"
     inkscape:window-maximized="1" />
  <metadata
     id="metadata13108">
    <rdf:RDF>
      <cc:Work
         rdf:about="">
        <dc:format>image/svg+xml</dc:format>
        <dc:type
           rdf:resource="http://purl.org/dc/dcmitype/StillImage" />
        <dc:title />
      </cc:Work>
    </rdf:RDF>
  </metadata>
  <g
     inkscape:label="Capa 1"
     inkscape:groupmode="layer"
     id="layer1"
     transform="translate(18.167997,-0.99843374)">
    <g
       style="fill:none;stroke:#9b4dca;stroke-width:4.75327;stroke-miterlimit:4;stroke-dasharray:none;stroke-opacity:1"
       transform="matrix(0.95441124,0,0,1.8699359,-496.32119,-207.30172)"
       id="g2767">
      <path
         style="fill:none;stroke:#9b4dca;stroke-width:4.75327;stroke-linecap:round;stroke-miterlimit:4;stroke-dasharray:none;stroke-opacity:1;paint-order:fill markers stroke"
         d="m 605.76328,113.77091 h 66.14583 c 3.66448,0 6.61459,2.95011 6.61459,6.61459 v 6.61458 c 0,3.66448 -2.95011,6.61458 -6.61459,6.61458 h -66.14583 c -3.66448,0 -6.61458,-2.9501 -6.61458,-6.61458 v -6.61458 c 0,-3.66448 2.9501,-6.61459 6.61458,-6.61459 z"
         id="path1960" />
      <path
         style="fill:none;stroke:#9b4dca;stroke-width:4.75327;stroke-linecap:round;stroke-miterlimit:4;stroke-dasharray:none;stroke-opacity:1;paint-order:fill markers stroke"
         d="m 605.76328,145.52085 h 66.14583 c 3.66448,0 6.61459,2.95011 6.61459,6.61459 v 6.61458 c 0,3.66448 -2.95011,6.61458 -6.61459,6.61458 h -66.14583 c -3.66448,0 -6.61458,-2.9501 -6.61458,-6.61458 v -6.61458 c 0,-3.66448 2.9501,-6.61459 6.61458,-6.61459 z"
         id="path1958" />
      <path
         style="fill:none;stroke:#9b4dca;stroke-width:4.75327;stroke-linecap:round;stroke-miterlimit:4;stroke-dasharray:none;stroke-opacity:1;paint-order:fill markers stroke"
         d="m 605.76328,177.27079 h 66.14583 c 3.66448,0 6.61459,2.95011 6.61459,6.61458 v 6.61459 c 0,3.66448 -2.95011,6.61458 -6.61459,6.61458 h -66.14583 c -3.66448,0 -6.61458,-2.9501 -6.61458,-6.61458 v -6.61459 c 0,-3.66447 2.9501,-6.61458 6.61458,-6.61458 z"
         id="path1956" />
      <path
         style="fill:none;stroke:#9b4dca;stroke-width:4.75327;stroke-linecap:round;stroke-miterlimit:4;stroke-dasharray:none;stroke-opacity:1;paint-order:fill markers stroke"
         d="m 610.26159,132.5579 h 56.88461 c 2.49138,0 4.49708,2.0057 4.49708,4.49708 v 4.49709 c 0,2.49138 -2.0057,4.49708 -4.49708,4.49708 h -56.88461 c -2.49138,0 -4.49708,-2.0057 -4.49708,-4.49708 v -4.49709 c 0,-2.49138 2.0057,-4.49708 4.49708,-4.49708 z"
         id="path1954" />
      <path
         style="fill:none;stroke:#9b4dca;stroke-width:4.75327;stroke-linecap:round;stroke-miterlimit:4;stroke-dasharray:none;stroke-opacity:1;paint-order:fill markers stroke"
         d="m 610.26159,164.30784 h 56.88461 c 2.49138,0 4.49708,2.0057 4.49708,4.49708 v 4.49709 c 0,2.49138 -2.0057,4.49708 -4.49708,4.49708 h -56.88461 c -2.49138,0 -4.49708,-2.0057 -4.49708,-4.49708 v -4.49709 c 0,-2.49138 2.0057,-4.49708 4.49708,-4.49708 z"
         id="path1952" />
      <path
         style="fill:none;stroke:#9b4dca;stroke-width:4.75327;stroke-linecap:round;stroke-miterlimit:4;stroke-dasharray:none;stroke-opacity:1;paint-order:fill markers stroke"
         d="m 612.51031,120.38548 h 13.22918 c 1.83224,0 3.30729,1.47505 3.30729,3.30729 0,1.83224 -1.47505,3.30729 -3.30729,3.30729 h -13.22918 c -1.83224,0 -3.30729,-1.47505 -3.30729,-3.30729 0,-1.83224 1.47505,-3.30729 3.30729,-3.30729 z"
         id="path1950" />
      <path
         style="fill:none;stroke:#9b4dca;stroke-width:4.75327;stroke-linecap:round;stroke-miterlimit:4;stroke-dasharray:none;stroke-opacity:1;paint-order:fill markers stroke"
         d="m 637.38141,120.07288 h 3.39115 c 2.00542,0 3.61989,1.61448 3.61989,3.61989 0,2.00542 -1.61447,3.61989 -3.61989,3.61989 h -3.39115 c -2.00542,0 -3.61989,-1.61447 -3.61989,-3.61989 0,-2.00541 1.61447,-3.61989 3.61989,-3.61989 z"
         id="path1948" />
      <path
         style="fill:none;stroke:#9b4dca;stroke-width:4.75327;stroke-linecap:round;stroke-miterlimit:4;stroke-dasharray:none;stroke-opacity:1;paint-order:fill markers stroke"
         d="m 654.84377,120.38548 h 13.22919 c 1.83224,0 3.30729,1.47505 3.30729,3.30729 0,1.83224 -1.47505,3.30729 -3.30729,3.30729 h -13.22919 c -1.83224,0 -3.30729,-1.47505 -3.30729,-3.30729 0,-1.83224 1.47505,-3.30729 3.30729,-3.30729 z"
         id="path1946" />
      <path
         style="fill:none;stroke:#9b4dca;stroke-width:4.75327;stroke-linecap:round;stroke-miterlimit:4;stroke-dasharray:none;stroke-opacity:1;paint-order:fill markers stroke"
         d="m 612.51031,152.13542 h 13.22918 c 1.83224,0 3.30729,1.47505 3.30729,3.30729 0,1.83224 -1.47505,3.30729 -3.30729,3.30729 h -13.22918 c -1.83224,0 -3.30729,-1.47505 -3.30729,-3.30729 0,-1.83224 1.47505,-3.30729 3.30729,-3.30729 z"
         id="path1944" />
      <path
         style="fill:none;stroke:#9b4dca;stroke-width:4.75327;stroke-linecap:round;stroke-miterlimit:4;stroke-dasharray:none;stroke-opacity:1;paint-order:fill markers stroke"
         d="m 637.38141,151.82282 h 3.39115 c 2.00542,0 3.61989,1.61447 3.61989,3.61989 0,2.00542 -1.61447,3.61989 -3.61989,3.61989 h -3.39115 c -2.00542,0 -3.61989,-1.61447 -3.61989,-3.61989 0,-2.00542 1.61447,-3.61989 3.61989,-3.61989 z"
         id="path1942" />
      <path
         style="fill:none;stroke:#9b4dca;stroke-width:4.75327;stroke-linecap:round;stroke-miterlimit:4;stroke-dasharray:none;stroke-opacity:1;paint-order:fill markers stroke"
         d="m 654.84377,152.13542 h 13.22919 c 1.83224,0 3.30729,1.47505 3.30729,3.30729 0,1.83224 -1.47505,3.30729 -3.30729,3.30729 h -13.22919 c -1.83224,0 -3.30729,-1.47505 -3.30729,-3.30729 0,-1.83224 1.47505,-3.30729 3.30729,-3.30729 z"
         id="path1940" />
      <path
         style="fill:none;stroke:#9b4dca;stroke-width:4.75327;stroke-linecap:round;stroke-miterlimit:4;stroke-dasharray:none;stroke-opacity:1;paint-order:fill markers stroke"
         d="m 612.51031,183.88535 h 13.22918 c 1.83224,0 3.30729,1.47506 3.30729,3.3073 0,1.83224 -1.47505,3.30729 -3.30729,3.30729 h -13.22918 c -1.83224,0 -3.30729,-1.47505 -3.30729,-3.30729 0,-1.83224 1.47505,-3.3073 3.30729,-3.3073 z"
         id="path1938" />
      <path
         style="fill:none;stroke:#9b4dca;stroke-width:4.75327;stroke-linecap:round;stroke-miterlimit:4;stroke-dasharray:none;stroke-opacity:1;paint-order:fill markers stroke"
         d="m 637.38141,183.57276 h 3.39115 c 2.00542,0 3.61989,1.61447 3.61989,3.61989 0,2.00542 -1.61447,3.61989 -3.61989,3.61989 h -3.39115 c -2.00542,0 -3.61989,-1.61447 -3.61989,-3.61989 0,-2.00542 1.61447,-3.61989 3.61989,-3.61989 z"
         id="path1936" />
      <path
         style="fill:none;stroke:#9b4dca;stroke-width:4.75327;stroke-linecap:round;stroke-miterlimit:4;stroke-dasharray:none;stroke-opacity:1;paint-order:fill markers stroke"
         d="m 654.84377,183.88535 h 13.22919 c 1.83224,0 3.30729,1.47506 3.30729,3.3073 0,1.83224 -1.47505,3.30729 -3.30729,3.30729 h -13.22919 c -1.83224,0 -3.30729,-1.47505 -3.30729,-3.30729 0,-1.83224 1.47505,-3.3073 3.30729,-3.3073 z"
         id="path1932" />
      <path
         id="path1962"
         d="m 509.98405,232.8334 h 66.14583 c 3.66448,0 6.61459,2.95011 6.61459,6.61458 v 6.61459 c 0,3.66448 -2.95011,6.61458 -6.61459,6.61458 h -66.14583 c -3.66448,0 -6.61458,-2.9501 -6.61458,-6.61458 v -6.61459 c 0,-3.66447 2.9501,-6.61458 6.61458,-6.61458 z"
         style="fill:none;stroke:#9b4dca;stroke-width:4.75327;stroke-linecap:round;stroke-miterlimit:4;stroke-dasharray:none;stroke-opacity:1;paint-order:fill markers stroke" />
      <path
         id="path1964"
         d="m 516.73108,239.44796 h 13.22918 c 1.83224,0 3.30729,1.47506 3.30729,3.3073 0,1.83224 -1.47505,3.30729 -3.30729,3.30729 h -13.22918 c -1.83224,0 -3.30729,-1.47505 -3.30729,-3.30729 0,-1.83224 1.47505,-3.3073 3.30729,-3.3073 z"
         style="fill:none;stroke:#9b4dca;stroke-width:4.75327;stroke-linecap:round;stroke-miterlimit:4;stroke-dasharray:none;stroke-opacity:1;paint-order:fill markers stroke" />
      <path
         id="path1966"
         d="m 541.60218,239.13537 h 3.39115 c 2.00542,0 3.61989,1.61447 3.61989,3.61989 0,2.00542 -1.61447,3.61989 -3.61989,3.61989 h -3.39115 c -2.00542,0 -3.61989,-1.61447 -3.61989,-3.61989 0,-2.00542 1.61447,-3.61989 3.61989,-3.61989 z"
         style="fill:none;stroke:#9b4dca;stroke-width:4.75327;stroke-linecap:round;stroke-miterlimit:4;stroke-dasharray:none;stroke-opacity:1;paint-order:fill markers stroke" />
      <path
         id="path1968"
         d="m 559.06454,239.44796 h 13.22919 c 1.83224,0 3.30729,1.47506 3.30729,3.3073 0,1.83224 -1.47505,3.30729 -3.30729,3.30729 h -13.22919 c -1.83224,0 -3.30729,-1.47505 -3.30729,-3.30729 0,-1.83224 1.47505,-3.3073 3.30729,-3.3073 z"
         style="fill:none;stroke:#9b4dca;stroke-width:4.75327;stroke-linecap:round;stroke-miterlimit:4;stroke-dasharray:none;stroke-opacity:1;paint-order:fill markers stroke" />
      <path
         style="fill:none;stroke:#9b4dca;stroke-width:4.75327;stroke-linecap:round;stroke-miterlimit:4;stroke-dasharray:none;stroke-opacity:1;paint-order:fill markers stroke"
         d="m 605.23411,232.8334 h 66.14583 c 3.66448,0 6.61459,2.95011 6.61459,6.61458 v 6.61459 c 0,3.66448 -2.95011,6.61458 -6.61459,6.61458 h -66.14583 c -3.66448,0 -6.61458,-2.9501 -6.61458,-6.61458 v -6.61459 c 0,-3.66447 2.9501,-6.61458 6.61458,-6.61458 z"
         id="path1970" />
      <path
         style="fill:none;stroke:#9b4dca;stroke-width:4.75327;stroke-linecap:round;stroke-miterlimit:4;stroke-dasharray:none;stroke-opacity:1;paint-order:fill markers stroke"
         d="m 611.98114,239.44796 h 13.22918 c 1.83224,0 3.30729,1.47506 3.30729,3.3073 0,1.83224 -1.47505,3.30729 -3.30729,3.30729 h -13.22918 c -1.83224,0 -3.30729,-1.47505 -3.30729,-3.30729 0,-1.83224 1.47505,-3.3073 3.30729,-3.3073 z"
         id="path1972" />
      <path
         style="fill:none;stroke:#9b4dca;stroke-width:4.75327;stroke-linecap:round;stroke-miterlimit:4;stroke-dasharray:none;stroke-opacity:1;paint-order:fill markers stroke"
         d="m 636.85224,239.13537 h 3.39115 c 2.00542,0 3.61989,1.61447 3.61989,3.61989 0,2.00542 -1.61447,3.61989 -3.61989,3.61989 h -3.39115 c -2.00542,0 -3.61989,-1.61447 -3.61989,-3.61989 0,-2.00542 1.61447,-3.61989 3.61989,-3.61989 z"
         id="path1974" />
      <path
         style="fill:none;stroke:#9b4dca;stroke-width:4.75327;stroke-linecap:round;stroke-miterlimit:4;stroke-dasharray:none;stroke-opacity:1;paint-order:fill markers stroke"
         d="m 654.3146,239.44796 h 13.22919 c 1.83224,0 3.30729,1.47506 3.30729,3.3073 0,1.83224 -1.47505,3.30729 -3.30729,3.30729 H 654.3146 c -1.83224,0 -3.30729,-1.47505 -3.30729,-3.30729 0,-1.83224 1.47505,-3.3073 3.30729,-3.3073 z"
         id="path1976" />
      <path
         id="path1978"
         d="m 703.12999,232.8334 h 66.14583 c 3.66448,0 6.61459,2.95011 6.61459,6.61458 v 6.61459 c 0,3.66448 -2.95011,6.61458 -6.61459,6.61458 h -66.14583 c -3.66448,0 -6.61458,-2.9501 -6.61458,-6.61458 v -6.61459 c 0,-3.66447 2.9501,-6.61458 6.61458,-6.61458 z"
         style="fill:none;stroke:#9b4dca;stroke-width:4.75327;stroke-linecap:round;stroke-miterlimit:4;stroke-dasharray:none;stroke-opacity:1;paint-order:fill markers stroke" />
      <path
         id="path1980"
         d="m 709.87702,239.44796 h 13.22918 c 1.83224,0 3.30729,1.47506 3.30729,3.3073 0,1.83224 -1.47505,3.30729 -3.30729,3.30729 h -13.22918 c -1.83224,0 -3.30729,-1.47505 -3.30729,-3.30729 0,-1.83224 1.47505,-3.3073 3.30729,-3.3073 z"
         style="fill:none;stroke:#9b4dca;stroke-width:4.75327;stroke-linecap:round;stroke-miterlimit:4;stroke-dasharray:none;stroke-opacity:1;paint-order:fill markers stroke" />
      <path
         id="path1982"
         d="m 734.74812,239.13537 h 3.39115 c 2.00542,0 3.61989,1.61447 3.61989,3.61989 0,2.00542 -1.61447,3.61989 -3.61989,3.61989 h -3.39115 c -2.00542,0 -3.61989,-1.61447 -3.61989,-3.61989 0,-2.00542 1.61447,-3.61989 3.61989,-3.61989 z"
         style="fill:none;stroke:#9b4dca;stroke-width:4.75327;stroke-linecap:round;stroke-miterlimit:4;stroke-dasharray:none;stroke-opacity:1;paint-order:fill markers stroke" />
      <path
         id="path1984"
         d="m 752.21048,239.44796 h 13.22919 c 1.83224,0 3.30729,1.47506 3.30729,3.3073 0,1.83224 -1.47505,3.30729 -3.30729,3.30729 h -13.22919 c -1.83224,0 -3.30729,-1.47505 -3.30729,-3.30729 0,-1.83224 1.47505,-3.3073 3.30729,-3.3073 z"
         style="fill:none;stroke:#9b4dca;stroke-width:4.75327;stroke-linecap:round;stroke-miterlimit:4;stroke-dasharray:none;stroke-opacity:1;paint-order:fill markers stroke" />
      <path
         id="path1990"
         style="fill:none;stroke:#9b4dca;stroke-width:4.75327;stroke-linecap:round;stroke-linejoin:miter;stroke-miterlimit:4;stroke-dasharray:none;stroke-dashoffset:0;stroke-opacity:1"
         d="m 640.82086,199.23125 v 5.29167 m 0,0.52917 v 25.5675 m -98.42503,0 v -20.88618 c -0.27775,-4.72964 -0.30501,-4.68132 4.19253,-4.68132 h 188.22788 c 6.74745,-0.56061 6.01711,0.37029 6.01711,6.62589 v 18.94161"
         sodipodi:nodetypes="ccccccsccc" />
    </g>
  </g>
</svg>
