<?xml version="1.0" encoding="UTF-8" standalone="no"?>
<svg
   xmlns:dc="http://purl.org/dc/elements/1.1/"
   xmlns:cc="http://creativecommons.org/ns#"
   xmlns:rdf="http://www.w3.org/1999/02/22-rdf-syntax-ns#"
   xmlns:svg="http://www.w3.org/2000/svg"
   xmlns="http://www.w3.org/2000/svg"
   xmlns:sodipodi="http://sodipodi.sourceforge.net/DTD/sodipodi-0.dtd"
   xmlns:inkscape="http://www.inkscape.org/namespaces/inkscape"
   width="271.69766mm"
   height="166.77985mm"
   viewBox="0 0 271.69766 166.77985"
   version="1.1"
   id="svg14576"
   inkscape:version="1.0 (1.0+r73+1)"
   sodipodi:docname="rendimiento.svg">
  <defs
     id="defs14570" />
  <sodipodi:namedview
     id="base"
     pagecolor="#ffffff"
     bordercolor="#666666"
     borderopacity="1.0"
     inkscape:pageopacity="0.0"
     inkscape:pageshadow="2"
     inkscape:zoom="0.35"
     inkscape:cx="659.15868"
     inkscape:cy="669.46022"
     inkscape:document-units="mm"
     inkscape:current-layer="layer1"
     inkscape:document-rotation="0"
     showgrid="false"
     fit-margin-top="0"
     fit-margin-left="0"
     fit-margin-right="0"
     fit-margin-bottom="0"
     inkscape:window-width="1440"
     inkscape:window-height="843"
     inkscape:window-x="0"
     inkscape:window-y="0"
     inkscape:window-maximized="1" />
  <metadata
     id="metadata14573">
    <rdf:RDF>
      <cc:Work
         rdf:about="">
        <dc:format>image/svg+xml</dc:format>
        <dc:type
           rdf:resource="http://purl.org/dc/dcmitype/StillImage" />
        <dc:title />
      </cc:Work>
    </rdf:RDF>
  </metadata>
  <g
     inkscape:label="Capa 1"
     inkscape:groupmode="layer"
     id="layer1"
     transform="translate(68.569067,28.961349)">
    <path
       id="path3473"
       d="M -64.335639,121.64866 C -61.83104,82.687261 -49.909921,50.203492 -28.024329,22.704262 -17.294945,9.2226034 -6.9720942,0.01224643 6.9310978,-8.4841596 27.794658,-21.234245 43.742872,-25.786349 67.547852,-25.786349 c 23.80486,0 39.753068,4.552104 60.616788,17.3021894 39.15134,23.9258466 65.59285,69.6182246 70.63182,122.0550396 0.63077,6.56762 1.15173,13.9958 1.15713,16.50688 v 4.56573 H 149.02192 98.090822 l -1.38149,-8.07776 c -0.75978,-4.44283 -1.71823,-9.41371 -2.12995,-11.04632 -0.6123,-2.42838 4.83843,-10.53328 29.949168,-44.533558 16.88372,-22.861032 30.69785,-42.191623 30.69785,-42.957459 0,-0.765519 -0.4782,-1.744795 -1.06225,-2.175589 -0.58417,-0.431245 -17.03414,16.281823 -36.5556,37.139774 -35.134998,37.540642 -35.525178,37.903972 -38.662288,36.019793 -8.28355,-4.97501 -20.37405,-3.52298 -28.39278,3.410059 -6.52661,5.64303 -10.59077,13.52153 -12.20504,23.66002 l -1.36311,8.56104 H -14.097773 -65.18085 Z m 34.856287,-2.50782 c 2.544816,-1.62566 3.026569,-6.92267 0.864288,-9.50357 -0.833331,-0.99457 -4.838885,-1.68582 -9.769316,-1.68582 -4.930431,0 -8.935958,0.69125 -9.769289,1.68582 -2.081345,2.48441 -1.717067,7.79669 0.647356,9.44041 2.701263,1.87796 15.11792,1.92125 18.026961,0.0637 z m 211.864542,0 c 2.54495,-1.62566 3.02636,-6.92267 0.86429,-9.50357 -0.8337,-0.99457 -4.83923,-1.68582 -9.76955,-1.68582 -4.93043,0 -8.93588,0.69125 -9.76905,1.68582 -2.08159,2.48441 -1.71718,7.79669 0.64725,9.44041 2.70113,1.87796 15.11805,1.92125 18.02706,0.0637 z M 71.432022,14.9507 c 1.87465,-2.237422 1.87465,-21.0828196 0,-23.3204276 -0.77682,-0.9271 -2.52474,-1.6857924 -3.88417,-1.6857924 -4.18502,0 -5.29661,2.8010374 -5.29661,13.3460334 0,10.5451006 1.11159,13.3460056 5.29661,13.3460056 1.35943,0 3.10735,-0.75856 3.88417,-1.685819 z"
       style="fill:none;fill-opacity:1;stroke:#9b4dca;stroke-width:6.35;stroke-miterlimit:4;stroke-dasharray:none;stroke-opacity:1" />
  </g>
</svg>
