<?xml version="1.0" encoding="UTF-8" standalone="no"?>
<svg
   xmlns:dc="http://purl.org/dc/elements/1.1/"
   xmlns:cc="http://creativecommons.org/ns#"
   xmlns:rdf="http://www.w3.org/1999/02/22-rdf-syntax-ns#"
   xmlns:svg="http://www.w3.org/2000/svg"
   xmlns="http://www.w3.org/2000/svg"
   xmlns:sodipodi="http://sodipodi.sourceforge.net/DTD/sodipodi-0.dtd"
   xmlns:inkscape="http://www.inkscape.org/namespaces/inkscape"
   width="264.32248mm"
   height="264.00784mm"
   viewBox="0 0 264.32248 264.00784"
   version="1.1"
   id="svg7977"
   inkscape:version="1.0 (1.0+r73+1)"
   sodipodi:docname="request.svg">
  <defs
     id="defs7971" />
  <sodipodi:namedview
     id="base"
     pagecolor="#ffffff"
     bordercolor="#666666"
     borderopacity="1.0"
     inkscape:pageopacity="0.0"
     inkscape:pageshadow="2"
     inkscape:zoom="0.35"
     inkscape:cx="396.86335"
     inkscape:cy="554.40481"
     inkscape:document-units="mm"
     inkscape:current-layer="layer1"
     inkscape:document-rotation="0"
     showgrid="false"
     fit-margin-top="0"
     fit-margin-left="0"
     fit-margin-right="0"
     fit-margin-bottom="0"
     inkscape:window-width="1440"
     inkscape:window-height="843"
     inkscape:window-x="0"
     inkscape:window-y="0"
     inkscape:window-maximized="1" />
  <metadata
     id="metadata7974">
    <rdf:RDF>
      <cc:Work
         rdf:about="">
        <dc:format>image/svg+xml</dc:format>
        <dc:type
           rdf:resource="http://purl.org/dc/dcmitype/StillImage" />
        <dc:title />
      </cc:Work>
    </rdf:RDF>
  </metadata>
  <g
     inkscape:label="Capa 1"
     inkscape:groupmode="layer"
     id="layer1"
     transform="translate(-0.82990575,-1.4803947)">
    <path
       id="path982"
       d="m 19.268533,260.53616 c -5.77551,-2.26023 -9.8470773,-5.75733 -12.8449393,-11.03273 -2.319178,-4.08112 -2.418688,-8.108 -2.418688,-97.84391 0,-91.179038 0.06485,-93.702846 2.530687,-98.064211 5.1603803,-9.12831 13.8689023,-12.63986 31.3462723,-12.63986 h 11.886882 v 11.471883 11.47191 h 58.475963 58.47603 V 52.322954 40.746587 l 13.02993,0.39108 c 15.46601,0.464371 21.16215,2.583868 27.01338,10.051521 3.68925,4.708419 3.8273,5.349664 4.2318,19.654941 l 0.41802,14.787748 -7.09203,8.179593 -7.09197,8.17957 V 82.314557 c 0,-23.829298 -1.40137,-27.592943 -10.27372,-27.592943 -2.34344,0 -2.43848,1.203616 -2.43848,30.878063 v 30.878153 l -17.9156,20.45877 c -9.85356,11.25231 -19.00909,22.37891 -20.34553,24.72574 -4.20349,7.38137 -6.23147,16.89809 -6.23147,29.24265 0,13.77619 -1.22007,13.07779 15.89022,9.09603 12.15906,-2.82959 21.06348,-6.3717 25.74213,-10.24009 l 2.86025,-2.36493 v 19.75443 c 0,19.44421 -0.0489,19.79862 -3.12028,22.57024 l -3.12023,2.8158 H 107.60913 36.94098 l -3.120258,-2.8158 -3.120231,-2.81583 V 140.8132 54.721614 h -3.23588 c -1.779667,0 -4.639945,1.267089 -6.356086,2.815828 l -3.120258,2.815828 v 91.19002 91.18998 l 3.067394,3.21876 3.067421,3.21877 80.786878,0.31953 c 88.24141,0.34904 88.35362,0.34169 91.05682,-6.07472 0.72948,-1.73146 1.26616,-16.901 1.27023,-35.9053 l 0.0103,-32.90712 6.98461,-7.89628 6.98457,-7.89628 -0.0289,42.88565 c -0.0241,39.12556 -0.23255,43.29219 -2.36152,47.52196 -2.84789,5.65779 -8.80565,10.36267 -15.12924,11.94755 -3.03657,0.76107 -34.28378,1.17107 -87.35673,1.14638 -70.937309,-0.0344 -83.257446,-0.28437 -87.069378,-1.77617 z m 68.90766,-58.72926 c 10.338541,-9.32989 18.797327,-17.5882 18.797327,-18.35179 0,-2.4157 -9.083097,-10.57254 -11.773195,-10.57254 -1.557761,0 -7.69276,4.54142 -15.494873,11.47011 l -12.916138,11.47004 -4.310407,-4.01331 c -2.370719,-2.20731 -4.768611,-4.01333 -5.328576,-4.01333 -2.346801,0 -11.195235,8.47256 -11.195235,10.71964 0,2.79133 18.566368,20.25458 21.533961,20.25458 1.03939,0 10.348595,-7.63353 20.687136,-16.9634 z m 0.03368,-48.12543 c 10.321237,-9.29875 18.765867,-17.49277 18.765867,-18.209 0,-1.33865 -10.712295,-10.77198 -12.232458,-10.77198 -0.46654,0 -6.77373,5.26201 -14.015905,11.6934 l -13.167519,11.69336 -4.187957,-3.66299 c -2.303304,-2.0147 -4.994566,-3.66306 -5.980563,-3.66306 -2.760689,0 -11.434048,8.20558 -11.434048,10.81736 0,3.07203 17.545897,19.00963 20.927907,19.00963 1.599671,0 9.593077,-6.33736 21.324676,-16.90672 z m 0.07017,-47.13534 c 10.282529,-9.353946 18.695537,-17.465145 18.695537,-18.024871 0,-1.430576 -10.420164,-10.855696 -12.001764,-10.855696 -0.716465,0 -7.141024,5.250868 -14.276863,11.668575 l -12.974216,11.668552 -5.165989,-4.2118 c -2.841308,-2.316506 -5.448697,-4.211796 -5.794269,-4.211796 -2.050362,0 -10.805346,8.685586 -10.805346,10.719646 0,2.84689 18.594811,20.25457 21.635826,20.25457 1.095349,0 10.404555,-7.65325 20.687084,-17.00718 z m 60.653027,82.11035 c 0.0143,-7.13978 2.52436,-17.52897 5.47605,-22.66381 2.91285,-5.06725 74.27151,-87.516264 78.18364,-90.334712 1.09474,-0.78867 3.49199,-1.433989 5.32725,-1.433989 2.2157,0 4.66024,-1.349004 7.27586,-4.015158 4.71405,-4.805148 8.76516,-5.165722 13.50451,-1.201973 4.14663,3.468024 4.37748,8.110641 0.58452,11.754086 -2.07253,1.990937 -2.71703,3.905514 -2.53492,7.530703 0.23781,4.739402 -0.64931,5.880338 -35.45242,45.586413 -19.63311,22.39897 -37.79898,42.70362 -40.36859,45.12152 -5.98739,5.63377 -13.6866,9.72129 -22.13356,11.75049 -9.39475,2.25697 -9.87076,2.15593 -9.86234,-2.09357 z M 60.132503,46.702516 c 0.442013,-8.784643 0.654394,-9.340717 5.09778,-13.350584 3.812223,-3.440244 5.788104,-4.284001 11.114299,-4.745857 5.614644,-0.486834 6.477794,-0.894345 6.477794,-3.058451 0,-1.373267 1.485397,-5.186812 3.300915,-8.474631 10.827385,-19.6079574 43.451379,-15.0213754 47.475819,6.674565 0.70652,3.808888 1.05307,4.047225 6.74688,4.639733 11.39568,1.185809 17.47816,8.248173 17.47816,20.293806 v 7.18783 h -49.0784 -49.076506 z"
       style="fill:none;stroke:#9b4dca;stroke-width:6.35;stroke-miterlimit:4;stroke-dasharray:none;stroke-opacity:1" />
  </g>
</svg>
