<?xml version="1.0" encoding="UTF-8" standalone="no"?>
<svg
   xmlns:dc="http://purl.org/dc/elements/1.1/"
   xmlns:cc="http://creativecommons.org/ns#"
   xmlns:rdf="http://www.w3.org/1999/02/22-rdf-syntax-ns#"
   xmlns:svg="http://www.w3.org/2000/svg"
   xmlns="http://www.w3.org/2000/svg"
   xmlns:sodipodi="http://sodipodi.sourceforge.net/DTD/sodipodi-0.dtd"
   xmlns:inkscape="http://www.inkscape.org/namespaces/inkscape"
   width="425.89957mm"
   height="261.19916mm"
   viewBox="0 0 425.89957 261.19916"
   version="1.1"
   id="svg6743"
   inkscape:version="1.0 (1.0+r73+1)"
   sodipodi:docname="responsive.svg">
  <defs
     id="defs6737" />
  <sodipodi:namedview
     id="base"
     pagecolor="#ffffff"
     bordercolor="#666666"
     borderopacity="1.0"
     inkscape:pageopacity="0.0"
     inkscape:pageshadow="2"
     inkscape:zoom="0.35"
     inkscape:cx="639.1353"
     inkscape:cy="922.17612"
     inkscape:document-units="mm"
     inkscape:current-layer="layer1"
     inkscape:document-rotation="0"
     showgrid="false"
     fit-margin-top="0"
     fit-margin-left="0"
     fit-margin-right="0"
     fit-margin-bottom="0"
     inkscape:window-width="1440"
     inkscape:window-height="843"
     inkscape:window-x="0"
     inkscape:window-y="0"
     inkscape:window-maximized="1" />
  <metadata
     id="metadata6740">
    <rdf:RDF>
      <cc:Work
         rdf:about="">
        <dc:format>image/svg+xml</dc:format>
        <dc:type
           rdf:resource="http://purl.org/dc/dcmitype/StillImage" />
        <dc:title />
      </cc:Work>
    </rdf:RDF>
  </metadata>
  <g
     inkscape:label="Capa 1"
     inkscape:groupmode="layer"
     id="layer1"
     transform="translate(63.271214,95.825766)">
    <path
       d="m 237.11848,-64.474439 c -15.14541,0 -28.00612,9.603422 -30.64309,21.991452 V 139.24386 c 0,0.0611 0.008,0.12059 0.008,0.18115 2.64882,12.37594 15.50199,21.96595 30.63722,21.96595 h 90.37743 c 17.00771,0 31.14789,-12.10728 31.14789,-26.67246 V -37.802058 c 0,-14.565021 -14.14005,-26.672302 -31.14776,-26.672302 z m 0,24.458824 h 90.37746 c 1.68013,0 2.5873,0.7747 2.5873,2.213504 V 134.71845 c 0,1.43887 -0.90717,2.21548 -2.5873,2.21548 h -90.37746 c -1.68016,0 -2.58541,-0.77655 -2.58541,-2.21548 V -37.802111 c 0,-1.438936 0.90525,-2.213504 2.58541,-2.213504 z m 43.6277,181.319525 a 7.8966983,7.7886438 0 0 1 7.89575,7.78765 7.8966983,7.7886438 0 0 1 -7.89575,7.78957 7.8966983,7.7886438 0 0 1 -7.89768,-7.78957 7.8966983,7.7886438 0 0 1 7.89768,-7.78765 z M -39.962527,-24.178935 c -9.552364,0 -17.663062,7.835903 -19.326257,17.943719 V 142.04325 c 0,0.0518 0.0043,0.0952 0.0043,0.14699 1.670637,10.09799 9.776376,17.92235 19.322278,17.92235 H 17.03909 c 10.726889,0 19.645461,-9.87887 19.645461,-21.76303 V -2.416135 c 0,-11.884131 -8.918572,-21.763014 -19.645461,-21.763014 z m 0,19.957651 h 57.001304 c 1.059696,0 1.631836,0.631394 1.631836,1.805363 V 138.34977 c 0,1.17394 -0.57214,1.80795 -1.631836,1.80795 h -57.001304 c -1.059696,0 -1.629823,-0.63386 -1.629823,-1.80795 V -2.415921 c 0,-1.174012 0.570127,-1.805363 1.629823,-1.805363 z m 28.129616,147.481474 a 5.1068605,6.8469158 0 0 1 5.1068529,6.84693 5.1068605,6.8469158 0 0 1 -5.1068529,6.84694 5.1068605,6.8469158 0 0 1 -5.106853,-6.84694 5.1068605,6.8469158 0 0 1 5.106853,-6.84693 z M 41.147207,-91.843336 c -17.00767,0 -31.145871,18.958057 -31.145871,41.760828 v 25.903274 h 7.037912 c 1.340866,0 2.653411,0.153205 3.9239,0.446657 1.270445,0.293449 2.498278,0.727826 3.670536,1.28375 1.1723,0.555924 2.289069,1.23425 3.335417,2.022017 1.046347,0.787723 2.021887,1.683044 2.914515,2.671893 0.892627,0.988803 1.702638,2.071772 2.41378,3.230895 0.711142,1.159124 1.323454,2.394959 1.8253,3.693512 0.501891,1.298726 0.892201,2.660597 1.157028,4.068078 0.264827,1.407437 0.404984,2.860608 0.404984,4.346254 V 112.17603 h 66.052042 c -0.40871,0.70891 -0.66027,1.59011 -0.66027,2.5595 v 7.88475 h -7.762063 c -2.97668,0 -5.3722,3.21163 -5.3722,7.20255 v 6.42434 c 0,3.99092 2.39552,7.20266 5.3722,7.20266 h 91.390863 c 2.97668,0 5.37416,-3.21174 5.37416,-7.20266 v -6.42434 c 0,-3.99092 -2.39748,-7.20255 -5.37416,-7.20255 h -8.84323 v -7.88475 c 0,-0.96981 -0.25323,-1.85044 -0.66228,-2.5595 h 30.27609 V 74.555365 H 41.147207 c -1.68022,0 -2.58735,-1.21358 -2.58735,-3.46622 V -50.082508 c 0,-2.252689 0.90717,-3.468979 2.58735,-3.468979 H 212.23301 c 0.38026,-0.437329 0.69334,-0.917919 1.10321,-1.334584 1.1485,-1.16758 2.41078,-2.251578 3.77031,-3.238924 1.35948,-0.987319 2.81734,-1.878012 4.35676,-2.658507 1.53943,-0.780441 3.16116,-1.450948 4.84952,-1.997895 1.68836,-0.546973 3.44221,-0.97028 5.24846,-1.257062 1.80631,-0.286729 3.66456,-0.435769 5.55776,-0.435769 h 34.56107 c -4.45146,-15.833698 -15.84889,-27.366277 -29.0812,-27.36633 z M 139.13566,82.517315 a 13.155057,13.53389 0 0 1 0.0158,0 13.155057,13.53389 0 0 1 13.15509,13.53389 13.155057,13.53389 0 0 1 -13.15509,13.533925 13.155057,13.53389 0 0 1 -13.15504,-13.533925 13.155057,13.53389 0 0 1 13.14067,-13.53389 z"
       style="fill:none;fill-opacity:1;stroke:#9b4dca;stroke-width:7.96486;stroke-linecap:round;stroke-miterlimit:4;stroke-dasharray:none;stroke-opacity:1;paint-order:fill markers stroke"
       id="path2168" />
  </g>
</svg>
