<?xml version="1.0" encoding="UTF-8" standalone="no"?>
<svg
   xmlns:dc="http://purl.org/dc/elements/1.1/"
   xmlns:cc="http://creativecommons.org/ns#"
   xmlns:rdf="http://www.w3.org/1999/02/22-rdf-syntax-ns#"
   xmlns:svg="http://www.w3.org/2000/svg"
   xmlns="http://www.w3.org/2000/svg"
   xmlns:sodipodi="http://sodipodi.sourceforge.net/DTD/sodipodi-0.dtd"
   xmlns:inkscape="http://www.inkscape.org/namespaces/inkscape"
   sodipodi:docname="rocket.svg"
   inkscape:version="1.0 (1.0+r73+1)"
   id="svg4413"
   version="1.1"
   viewBox="0 0 46.290295 46.168488"
   height="46.168488mm"
   width="46.290295mm">
  <defs
     id="defs4407" />
  <sodipodi:namedview
     inkscape:window-maximized="1"
     inkscape:window-y="0"
     inkscape:window-x="0"
     inkscape:window-height="843"
     inkscape:window-width="1440"
     fit-margin-bottom="0"
     fit-margin-right="0"
     fit-margin-left="0"
     fit-margin-top="0"
     showgrid="false"
     inkscape:document-rotation="0"
     inkscape:current-layer="layer1"
     inkscape:document-units="mm"
     inkscape:cy="41.544943"
     inkscape:cx="-146.81102"
     inkscape:zoom="0.35"
     inkscape:pageshadow="2"
     inkscape:pageopacity="0.0"
     borderopacity="1.0"
     bordercolor="#666666"
     pagecolor="#ffffff"
     id="base" />
  <metadata
     id="metadata4410">
    <rdf:RDF>
      <cc:Work
         rdf:about="">
        <dc:format>image/svg+xml</dc:format>
        <dc:type
           rdf:resource="http://purl.org/dc/dcmitype/StillImage" />
        <dc:title></dc:title>
      </cc:Work>
    </rdf:RDF>
  </metadata>
  <g
     transform="translate(-144.67708,-137.17457)"
     id="layer1"
     inkscape:groupmode="layer"
     inkscape:label="Capa 1">
    <path
       style="fill:none;fill-opacity:1;stroke:#777777;stroke-width:1.365;stroke-miterlimit:4;stroke-dasharray:none;stroke-opacity:1"
       d="m 145.91912,182.30043 c -0.90709,-0.9071 -0.43932,-1.54977 5.30716,-7.29158 5.74099,-5.73634 6.38479,-6.20481 7.28701,-5.30259 0.90709,0.90709 0.43932,1.54977 -5.30715,7.29158 -5.741,5.73634 -6.38479,6.20481 -7.28702,5.30259 z m 11.90625,0 c -0.84189,-0.8419 -0.3711,-1.60607 3.18456,-5.16906 3.56074,-3.56809 4.32729,-4.04076 5.17628,-3.19178 0.84898,0.84899 0.37631,1.61554 -3.19178,5.17628 -3.56299,3.55566 -4.32716,4.02645 -5.16906,3.18456 z m 12.88807,-8.55083 c -1.33659,-2.32167 -2.07308,-3.3437 -2.46294,-3.41785 -0.30589,-0.0582 -1.54448,-0.28562 -2.75242,-0.50543 -4.15448,-0.75598 -6.34666,-2.94307 -7.10081,-7.08434 -0.22203,-1.21922 -0.45317,-2.47456 -0.51366,-2.78965 -0.0785,-0.40867 -1.00128,-1.08328 -3.21942,-2.35347 -1.71019,-0.97932 -3.19692,-1.91215 -3.30383,-2.07295 -0.62341,-0.93763 -0.18074,-1.66601 2.7996,-4.60647 l 3.00208,-2.96193 h 5.24999 5.24999 l 4.38178,-4.31637 c 4.67386,-4.6041 5.7974,-5.36986 8.3961,-5.72252 1.80878,-0.24545 8.53332,0.38043 8.9896,0.8367 0.46897,0.46897 0.96251,5.25397 0.83453,8.09102 -0.15521,3.44096 -0.59349,4.16012 -5.68561,9.32941 l -4.31638,4.38178 v 5.24999 5.24999 l -2.96193,3.00209 c -2.5669,2.6017 -3.07648,3.00208 -3.82091,3.00208 -0.82163,0 -0.9419,-0.14403 -2.76576,-3.31208 z m 6.63818,-9.12877 v -5.12244 l 4.4621,-4.51367 c 2.67037,-2.70123 4.70459,-4.99159 5.06599,-5.70388 0.67125,-1.32294 0.77897,-2.84622 0.43361,-6.13134 l -0.21339,-2.02988 -2.02988,-0.19995 c -5.54392,-0.54609 -5.92195,-0.37152 -11.80553,5.45159 l -4.54336,4.49667 h -5.13698 -5.13699 l -1.77774,1.76412 -1.77775,1.76413 2.68068,1.54875 c 1.47438,0.85181 2.73233,1.60039 2.79545,1.66351 0.0631,0.0631 0.32493,1.40965 0.5818,2.9923 0.25688,1.58265 0.64782,3.22513 0.86876,3.64997 0.92277,1.77436 2.36058,2.54396 5.61136,3.00355 3.32186,0.46963 3.17348,0.38829 4.25449,2.33215 0.54649,0.9827 1.2678,2.22527 1.6029,2.76128 l 0.60928,0.97455 1.7276,-1.78948 1.7276,-1.78949 z m 1.19063,-12.80348 c -1.45943,-0.64865 -2.51354,-2.23956 -2.51354,-3.79353 0,-1.212 0.97956,-2.83501 2.08656,-3.45719 2.67955,-1.50598 5.76402,0.0904 6.05653,3.13467 0.29309,3.05021 -2.85268,5.35024 -5.62955,4.11605 z m 2.46062,-2.85442 c 0.74216,-0.74216 0.18302,-2.06375 -0.87312,-2.06375 -0.3056,0 -0.6985,0.14287 -0.87313,0.3175 -0.17462,0.17462 -0.3175,0.56753 -0.3175,0.87312 0,0.3056 0.14288,0.6985 0.3175,0.87313 0.17463,0.17462 0.56753,0.3175 0.87313,0.3175 0.30559,0 0.6985,-0.14288 0.87312,-0.3175 z m -35.07779,21.33687 c -1.13743,-0.79669 -0.77694,-1.40973 3.07118,-5.22272 2.01257,-1.9942 3.85804,-3.62582 4.10104,-3.62582 0.57502,0 1.50016,0.93176 1.50016,1.51091 0,0.55423 -7.14061,7.74951 -7.69064,7.74951 -0.21654,0 -0.65832,-0.18535 -0.98174,-0.41188 z"
       id="path4396" />
  </g>
</svg>
