<?xml version="1.0" encoding="UTF-8" standalone="no"?>
<svg
   xmlns:dc="http://purl.org/dc/elements/1.1/"
   xmlns:cc="http://creativecommons.org/ns#"
   xmlns:rdf="http://www.w3.org/1999/02/22-rdf-syntax-ns#"
   xmlns:svg="http://www.w3.org/2000/svg"
   xmlns="http://www.w3.org/2000/svg"
   xmlns:sodipodi="http://sodipodi.sourceforge.net/DTD/sodipodi-0.dtd"
   xmlns:inkscape="http://www.inkscape.org/namespaces/inkscape"
   width="263.09821mm"
   height="262.81641mm"
   viewBox="0 0 263.09821 262.81641"
   version="1.1"
   id="svg12482"
   inkscape:version="1.0 (1.0+r73+1)"
   sodipodi:docname="server.svg">
  <defs
     id="defs12476" />
  <sodipodi:namedview
     id="base"
     pagecolor="#ffffff"
     bordercolor="#666666"
     borderopacity="1.0"
     inkscape:pageopacity="0.0"
     inkscape:pageshadow="2"
     inkscape:zoom="0.35"
     inkscape:cx="463.83529"
     inkscape:cy="514.32543"
     inkscape:document-units="mm"
     inkscape:current-layer="layer1"
     inkscape:document-rotation="0"
     showgrid="false"
     fit-margin-top="0"
     fit-margin-left="0"
     fit-margin-right="0"
     fit-margin-bottom="0"
     inkscape:window-width="1440"
     inkscape:window-height="843"
     inkscape:window-x="0"
     inkscape:window-y="0"
     inkscape:window-maximized="1" />
  <metadata
     id="metadata12479">
    <rdf:RDF>
      <cc:Work
         rdf:about="">
        <dc:format>image/svg+xml</dc:format>
        <dc:type
           rdf:resource="http://purl.org/dc/dcmitype/StillImage" />
        <dc:title />
      </cc:Work>
    </rdf:RDF>
  </metadata>
  <g
     inkscape:label="Capa 1"
     inkscape:groupmode="layer"
     id="layer1"
     transform="translate(16.889755,-12.08473)">
    <path
       id="path1068"
       style="fill:none;stroke:#9b4dca;stroke-width:6.35;stroke-linecap:round;stroke-miterlimit:4;stroke-dasharray:none;stroke-opacity:1;paint-order:fill markers stroke"
       d="m 166.43781,231.01705 h 42.79143 c 5.92662,0 10.69782,4.53906 10.69782,10.17728 0,5.63819 -4.7712,10.17725 -10.69782,10.17725 h -42.79143 c -5.92661,0 -10.69785,-4.53906 -10.69785,-10.17725 0,-5.63822 4.77124,-10.17728 10.69785,-10.17728 z m -56.48418,-0.96192 h 10.9691 c 6.48679,0 11.70898,4.96808 11.70898,11.1392 0,6.17111 -5.22219,11.13917 -11.70898,11.13917 h -10.9691 c -6.48676,0 -11.708947,-4.96806 -11.708947,-11.13917 0,-6.17112 5.222187,-11.1392 11.708947,-11.1392 z m -80.448592,0.96192 h 42.791405 c 5.92659,0 10.69782,4.53906 10.69782,10.17728 0,5.63819 -4.77123,10.17725 -10.69782,10.17725 H 29.505038 c -5.926613,0 -10.697845,-4.53906 -10.697845,-10.17725 0,-5.63822 4.771232,-10.17728 10.697845,-10.17728 z M 166.43781,133.31563 h 42.79143 c 5.92662,0 10.69782,4.53905 10.69782,10.17724 0,5.63821 -4.7712,10.17725 -10.69782,10.17725 h -42.79143 c -5.92661,0 -10.69785,-4.53904 -10.69785,-10.17725 0,-5.63819 4.77124,-10.17724 10.69785,-10.17724 z m -56.48418,-0.96194 h 10.9691 c 6.48679,0 11.70898,4.96807 11.70898,11.13918 0,6.17112 -5.22219,11.13918 -11.70898,11.13918 h -10.9691 c -6.48676,0 -11.708947,-4.96806 -11.708947,-11.13918 0,-6.17111 5.222187,-11.13918 11.708947,-11.13918 z m -80.448592,0.96194 h 42.791405 c 5.92659,0 10.69782,4.53905 10.69782,10.17724 0,5.63821 -4.77123,10.17725 -10.69782,10.17725 H 29.505038 c -5.926613,0 -10.697845,-4.53904 -10.697845,-10.17725 0,-5.63819 4.771232,-10.17724 10.697845,-10.17724 z M 166.43781,35.614177 h 42.79143 c 5.92662,0 10.69782,4.539052 10.69782,10.177246 0,5.638202 -4.7712,10.177245 -10.69782,10.177245 h -42.79143 c -5.92661,0 -10.69785,-4.539043 -10.69785,-10.177245 0,-5.638194 4.77124,-10.177246 10.69785,-10.177246 z m -56.48418,-0.961932 h 10.9691 c 6.48679,0 11.70898,4.968102 11.70898,11.139178 0,6.171112 -5.22219,11.139188 -11.70898,11.139188 h -10.9691 c -6.48676,0 -11.708947,-4.968076 -11.708947,-11.139188 0,-6.171076 5.222187,-11.139178 11.708947,-11.139178 z m -80.448592,0.961932 h 42.791405 c 5.92659,0 10.69782,4.539052 10.69782,10.177246 0,5.638202 -4.77123,10.177245 -10.69782,10.177245 H 29.505038 c -5.926613,0 -10.697845,-4.539043 -10.697845,-10.177245 0,-5.638194 4.771232,-10.177246 10.697845,-10.177246 z M 22.231272,170.7728 H 206.23154 c 8.05865,0 14.54634,6.17198 14.54634,13.83849 v 13.83851 c 0,7.66654 -6.48769,13.83851 -14.54634,13.83851 H 22.231272 c -8.058679,0 -14.5463684,-6.17197 -14.5463684,-13.83851 v -13.83851 c 0,-7.66651 6.4876894,-13.83849 14.5463684,-13.83849 z m 0,-97.701446 H 206.23154 c 8.05865,0 14.54634,6.171972 14.54634,13.838489 v 13.838527 c 0,7.6665 -6.48769,13.83848 -14.54634,13.83848 H 22.231272 c -8.058679,0 -14.5463684,-6.17198 -14.5463684,-13.83848 V 86.909843 c 0,-7.666517 6.4876894,-13.838489 14.5463684,-13.838489 z M 7.6809346,210.6626 H 221.63775 c 11.8532,0 21.39569,9.07814 21.39569,20.3545 v 20.35453 c 0,11.27641 -9.54249,20.3545 -21.39569,20.3545 H 7.6809346 c -11.853201,0 -21.3956896,-9.07809 -21.3956896,-20.3545 V 231.0171 c 0,-11.27636 9.5424886,-20.3545 21.3956896,-20.3545 z m 0,-97.70144 H 221.63775 c 11.8532,0 21.39569,9.07813 21.39569,20.35453 v 20.3545 c 0,11.27639 -9.54249,20.35449 -21.39569,20.35449 H 7.6809346 c -11.853201,0 -21.3956896,-9.0781 -21.3956896,-20.35449 v -20.3545 c 0,-11.2764 9.5424886,-20.35453 21.3956896,-20.35453 z m 0,-97.70143 H 221.63775 c 11.8532,0 21.39569,9.078115 21.39569,20.354506 v 20.354499 c 0,11.276396 -9.54249,20.354499 -21.39569,20.354499 H 7.6809346 c -11.853201,0 -21.3956896,-9.078103 -21.3956896,-20.354499 V 35.614236 c 0,-11.276391 9.5424886,-20.354506 21.3956896,-20.354506 z" />
  </g>
</svg>
