<?xml version="1.0" encoding="UTF-8" standalone="no"?>
<svg
   xmlns:dc="http://purl.org/dc/elements/1.1/"
   xmlns:cc="http://creativecommons.org/ns#"
   xmlns:rdf="http://www.w3.org/1999/02/22-rdf-syntax-ns#"
   xmlns:svg="http://www.w3.org/2000/svg"
   xmlns="http://www.w3.org/2000/svg"
   xmlns:sodipodi="http://sodipodi.sourceforge.net/DTD/sodipodi-0.dtd"
   xmlns:inkscape="http://www.inkscape.org/namespaces/inkscape"
   width="261.30435mm"
   height="267.83554mm"
   viewBox="0 0 261.30435 267.83554"
   version="1.1"
   id="svg18856"
   inkscape:version="1.0 (1.0+r73+1)"
   sodipodi:docname="touch.svg">
  <defs
     id="defs18850" />
  <sodipodi:namedview
     id="base"
     pagecolor="#ffffff"
     bordercolor="#666666"
     borderopacity="1.0"
     inkscape:pageopacity="0.0"
     inkscape:pageshadow="2"
     inkscape:zoom="0.35"
     inkscape:cx="553.47518"
     inkscape:cy="560.76735"
     inkscape:document-units="mm"
     inkscape:current-layer="layer1"
     inkscape:document-rotation="0"
     showgrid="false"
     fit-margin-top="0"
     fit-margin-left="0"
     fit-margin-right="0"
     fit-margin-bottom="0"
     inkscape:window-width="1440"
     inkscape:window-height="843"
     inkscape:window-x="0"
     inkscape:window-y="0"
     inkscape:window-maximized="1" />
  <metadata
     id="metadata18853">
    <rdf:RDF>
      <cc:Work
         rdf:about="">
        <dc:format>image/svg+xml</dc:format>
        <dc:type
           rdf:resource="http://purl.org/dc/dcmitype/StillImage" />
        <dc:title />
      </cc:Work>
    </rdf:RDF>
  </metadata>
  <g
     inkscape:label="Capa 1"
     inkscape:groupmode="layer"
     id="layer1"
     transform="translate(40.606975,0.20302709)">
    <path
       d="m 136.87397,83.010816 c 1.24169,-0.936837 7.28295,0.687599 13.42475,3.609287 7.76192,3.69234 14.18735,4.765966 21.07236,3.521022 20.19372,-3.651541 32.86245,12.858085 16.9893,22.140205 -11.05821,6.46652 -23.66741,3.53755 -26.85632,-6.23806 -1.82793,-5.60361 -5.79239,-9.191941 -14.13979,-12.797683 -12.0841,-5.219938 -14.28837,-7.370471 -10.4903,-10.234771 z M 65.860405,252.76925 c 0,-10.25993 -1.98078,-13.68565 -16.21401,-28.04128 -19.526038,-19.69384 -20.906713,-22.96541 -20.906713,-49.54013 0,-17.38442 1.050422,-21.64091 6.438,-26.07268 5.138711,-4.2277 8.884206,-5.05216 18.560309,-4.08591 l 12.122414,1.21063 V 104.58587 62.931853 l 8.73694,-5.11683 c 10.21982,-5.98519 22.09324,-4.93165 30.804695,2.73341 4.7544,4.18343 5.64877,9.969631 5.64877,36.547344 v 31.577013 l 12.91152,0.41873 c 7.10131,0.22979 14.72721,0.48321 16.94638,0.56317 2.21916,0.0817 10.10663,-0.48596 17.52769,-1.25603 11.34126,-1.177 14.15965,-0.60495 17.67409,3.58441 3.42487,4.08308 6.32076,4.72999 16.0094,3.57651 9.50212,-1.13133 13.24531,-0.35335 19.03439,3.957 6.95709,5.17978 7.14669,6.53844 5.48799,39.3178 -1.1236,22.19417 -3.64836,38.53029 -7.29199,47.1706 -3.0657,7.26983 -6.24023,18.95137 -7.0547,25.95878 -0.94916,8.16716 -2.81855,12.41438 -5.20715,11.83132 -6.64004,-1.62089 -5.82729,-14.70578 2.37299,-38.20401 4.53861,-13.00552 8.99644,-34.41279 10.25851,-49.26237 1.94931,-22.93472 1.53632,-26.77983 -3.25869,-30.34988 -7.37264,-5.48915 -16.9404,-5.16443 -21.16913,0.71847 -5.31659,7.39627 -12.91151,6.03242 -12.91151,-2.31875 0,-9.33143 -9.1327,-13.32241 -18.8682,-8.24537 -3.82516,1.99477 -6.95492,5.72852 -6.95492,8.29715 0,2.56862 -2.17876,4.67021 -4.84177,4.67021 -2.99421,0 -4.84187,-2.26036 -4.84187,-5.9236 0,-3.25797 -2.54196,-6.91531 -5.6488,-8.12739 -8.10232,-3.16103 -20.17423,0.88654 -20.17423,6.76381 0,2.73912 -2.1263,4.88394 -4.84187,4.88394 -4.10733,0 -4.84176,-5.98908 -4.84176,-39.48221 0,-32.688526 -0.87228,-40.131916 -5.072465,-43.258737 -7.0131,-5.22147 -13.03729,-4.72416 -18.95375,1.56477 -4.17443,4.437331 -5.02475,14.198762 -5.02475,57.678327 0,33.28918 -1.17486,52.33701 -3.22797,52.33701 -1.77533,0 -3.22784,-3.31546 -3.22784,-7.36774 0,-4.05228 -1.50365,-9.4597 -3.34145,-12.01635 -4.250186,-5.91269 -18.008122,-6.06549 -22.190841,-0.24614 -4.467595,6.21517 -5.937303,45.8289 -1.779111,47.95592 1.844384,0.94347 10.196539,8.27161 18.560283,16.28462 14.377189,13.77432 15.206929,15.38042 15.206929,29.44003 0,8.31165 -1.42373,14.87072 -3.22797,14.87072 -1.77533,0 -3.22784,-5.25944 -3.22784,-11.68781 z M 0.63164507,141.2899 C -13.468005,133.03781 -5.4293749,117.19789 12.795305,117.32169 c 6.223162,0.0454 13.003004,-2.42848 19.700375,-7.17955 14.546765,-10.319219 21.003313,-6.22972 7.066651,4.47593 -7.040563,5.40824 -10.895119,10.82908 -11.230478,15.79404 -0.791766,11.71615 -16.037848,17.70335 -27.70020793,10.87779 z M 17.576567,133.35862 c 3.430482,-3.07756 3.21855,-4.42106 -1.218777,-7.72473 -5.010125,-3.73017 -5.732965,-3.73017 -10.7430849,0 -4.43723,3.30367 -4.64926003,4.64717 -1.21878,7.72473 2.28394,2.04909 5.2496,3.72557 6.5901399,3.72557 1.34064,0 4.306195,-1.67648 6.590237,-3.72557 z M -30.169135,84.137491 c -5.59073,-1.673119 -7.26284,-4.108423 -7.26284,-10.57783 0,-12.981248 18.88823,-18.262148 30.6648901,-8.573378 4.13478,3.401673 9.9418,4.806479 19.8676199,4.806479 10.315016,0 14.025241,0.953743 14.025241,3.604948 0,2.617046 -3.619579,3.604842 -13.209429,3.604842 -8.3216519,0 -16.2461019,1.778476 -21.4165119,4.806553 -8.9998601,5.270711 -11.8565901,5.564187 -22.6689701,2.328386 z m 16.94635,-10.70692 c 0,-5.498783 -10.83641,-8.081858 -14.64704,-3.491389 -3.9923,4.809543 0.32207,9.786779 7.7951,8.992923 4.3561,-0.463259 6.85194,-2.466657 6.85194,-5.501534 z m 45.19033,-37.283448 c -6.627098,-5.15016 -12.311141,-7.20979 -19.8968,-7.20979 -7.6036999,0 -12.03969993,-1.61406 -15.6212099,-5.6838 -9.5697201,-10.87395 4.16649997,-23.52656959 21.1775409,-19.5067996 7.150946,1.68984 13.551482,11.1805996 10.947426,16.2330296 -0.87839,1.70529 3.463052,6.75264 9.64864,11.2163 6.185588,4.46375 10.491179,9.02599 9.567757,10.13841 -2.830724,3.4101 -6.167755,2.31621 -15.823354,-5.18735 z m -14.390978,-15.7418 c 3.430482,-3.07758 3.21855,-4.42117 -1.218777,-7.72481 -5.010125,-3.7301996 -5.732965,-3.7301996 -10.7430849,0 -4.43723,3.30364 -4.64926003,4.64723 -1.21878,7.72481 2.28394,2.04898 5.2496,3.72546 6.5901399,3.72546 1.34064,0 4.306195,-1.67648 6.590237,-3.72546 z m 111.532883,20.91605 c -0.92961,-1.11951 2.61628,-5.10701 7.87919,-8.861 6.65112,-4.74435 9.56884,-9.13972 9.56884,-14.41487 0,-15.4719596 24.53812,-20.7412996 32.90676,-7.06636 5.83007,9.52672 -0.96869,17.95819 -14.48017,17.95819 -7.74523,0 -13.36424,2.02147 -20.04049,7.20979 -9.665,7.51092 -12.99203,8.59809 -15.83413,5.17425 z m 42.63483,-25.30705 c -0.62098,-3.24327 -3.31301,-5.10149 -7.38913,-5.10149 -7.38568,0 -10.85508,8.06805 -4.68936,10.9052 6.45969,2.97238 13.14473,-0.23979 12.07849,-5.80371 z"
       style="fill:none;stroke:#9b4dca;stroke-width:6.35;stroke-miterlimit:4;stroke-dasharray:none;stroke-opacity:1"
       id="path16603" />
  </g>
</svg>
