<?xml version="1.0" encoding="UTF-8" standalone="no"?>
<svg
   xmlns:dc="http://purl.org/dc/elements/1.1/"
   xmlns:cc="http://creativecommons.org/ns#"
   xmlns:rdf="http://www.w3.org/1999/02/22-rdf-syntax-ns#"
   xmlns:svg="http://www.w3.org/2000/svg"
   xmlns="http://www.w3.org/2000/svg"
   xmlns:sodipodi="http://sodipodi.sourceforge.net/DTD/sodipodi-0.dtd"
   xmlns:inkscape="http://www.inkscape.org/namespaces/inkscape"
   width="264.23737mm"
   height="263.95557mm"
   viewBox="0 0 264.23737 263.95557"
   version="1.1"
   id="svg8609"
   inkscape:version="1.0 (1.0+r73+1)"
   sodipodi:docname="wireframe.svg">
  <defs
     id="defs8603" />
  <sodipodi:namedview
     id="base"
     pagecolor="#ffffff"
     bordercolor="#666666"
     borderopacity="1.0"
     inkscape:pageopacity="0.0"
     inkscape:pageshadow="2"
     inkscape:zoom="0.35"
     inkscape:cx="401.94053"
     inkscape:cy="546.91332"
     inkscape:document-units="mm"
     inkscape:current-layer="layer1"
     inkscape:document-rotation="0"
     showgrid="false"
     fit-margin-top="0"
     fit-margin-left="0"
     fit-margin-right="0"
     fit-margin-bottom="0"
     inkscape:window-width="1440"
     inkscape:window-height="843"
     inkscape:window-x="0"
     inkscape:window-y="0"
     inkscape:window-maximized="1" />
  <metadata
     id="metadata8606">
    <rdf:RDF>
      <cc:Work
         rdf:about="">
        <dc:format>image/svg+xml</dc:format>
        <dc:type
           rdf:resource="http://purl.org/dc/dcmitype/StillImage" />
        <dc:title />
      </cc:Work>
    </rdf:RDF>
  </metadata>
  <g
     inkscape:label="Capa 1"
     inkscape:groupmode="layer"
     id="layer1"
     transform="translate(0.51343285,-3.4625173)">
    <path
       d="m 34.890331,230.75354 h 28.147406 c 3.567854,0 6.440144,2.87229 6.440144,6.44011 0,3.56786 -2.87229,6.44015 -6.440144,6.44015 H 34.890331 c -3.567854,0 -6.440144,-2.87229 -6.440144,-6.44015 0,-3.56782 2.87229,-6.44011 6.440144,-6.44011 z m 0,-25.76052 h 28.147406 c 3.567854,0 6.440144,2.87229 6.440144,6.44014 0,3.56783 -2.87229,6.44014 -6.440144,6.44014 H 34.890331 c -3.567854,0 -6.440144,-2.87231 -6.440144,-6.44014 0,-3.56785 2.87229,-6.44014 6.440144,-6.44014 z m 0,-25.76054 h 28.147406 c 3.567854,0 6.440144,2.87231 6.440144,6.44014 0,3.56784 -2.87229,6.44013 -6.440144,6.44013 H 34.890331 c -3.567854,0 -6.440144,-2.87229 -6.440144,-6.44013 0,-3.56783 2.87229,-6.44014 6.440144,-6.44014 z m 0,-25.7605 h 28.147406 c 3.567854,0 6.440144,2.87229 6.440144,6.44015 0,3.56782 -2.87229,6.44014 -6.440144,6.44014 H 34.890331 c -3.567854,0 -6.440144,-2.87232 -6.440144,-6.44014 0,-3.56786 2.87229,-6.44015 6.440144,-6.44015 z m 0,-25.76052 h 28.147406 c 3.567854,0 6.440144,2.87232 6.440144,6.44015 0,3.56785 -2.87229,6.44014 -6.440144,6.44014 H 34.890331 c -3.567854,0 -6.440144,-2.87229 -6.440144,-6.44014 0,-3.56783 2.87229,-6.44015 6.440144,-6.44015 z m 0,-25.7605 h 28.147406 c 3.567854,0 6.440144,2.8723 6.440144,6.44015 0,3.56783 -2.87229,6.44014 -6.440144,6.44014 H 34.890331 c -3.567854,0 -6.440144,-2.87231 -6.440144,-6.44014 0,-3.56785 2.87229,-6.44015 6.440144,-6.44015 z m 0,-25.760517 h 28.147406 c 3.567854,0 6.440144,2.872316 6.440144,6.440143 0,3.567854 -2.87229,6.440144 -6.440144,6.440144 H 34.890331 c -3.567854,0 -6.440144,-2.87229 -6.440144,-6.440144 0,-3.567827 2.87229,-6.440143 6.440144,-6.440143 z M 120.46222,215.29782 h 104.34119 c 3.56783,0 6.44012,2.87229 6.44012,6.44015 0,3.56782 -2.87229,6.44011 -6.44012,6.44011 H 120.46222 c -3.56783,0 -6.44012,-2.87229 -6.44012,-6.44011 0,-3.56786 2.87229,-6.44015 6.44012,-6.44015 z m 0,-28.33658 h 104.34119 c 3.56783,0 6.44012,2.87229 6.44012,6.44014 0,3.56783 -2.87229,6.44015 -6.44012,6.44015 H 120.46222 c -3.56783,0 -6.44012,-2.87232 -6.44012,-6.44015 0,-3.56785 2.87229,-6.44014 6.44012,-6.44014 z m 52.74969,-25.76051 h 51.5915 c 3.56785,0 6.44014,2.87231 6.44014,6.44014 0,3.56785 -2.87229,6.44014 -6.44014,6.44014 h -51.5915 c -3.56783,0 -6.44012,-2.87229 -6.44012,-6.44014 0,-3.56783 2.87229,-6.44014 6.44012,-6.44014 z m 0,-25.76052 h 51.5915 c 3.56785,0 6.44014,2.87229 6.44014,6.44014 0,3.56783 -2.87229,6.44012 -6.44014,6.44012 h -51.5915 c -3.56783,0 -6.44012,-2.87229 -6.44012,-6.44012 0,-3.56785 2.87229,-6.44014 6.44012,-6.44014 z m 0,-25.76053 h 51.5915 c 3.56785,0 6.44014,2.87232 6.44014,6.44015 0,3.56782 -2.87229,6.44014 -6.44014,6.44014 h -51.5915 c -3.56783,0 -6.44012,-2.87232 -6.44012,-6.44014 0,-3.56783 2.87229,-6.44015 6.44012,-6.44015 z m -58.61082,0 h 34.00832 c 3.56786,0 6.44015,2.87232 6.44015,6.44015 v 38.64083 c 0,3.56786 -2.87229,6.44015 -6.44015,6.44015 h -34.00832 c -3.56783,0 -6.44014,-2.87229 -6.44014,-6.44015 v -38.64083 c 0,-3.56783 2.87231,-6.44015 6.44014,-6.44015 z m 0,-32.20061 h 110.20234 c 3.56783,0 6.44012,2.87229 6.44012,6.440143 0,3.567827 -2.87229,6.440144 -6.44012,6.440144 H 114.60109 c -3.56783,0 -6.44014,-2.872317 -6.44014,-6.440144 0,-3.567853 2.87231,-6.440143 6.44014,-6.440143 z m -4.32784,-12.880288 h 118.85816 c 7.66424,0 13.83437,6.170137 13.83437,13.834375 V 237.52856 c 0,7.66424 -6.17013,13.83438 -13.83437,13.83438 H 110.27325 c -7.66424,0 -13.83438,-6.17014 -13.83438,-13.83438 V 78.433157 c 0,-7.664238 6.17014,-13.834375 13.83438,-13.834375 z m -76.688162,0 h 31.930181 c 7.390527,0 13.340292,5.949765 13.340292,13.340292 V 238.02262 c 0,7.39053 -5.949765,13.34029 -13.340292,13.34029 H 33.585088 c -7.390527,0 -13.340292,-5.94976 -13.340292,-13.34029 V 77.939074 c 0,-7.390527 5.949765,-13.340292 13.340292,-13.340292 z M 38.986213,25.958053 H 230.0855 c 7.13568,0 12.88028,5.744607 12.88028,12.880288 0,7.135653 -5.7446,12.88026 -12.88028,12.88026 H 38.986213 c -7.135654,0 -12.880261,-5.744607 -12.880261,-12.88026 0,-7.135681 5.744607,-12.880288 12.880261,-12.880288 z M 28.422221,6.6375173 H 234.78828 c 14.27139,0 25.76065,11.4892667 25.76065,25.7606797 V 238.48244 c 0,14.27141 -11.48926,25.76065 -25.76065,25.76065 H 28.422221 c -14.271387,0 -25.7606539,-11.48924 -25.7606539,-25.76065 V 32.398197 c 0,-14.271413 11.4892669,-25.7606797 25.7606539,-25.7606797 z"
       style="fill:none;stroke:#9b4dca;stroke-width:6.35;stroke-linecap:round;stroke-miterlimit:4;stroke-dasharray:none;stroke-opacity:1;paint-order:fill markers stroke"
       id="rect1624" />
  </g>
</svg>
