<?xml version="1.0" encoding="UTF-8" standalone="no"?>
<svg
   xmlns:dc="http://purl.org/dc/elements/1.1/"
   xmlns:cc="http://creativecommons.org/ns#"
   xmlns:rdf="http://www.w3.org/1999/02/22-rdf-syntax-ns#"
   xmlns:svg="http://www.w3.org/2000/svg"
   xmlns="http://www.w3.org/2000/svg"
   xmlns:sodipodi="http://sodipodi.sourceforge.net/DTD/sodipodi-0.dtd"
   xmlns:inkscape="http://www.inkscape.org/namespaces/inkscape"
   width="267.39587mm"
   height="267.06635mm"
   viewBox="0 0 267.39587 267.06635"
   version="1.1"
   id="svg17050"
   inkscape:version="1.0 (1.0+r73+1)"
   sodipodi:docname="check.svg">
  <defs
     id="defs17044" />
  <sodipodi:namedview
     id="base"
     pagecolor="#ffffff"
     bordercolor="#666666"
     borderopacity="1.0"
     inkscape:pageopacity="0.0"
     inkscape:pageshadow="2"
     inkscape:zoom="0.35"
     inkscape:cx="408.1722"
     inkscape:cy="698.978"
     inkscape:document-units="mm"
     inkscape:current-layer="layer1"
     inkscape:document-rotation="0"
     showgrid="false"
     fit-margin-top="0"
     fit-margin-left="0"
     fit-margin-right="0"
     fit-margin-bottom="0"
     inkscape:window-width="1440"
     inkscape:window-height="843"
     inkscape:window-x="0"
     inkscape:window-y="0"
     inkscape:window-maximized="1" />
  <metadata
     id="metadata17047">
    <rdf:RDF>
      <cc:Work
         rdf:about="">
        <dc:format>image/svg+xml</dc:format>
        <dc:type
           rdf:resource="http://purl.org/dc/dcmitype/StillImage" />
        <dc:title />
      </cc:Work>
    </rdf:RDF>
  </metadata>
  <g
     inkscape:label="Capa 1"
     inkscape:groupmode="layer"
     id="layer1"
     transform="translate(2.1622275,36.771263)">
    <path
       id="path16523"
       d="M 36.789757,226.09426 C 21.249534,223.08639 8.3802014,212.89517 3.3972506,199.65106 0.95832137,193.16866 0.78538967,186.29134 1.17102,111.06832 1.6483283,17.971389 0.69937367,24.604546 15.404703,11.459384 27.736138,0.43533382 28.690596,0.31846782 102.97665,0.74740982 l 64.12124,0.37015198 -9.76606,13.8429742 -9.76606,13.843132 H 93.541691 39.517188 l -4.85103,4.142185 -4.851612,4.142052 -0.409866,74.655945 c -0.364834,66.01024 -0.135175,75.16223 1.955589,79.02768 4.525962,8.36534 4.967314,8.40725 88.379321,8.40725 52.98017,0 76.88779,-0.4793 79.1522,-1.58602 8.18218,-3.99905 8.37427,-4.94917 8.43084,-41.7176 l 0.0565,-34.07497 14.89401,-21.29695 14.89339,-21.296813 -0.43246,58.921253 c -0.39854,54.58873 -0.6355,59.28672 -3.2322,63.89074 -5.6669,10.04548 -11.45617,15.50852 -21.38625,20.18236 l -9.90912,4.66381 -79.51097,0.23357 C 78.964909,227.22688 40.307538,226.77505 36.790088,226.0941 Z M 118.94674,162.41762 C 116.49546,160.94617 100.67181,146.4135 83.782905,130.12263 58.037651,105.28947 52.913756,99.660677 52.071614,95.289917 c -2.687796,-13.9564 6.998652,-25.31229 21.590476,-25.31229 3.361928,0 7.573566,0.70784 9.358445,1.573 1.784271,0.86532 12.094501,9.95394 22.911565,20.19694 17.07745,16.171473 19.93754,18.347903 21.71959,16.529163 1.12856,-1.15192 21.28848,-29.567483 44.79962,-63.145571 50.22972,-71.73632 52.91392,-75.25348 58.96883,-77.270875 11.38753,-3.794204 21.36423,-0.470694 27.21073,9.064017 3.16939,5.168847 3.8735,7.785232 3.26369,12.129108 -0.94213,6.7143838 -3.16879,10.15917982 -43.1309,66.726223 -17.37735,24.597885 -41.1345,58.245348 -52.79435,74.771778 -22.70773,32.18601 -25.23775,34.55784 -36.84828,34.54697 -3.14473,0 -7.72284,-1.20915 -10.17429,-2.68076 z"
       style="fill:none;stroke:#9b4dca;stroke-width:6.35;stroke-miterlimit:4;stroke-dasharray:none;stroke-opacity:1" />
  </g>
</svg>
