<?xml version="1.0" encoding="UTF-8" standalone="no"?>
<svg
   xmlns:dc="http://purl.org/dc/elements/1.1/"
   xmlns:cc="http://creativecommons.org/ns#"
   xmlns:rdf="http://www.w3.org/1999/02/22-rdf-syntax-ns#"
   xmlns:svg="http://www.w3.org/2000/svg"
   xmlns="http://www.w3.org/2000/svg"
   xmlns:sodipodi="http://sodipodi.sourceforge.net/DTD/sodipodi-0.dtd"
   xmlns:inkscape="http://www.inkscape.org/namespaces/inkscape"
   width="267.82913mm"
   height="267.53394mm"
   viewBox="0 0 267.82913 267.53394"
   version="1.1"
   id="svg15846"
   inkscape:version="1.0 (1.0+r73+1)"
   sodipodi:docname="config.svg">
  <defs
     id="defs15840" />
  <sodipodi:namedview
     id="base"
     pagecolor="#ffffff"
     bordercolor="#666666"
     borderopacity="1.0"
     inkscape:pageopacity="0.0"
     inkscape:pageshadow="2"
     inkscape:zoom="0.35"
     inkscape:cx="-38.151941"
     inkscape:cy="837.0045"
     inkscape:document-units="mm"
     inkscape:current-layer="layer1"
     inkscape:document-rotation="0"
     showgrid="false"
     fit-margin-top="0"
     fit-margin-left="0"
     fit-margin-right="0"
     fit-margin-bottom="0"
     inkscape:window-width="1440"
     inkscape:window-height="843"
     inkscape:window-x="0"
     inkscape:window-y="0"
     inkscape:window-maximized="1" />
  <metadata
     id="metadata15843">
    <rdf:RDF>
      <cc:Work
         rdf:about="">
        <dc:format>image/svg+xml</dc:format>
        <dc:type
           rdf:resource="http://purl.org/dc/dcmitype/StillImage" />
        <dc:title />
      </cc:Work>
    </rdf:RDF>
  </metadata>
  <g
     inkscape:label="Capa 1"
     inkscape:groupmode="layer"
     id="layer1"
     transform="translate(37.90861,73.290773)">
    <path
       id="path16491"
       d="m -5.9834718,189.82952 c -17.5453942,-4.95268 -28.3693132,-19.01923 -28.3693132,-36.86826 0,-15.8718 0.990176,-17.22916 43.9161242,-60.200863 l 37.4758478,-37.51585 -9.264227,-9.30838 -9.264226,-9.30831 h -8.226293 c -15.9071728,0 -28.8247928,-5.23245 -39.531344,-16.012557 -15.212456,-15.3168088 -19.860471,-40.211031 -10.881571,-58.280089 2.344208,-4.717573 3.193573,-5.437399 6.757537,-5.727461 3.824367,-0.311124 5.011023,0.605604 19.1999932,14.832541 l 15.1237158,15.16425 h 5.548868 5.548868 v -5.542624 -5.542756 L 6.8691402,-39.58733 c -14.243103,-14.172909 -15.160837,-15.35819 -14.849316,-19.178218 0.290486,-3.559889 1.011026,-4.408328 5.733917,-6.749864 18.0895098,-8.968767 43.0120428,-4.326017 58.3462078,10.869083 10.789811,10.691945 16.030631,23.597896 16.030631,39.476124 v 8.2066082 l 14.86283,14.813148 14.86295,14.8130148 22.86121,-22.97321477 c 21.9388,-22.04622123 22.96099,-23.27835923 25.3355,-30.53495423 1.36078,-4.158827 2.85935,-8.139483 3.32983,-8.845762 0.94015,-1.411023 36.9244,-27.34601 40.86429,-29.452331 4.26977,-2.282376 7.63418,-0.244343 19.66111,11.910192 12.31143,12.441793 14.1094,15.389648 11.90077,19.511883 -2.13447,3.983831 -28.09494,39.9371082 -29.52197,40.8857452 -0.7072,0.470006 -4.69228,1.966965 -8.8559,3.326183 -7.26477,2.371831 -8.49825,3.392831 -30.56958,25.3068098 l -22.9992,22.83529 14.82987,14.84612 14.82984,14.84598 h 8.21595 c 15.89622,0 28.81678,5.23491 39.52076,16.012563 15.21243,15.3168 19.86043,40.21105 10.88154,58.28011 -2.3442,4.71757 -3.19357,5.4374 -6.75753,5.72746 -3.82437,0.31123 -5.01103,-0.6056 -19.2,-14.83254 l -15.12369,-15.16425 h -5.54889 -5.54887 v 5.54262 5.54263 l 15.18137,15.1066 c 14.2431,14.17293 15.16084,15.35821 14.84932,19.17821 -0.29046,3.55992 -1.01103,4.40836 -5.73392,6.74989 -18.08951,8.96877 -43.01204,4.32602 -58.34621,-10.86921 -10.79225,-10.69441 -16.03063,-23.59742 -16.03063,-39.48663 v -8.2169 l -9.31883,-9.2538 -9.319,-9.2537 -37.55826,37.43341 c -31.454967,31.35019 -38.615598,37.91522 -44.064056,40.39812 -7.887044,3.59415 -18.3432978,4.66016 -25.6046558,2.61043 z M 12.150964,174.0557 c 5.503095,-2.50592 12.228857,-7.93502 12.228857,-9.87158 0,-1.76305 -30.4642838,-32.16283 -32.2311718,-32.16283 -1.911191,0 -7.3594652,6.75595 -9.8508612,12.21497 -3.006778,6.58854 -2.701793,12.10508 1.067964,19.31291 2.625249,5.01944 4.425103,6.81744 9.4502562,9.43957 7.21616598,3.76555 12.738947,4.07022 19.3349558,1.06696 z m 165.963016,1.36601 c 0,-0.44333 -5.24094,-6.12603 -11.64653,-12.62792 L 154.82091,150.97186 V 137.9537 c 0,-12.27064 0.16423,-13.1821 2.85877,-15.87355 2.69452,-2.69171 3.60704,-2.85562 15.89156,-2.85562 h 13.03293 l 11.83532,11.63333 c 6.50935,6.39832 12.27415,11.63336 12.8107,11.63336 1.95394,0 -0.46739,-15.14366 -3.41696,-21.37153 -3.4879,-7.3646 -11.33383,-15.02217 -19.03275,-18.57634 -4.55671,-2.10349 -7.58481,-2.51468 -18.55211,-2.5196 H 157.14194 L 106.78062,49.719577 56.419407,-0.58470377 V -13.67642 c 0,-10.954411 -0.416825,-13.979208 -2.522511,-18.530623 -3.558143,-7.690458 -11.224472,-15.527364 -18.597404,-19.011397 -6.234853,-2.946215 -21.395716,-5.364692 -21.395716,-3.413046 0,0.53594 5.240919,6.294147 11.646535,12.79615 l 11.646508,11.821927 v 13.018188 c 0,12.2707402 -0.1642,13.1822032 -2.85877,15.8736512 -2.694543,2.691474 -3.607011,2.855489 -15.891563,2.855489 H 5.4135612 L -6.4217538,-9.8995188 C -12.931113,-16.297832 -18.695908,-21.532878 -19.232456,-21.532878 c -1.953948,0 0.46736,15.1437972 3.416961,21.37163923 3.487896,7.36449197 11.3338252,15.02219477 19.0327502,18.57634277 4.556733,2.103517 7.5848098,2.514812 18.5521328,2.519733 h 13.106506 l 50.361216,50.30404 50.36121,50.304283 v 13.09171 c 0,10.95478 0.41686,13.97945 2.52252,18.53099 4.87838,10.5437 15.47778,19.33888 26.46301,21.95844 4.75224,1.13323 13.53013,1.32635 13.53013,0.29765 z M 63.66251,125.93828 90.73452,98.915167 85.26066,93.364017 79.78667,87.812847 59.86923,107.59025 C 41.736064,125.5962 39.588097,127.3679 35.892635,127.3679 c -5.126196,0 -6.85419,-1.726 -6.85419,-6.84643 0,-3.69131 1.773767,-5.83679 19.800015,-23.949483 l 19.79991,-19.895 -5.5575,-5.46769 -5.557463,-5.46756 L 30.19097,93.061687 2.8586652,120.38163 19.135726,136.6714 c 8.952468,8.9594 16.542041,16.28986 16.865944,16.28986 0.323982,0 12.771226,-12.16038 27.66084,-27.02298 z m 84.1811,-106.199704 c 23.30154,-23.3060868 24.04891,-23.9286518 31.66735,-26.3850958 l 7.80261,-2.51587 11.18262,-15.6123752 11.18266,-15.61248 -6.34759,-6.340316 -6.34759,-6.340449 -15.6859,11.209893 -15.68601,11.209761 -2.09939,7.172272 c -2.02999,6.935179 -2.90928,7.989041 -26.60801,31.8865782 l -24.5087,24.7143028 5.14996,5.24158 c 2.83242,2.88285 5.43869,5.24145 5.7917,5.24145 0.35303,0 11.38076,-10.74118 24.50629,-23.869251 z"
       style="fill:none;stroke:#9b4dca;stroke-width:6.35;stroke-miterlimit:4;stroke-dasharray:none;stroke-opacity:1" />
  </g>
</svg>
