<?xml version="1.0" encoding="UTF-8" standalone="no"?>
<svg
   xmlns:dc="http://purl.org/dc/elements/1.1/"
   xmlns:cc="http://creativecommons.org/ns#"
   xmlns:rdf="http://www.w3.org/1999/02/22-rdf-syntax-ns#"
   xmlns:svg="http://www.w3.org/2000/svg"
   xmlns="http://www.w3.org/2000/svg"
   xmlns:sodipodi="http://sodipodi.sourceforge.net/DTD/sodipodi-0.dtd"
   xmlns:inkscape="http://www.inkscape.org/namespaces/inkscape"
   width="259.28079mm"
   height="258.99918mm"
   viewBox="0 0 259.28079 258.99918"
   version="1.1"
   id="svg7375"
   inkscape:version="1.0 (1.0+r73+1)"
   sodipodi:docname="desktop.svg">
  <defs
     id="defs7369" />
  <sodipodi:namedview
     id="base"
     pagecolor="#ffffff"
     bordercolor="#666666"
     borderopacity="1.0"
     inkscape:pageopacity="0.0"
     inkscape:pageshadow="2"
     inkscape:zoom="0.35"
     inkscape:cx="451.87851"
     inkscape:cy="530.69694"
     inkscape:document-units="mm"
     inkscape:current-layer="layer1"
     inkscape:document-rotation="0"
     showgrid="false"
     fit-margin-top="0"
     fit-margin-left="0"
     fit-margin-right="0"
     fit-margin-bottom="0"
     inkscape:window-width="1440"
     inkscape:window-height="843"
     inkscape:window-x="0"
     inkscape:window-y="0"
     inkscape:window-maximized="1" />
  <metadata
     id="metadata7372">
    <rdf:RDF>
      <cc:Work
         rdf:about="">
        <dc:format>image/svg+xml</dc:format>
        <dc:type
           rdf:resource="http://purl.org/dc/dcmitype/StillImage" />
        <dc:title />
      </cc:Work>
    </rdf:RDF>
  </metadata>
  <g
     inkscape:label="Capa 1"
     inkscape:groupmode="layer"
     id="layer1"
     transform="translate(13.726189,-7.753102)">
    <path
       d="M 19.317729,52.044458 H 212.51042 c 1.61126,0 2.47936,1.305983 2.47936,3.72483 V 185.87846 c 0,2.41879 -0.86805,3.72184 -2.47936,3.72184 H 19.317729 c -1.611365,0 -2.481262,-1.30305 -2.481262,-3.72184 V 55.769288 c 0,-2.418847 0.86995,-3.72483 2.481262,-3.72483 z M 114.42046,195.53361 a 12.015592,14.998005 0 0 1 12.01611,14.99968 12.015592,14.998005 0 0 1 -12.01611,14.99676 12.015592,14.998005 0 0 1 -12.01417,-14.99676 12.015592,14.998005 0 0 1 12.01417,-14.99968 z M 19.317782,10.928102 c -16.3103979,0 -29.868971,20.356565 -29.868971,44.841186 V 185.87867 c 0,21.78889 10.73949012,40.29252 24.598498,44.10583 0.06776,0 0.134434,0.0119 0.202565,0.0119 h 64.120633 c -0.388964,0.75975 -0.622194,1.70952 -0.622194,2.74608 v 8.46616 h -7.442438 c -2.854643,0 -5.153158,3.45014 -5.153158,7.73544 v 6.89777 c 0,4.28524 2.298515,7.73544 5.153158,7.73544 h 87.644255 c 2.85462,0 5.15266,-3.4502 5.15266,-7.73544 v -6.89777 c 0,-4.2853 -2.29804,-7.73544 -5.15266,-7.73544 h -8.48164 v -8.46616 c 0,-1.03656 -0.23323,-1.98633 -0.62219,-2.74608 h 68.90589 c 13.87242,-3.79622 24.62741,-22.31099 24.62741,-44.11462 V 55.77294 c 0,-24.484595 -13.5586,-44.841134 -29.86897,-44.841213 z"
       style="fill:none;fill-opacity:1;stroke:#9b4dca;stroke-width:6.35;stroke-linecap:round;stroke-miterlimit:4;stroke-dasharray:none;stroke-opacity:1;paint-order:fill markers stroke"
       id="path2295" />
  </g>
</svg>
