<?xml version="1.0" encoding="UTF-8" standalone="no"?>
<svg
   xmlns:dc="http://purl.org/dc/elements/1.1/"
   xmlns:cc="http://creativecommons.org/ns#"
   xmlns:rdf="http://www.w3.org/1999/02/22-rdf-syntax-ns#"
   xmlns:svg="http://www.w3.org/2000/svg"
   xmlns="http://www.w3.org/2000/svg"
   xmlns:sodipodi="http://sodipodi.sourceforge.net/DTD/sodipodi-0.dtd"
   xmlns:inkscape="http://www.inkscape.org/namespaces/inkscape"
   inkscape:version="1.0 (1.0+r73+1)"
   sodipodi:docname="diseño.svg"
   width="262.53149mm"
   height="262.24973mm"
   viewBox="0 0 262.53149 262.24973"
   version="1.1"
   id="svg4099">
  <sodipodi:namedview
     inkscape:current-layer="svg4099"
     inkscape:window-maximized="1"
     inkscape:window-y="0"
     inkscape:window-x="0"
     inkscape:cy="495.59003"
     inkscape:cx="496.12251"
     inkscape:zoom="0.6386327"
     showgrid="false"
     id="namedview7"
     inkscape:window-height="843"
     inkscape:window-width="1440"
     inkscape:pageshadow="2"
     inkscape:pageopacity="0"
     guidetolerance="10"
     gridtolerance="10"
     objecttolerance="10"
     borderopacity="1"
     bordercolor="#666666"
     pagecolor="#ffffff" />
  <defs
     id="defs4093" />
  <metadata
     id="metadata4096">
    <rdf:RDF>
      <cc:Work
         rdf:about="">
        <dc:format>image/svg+xml</dc:format>
        <dc:type
           rdf:resource="http://purl.org/dc/dcmitype/StillImage" />
        <dc:title />
      </cc:Work>
    </rdf:RDF>
  </metadata>
  <g
     style="fill:#9b4dca;fill-opacity:1"
     id="layer1"
     transform="translate(57.182417,60.821284)">
    <path
       id="path5140"
       style="fill:#9b4dca;fill-opacity:1;stroke-width:2.39169"
       d="m 202.9719,62.530616 a 3.85366,3.8619306 0 0 0 -4.20008,0.83558 l -11.53949,11.56664 V -3.7040075 a 3.85366,3.8619306 0 0 0 -3.85366,-3.861937 H 153.7774 l 10.75106,-10.7741515 v 0 l 10.35687,-10.379075 a 11.75211,11.777332 0 0 0 0,-16.652028 l -11.98147,-12.002399 a 11.75211,11.777332 0 0 0 -16.61637,0 l -10.36164,10.39106 -12.51902,12.54588 -26.817937,26.8683055 H -23.017909 V -45.771037 a 3.85366,3.8619306 0 0 0 -3.853656,-3.861938 30.341898,30.407017 0 0 0 -30.310852,30.373505 v 164.00635 a 3.8632167,3.8715077 0 0 0 0.09078,0.83079 29.185563,29.248198 0 0 0 29.099562,27.02875 H 89.748833 l -22.1687,22.23063 a 3.85366,3.8619306 0 0 0 2.7236,6.59138 H 201.49542 a 3.85366,3.8619306 0 0 0 3.85366,-3.86193 V 66.098046 a 3.85366,3.8619306 0 0 0 -2.37718,-3.56743 z M 151.73708,-51.912307 a 4.0471794,4.0558651 0 0 1 5.71718,0 l 11.9743,12.002399 a 4.0471794,4.0558651 0 0 1 0,5.729446 l -7.6452,7.661619 -17.68192,-17.739016 z m -13.08524,13.113332 17.69387,17.729437 -7.06943,7.084589 -17.69386,-17.72703 z m 58.9923,148.285675 h -7.11004 a 3.8536694,3.86194 0 0 0 0,7.72388 h 7.11004 v 11.63606 h -7.11004 a 3.8536671,3.8619377 0 0 0 0,7.72387 h 7.11004 v 11.63606 h -7.11004 a 3.8536694,3.86194 0 0 0 0,7.72388 h 7.11004 v 11.63605 h -7.11004 a 3.85366,3.8619306 0 0 0 0,7.72385 h 7.11004 v 18.419 H 79.606983 l 38.923637,-39.00477 a 3.85366,3.8619306 0 0 0 -5.44959,-5.46129 L 97.463313,164.89453 H -27.992076 a 21.361175,21.407019 0 0 1 -21.466306,-20.83001 q 0.03347,-1.10136 0.16965,-2.18117 v -0.0119 q 0.06451,-0.51237 0.152903,-1.01994 l 0.02381,-0.12452 q 0.08123,-0.45251 0.181557,-0.90024 c 0.01905,-0.0838 0.03823,-0.16759 0.05734,-0.23942 q 0.0884,-0.37828 0.188754,-0.7542 c 0.03583,-0.13647 0.07644,-0.27053 0.11467,-0.40462 0.05733,-0.19632 0.114671,-0.39265 0.176795,-0.58659 0.06212,-0.19393 0.129011,-0.38547 0.195924,-0.57702 0.04778,-0.13407 0.09316,-0.26816 0.143325,-0.40222 0.09319,-0.25379 0.193542,-0.50279 0.296254,-0.75179 0.02868,-0.0718 0.05736,-0.14367 0.0884,-0.2155 0.131418,-0.30885 0.267599,-0.61291 0.413332,-0.91459 l 0.01905,-0.0383 a 22.684751,22.733435 0 0 1 15.76824,-12.35678 l 0.05733,-0.0119 c 0.317765,-0.0646 0.640292,-0.12211 0.955649,-0.17238 l 0.162454,-0.0287 c 0.293873,-0.0455 0.587745,-0.079 0.883999,-0.11253 l 0.238893,-0.0311 c 0.286702,-0.0287 0.573405,-0.0479 0.862488,-0.0646 l 0.274744,-0.019 q 0.566234,-0.0287 1.139613,-0.0287 a 3.85366,3.8619306 0 0 0 3.875167,-3.86911 V 90.246896 a 3.8536602,3.8619308 0 0 0 -7.707313,0 v 24.383074 a 30.102987,30.167591 0 0 0 -17.309226,8.39425 c -0.50173,0.47884 -0.974778,1.00079 -1.433486,1.51794 V -19.259259 a 22.639357,22.687944 0 0 1 18.74748,-22.319217 v 116.379832 0 a 3.8536602,3.8619308 0 1 0 7.707312,0 v 0 V 0.15573448 H 88.881443 L 67.580003,21.493321 a 3.8559851,3.8642605 0 0 0 5.44481,5.473251 L 100.90591,-0.97435352 v 0 l 25.22678,-25.27612248 17.69148,17.7318195 -2.07615,2.080604 v 0 l -77.703937,77.8682985 -17.69147,-17.72943 15.3143,-15.34716 a 3.85366,3.8619306 0 1 0 -5.4496,-5.461291 L 38.177015,50.971366 a 3.870384,3.8786903 0 0 0 -0.272362,0.30406 c -0.02866,0.0359 -0.05255,0.0718 -0.07882,0.10774 -0.05495,0.0718 -0.107526,0.14605 -0.157691,0.22268 -0.05017,0.0766 -0.05495,0.0886 -0.08123,0.13406 -0.02619,0.0455 -0.08363,0.14605 -0.12184,0.22029 -0.03823,0.0742 -0.04778,0.0982 -0.06929,0.14843 -0.02143,0.0503 -0.06689,0.15325 -0.09557,0.23942 0,0.0265 -0.02381,0.0527 -0.03344,0.079 l -7.506626,21.30885 -5.115137,14.52353 a 3.8990535,3.9074214 0 0 0 -0.152903,0.58659 H 11.676851 a 3.8536671,3.8619377 0 1 0 0,7.72387 H 118.38953 a 3.8536671,3.8619377 0 0 0 0,-7.72387 H 41.827603 l 23.49945,-8.31284 0.0573,-0.0241 c 0.0908,-0.0335 0.18158,-0.0718 0.26998,-0.11253 l 0.10512,-0.0479 c 0.0932,-0.0455 0.18396,-0.0982 0.27236,-0.15084 l 0.086,-0.0503 c 0.0932,-0.0599 0.18396,-0.12451 0.27236,-0.19394 l 0.0669,-0.0503 a 3.8632167,3.8715077 0 0 0 0.31059,-0.28012 L 146.06278,0.15798348 h 33.46209 V 82.654376 l -55.11952,55.240214 a 3.85366,3.8619306 0 0 0 0,5.46129 3.9277229,3.9361525 0 0 0 0.29386,0.26578 3.851271,3.8595363 0 0 0 5.15574,-0.26578 v 0 L 197.64401,75.421336 Z M 56.996293,75.287186 l -11.03775,3.90742 -7.353724,-7.36952 3.896651,-11.06143 z M 175.11468,124.42685 a 3.85366,3.8619306 0 0 0 -4.20008,0.83558 l -42.10835,42.2035 a 3.85366,3.8619306 0 0 0 2.726,6.59138 h 42.11073 a 3.85366,3.8619306 0 0 0 3.85366,-3.86191 v -42.20112 a 3.85366,3.8619306 0 0 0 -2.38196,-3.56743 z m -34.28396,41.89942 28.95621,-29.01834 v 29.01834 z" />
  </g>
</svg>
