<svg xmlns="http://www.w3.org/2000/svg" width="109.887" height="109.534" viewBox="0 0 109.887 109.534"><g transform="translate(0)"><g transform="translate(77.375 77.249)"><path d="M380.373,360.872a1.613,1.613,0,0,0-1.758.349L360.99,378.848a1.613,1.613,0,0,0,1.141,2.753h17.626a1.613,1.613,0,0,0,1.613-1.613V362.362A1.613,1.613,0,0,0,380.373,360.872Zm-14.35,17.5,12.12-12.12v12.12Z" transform="translate(-360.517 -360.749)" fill="#777"/></g><g transform="translate(0 0)"><path d="M108.891,52.34a1.613,1.613,0,0,0-1.758.349l-4.83,4.831V24.676a1.613,1.613,0,0,0-1.613-1.613H88.3l4.5-4.5,0,0,4.335-4.335a4.919,4.919,0,0,0,0-6.955L92.12,2.26a4.919,4.919,0,0,0-6.955,0L80.828,6.6l-5.24,5.24L64.363,23.062H14.3V7.106a1.613,1.613,0,0,0-1.613-1.613A12.7,12.7,0,0,0,0,18.179v68.5a1.617,1.617,0,0,0,.038.347,12.216,12.216,0,0,0,12.18,11.289H61.5L52.221,107.6a1.613,1.613,0,0,0,1.14,2.753h54.912a1.613,1.613,0,0,0,1.613-1.613V53.83A1.613,1.613,0,0,0,108.891,52.34ZM87.446,4.541a1.694,1.694,0,0,1,2.393,0l5.012,5.013a1.694,1.694,0,0,1,0,2.393l-3.2,3.2L84.25,7.738Zm-5.477,5.477,7.406,7.405-2.959,2.959L79.01,12.978Zm24.692,61.934h-2.976a1.613,1.613,0,0,0,0,3.226h2.976v4.86h-2.976a1.613,1.613,0,0,0,0,3.226h2.976v4.86h-2.976a1.613,1.613,0,0,0,0,3.226h2.976v4.86h-2.976a1.613,1.613,0,0,0,0,3.226h2.976v7.693H57.255L73.547,90.838a1.613,1.613,0,0,0-2.281-2.281l-6.537,6.537H12.218a8.941,8.941,0,0,1-8.985-8.7q.014-.46.071-.911v-.005q.027-.214.064-.426L3.378,85q.034-.189.076-.376c.008-.035.016-.07.024-.1q.037-.158.079-.315c.015-.057.032-.113.048-.169.024-.082.048-.164.074-.245s.054-.161.082-.241c.02-.056.039-.112.06-.168.039-.106.081-.21.124-.314.012-.03.024-.06.037-.09.055-.129.112-.256.173-.382l.008-.016a9.495,9.495,0,0,1,6.6-5.161l.024-.005c.133-.027.268-.051.4-.072l.068-.012c.123-.019.246-.033.37-.047l.1-.013c.12-.012.24-.02.361-.027l.115-.008q.237-.012.477-.012A1.613,1.613,0,0,0,14.3,75.611V63.916a1.613,1.613,0,0,0-3.226,0V74.1a12.6,12.6,0,0,0-7.245,3.506c-.21.2-.408.418-.6.634V18.179a9.476,9.476,0,0,1,7.847-9.322V57.465h0a1.613,1.613,0,1,0,3.226,0h0V26.288H61.137L52.221,35.2A1.613,1.613,0,0,0,54.5,37.486l11.67-11.67h0L76.729,15.259l7.405,7.406-.869.869,0,0L50.741,56.057l-7.405-7.405,6.41-6.41a1.613,1.613,0,1,0-2.281-2.281l-7.551,7.551a1.62,1.62,0,0,0-.114.127c-.012.015-.022.03-.033.045-.023.03-.045.061-.066.093s-.023.037-.034.056-.035.061-.051.092-.02.041-.029.062-.028.064-.04.1c0,.011-.01.022-.014.033l-3.142,8.9L34.25,63.086a1.632,1.632,0,0,0-.064.245H28.822a1.613,1.613,0,1,0,0,3.226H73.488a1.613,1.613,0,0,0,0-3.226H41.442l9.836-3.472.024-.01c.038-.014.076-.03.113-.047l.044-.02c.039-.019.077-.041.114-.063l.036-.021c.039-.025.077-.052.114-.081l.028-.021a1.617,1.617,0,0,0,.13-.117l33.19-33.19H99.077V60.745L76.006,83.817a1.613,1.613,0,0,0,0,2.281,1.644,1.644,0,0,0,.123.111,1.612,1.612,0,0,0,2.158-.111h0l28.374-28.374ZM47.791,57.668,43.171,59.3l-3.078-3.078,1.631-4.62Z" transform="translate(0 -0.82)" fill="#777"/></g></g></svg>