<?xml version="1.0" encoding="UTF-8" standalone="no"?>
<svg
   xmlns:dc="http://purl.org/dc/elements/1.1/"
   xmlns:cc="http://creativecommons.org/ns#"
   xmlns:rdf="http://www.w3.org/1999/02/22-rdf-syntax-ns#"
   xmlns:svg="http://www.w3.org/2000/svg"
   xmlns="http://www.w3.org/2000/svg"
   xmlns:sodipodi="http://sodipodi.sourceforge.net/DTD/sodipodi-0.dtd"
   xmlns:inkscape="http://www.inkscape.org/namespaces/inkscape"
   width="264.00433mm"
   height="267.03226mm"
   viewBox="0 0 264.00433 267.03226"
   version="1.1"
   id="svg13880"
   inkscape:version="1.0 (1.0+r73+1)"
   sodipodi:docname="host.svg">
  <defs
     id="defs13874" />
  <sodipodi:namedview
     id="base"
     pagecolor="#ffffff"
     bordercolor="#666666"
     borderopacity="1.0"
     inkscape:pageopacity="0.0"
     inkscape:pageshadow="2"
     inkscape:zoom="0.35"
     inkscape:cx="538.24205"
     inkscape:cy="561.26533"
     inkscape:document-units="mm"
     inkscape:current-layer="layer1"
     inkscape:document-rotation="0"
     showgrid="false"
     fit-margin-top="0"
     fit-margin-left="0"
     fit-margin-right="0"
     fit-margin-bottom="0"
     inkscape:window-width="1440"
     inkscape:window-height="843"
     inkscape:window-x="0"
     inkscape:window-y="0"
     inkscape:window-maximized="1" />
  <metadata
     id="metadata13877">
    <rdf:RDF>
      <cc:Work
         rdf:about="">
        <dc:format>image/svg+xml</dc:format>
        <dc:type
           rdf:resource="http://purl.org/dc/dcmitype/StillImage" />
        <dc:title />
      </cc:Work>
    </rdf:RDF>
  </metadata>
  <g
     inkscape:label="Capa 1"
     inkscape:groupmode="layer"
     id="layer1"
     transform="translate(36.576541,0.33478401)">
    <g
       style="fill:none;stroke:#9b4dca;stroke-width:3.2918;stroke-miterlimit:4;stroke-dasharray:none;stroke-opacity:1"
       transform="matrix(1.6239328,0,0,2.2914651,-852.63077,-755.13397)"
       id="g1293">
      <path
         id="rect1047"
         style="fill:none;stroke:#9b4dca;stroke-width:3.2918;stroke-linecap:round;stroke-miterlimit:4;stroke-dasharray:none;stroke-opacity:1;paint-order:fill markers stroke"
         d="m 559.85821,430.26052 h 13.22919 c 1.83224,0 3.30729,1.47506 3.30729,3.3073 0,1.83224 -1.47505,3.30729 -3.30729,3.30729 h -13.22919 c -1.83224,0 -3.30729,-1.47505 -3.30729,-3.30729 0,-1.83224 1.47505,-3.3073 3.30729,-3.3073 z m -17.46236,-0.31259 h 3.39115 c 2.00542,0 3.61989,1.61447 3.61989,3.61989 0,2.00542 -1.61447,3.61989 -3.61989,3.61989 h -3.39115 c -2.00542,0 -3.61989,-1.61447 -3.61989,-3.61989 0,-2.00542 1.61447,-3.61989 3.61989,-3.61989 z m -24.8711,0.31259 h 13.22918 c 1.83224,0 3.30729,1.47506 3.30729,3.3073 0,1.83224 -1.47505,3.30729 -3.30729,3.30729 h -13.22918 c -1.83224,0 -3.30729,-1.47505 -3.30729,-3.30729 0,-1.83224 1.47505,-3.3073 3.30729,-3.3073 z m 42.33346,-31.74993 h 13.22919 c 1.83224,0 3.30729,1.47505 3.30729,3.30729 0,1.83224 -1.47505,3.30729 -3.30729,3.30729 h -13.22919 c -1.83224,0 -3.30729,-1.47505 -3.30729,-3.30729 0,-1.83224 1.47505,-3.30729 3.30729,-3.30729 z m -17.46236,-0.3126 h 3.39115 c 2.00542,0 3.61989,1.61447 3.61989,3.61989 0,2.00542 -1.61447,3.61989 -3.61989,3.61989 h -3.39115 c -2.00542,0 -3.61989,-1.61447 -3.61989,-3.61989 0,-2.00542 1.61447,-3.61989 3.61989,-3.61989 z m -24.8711,0.3126 h 13.22918 c 1.83224,0 3.30729,1.47505 3.30729,3.30729 0,1.83224 -1.47505,3.30729 -3.30729,3.30729 h -13.22918 c -1.83224,0 -3.30729,-1.47505 -3.30729,-3.30729 0,-1.83224 1.47505,-3.30729 3.30729,-3.30729 z m 42.33346,-31.74994 h 13.22919 c 1.83224,0 3.30729,1.47505 3.30729,3.30729 0,1.83224 -1.47505,3.30729 -3.30729,3.30729 h -13.22919 c -1.83224,0 -3.30729,-1.47505 -3.30729,-3.30729 0,-1.83224 1.47505,-3.30729 3.30729,-3.30729 z m -17.46236,-0.3126 h 3.39115 c 2.00542,0 3.61989,1.61448 3.61989,3.61989 0,2.00542 -1.61447,3.61989 -3.61989,3.61989 h -3.39115 c -2.00542,0 -3.61989,-1.61447 -3.61989,-3.61989 0,-2.00541 1.61447,-3.61989 3.61989,-3.61989 z m -24.8711,0.3126 h 13.22918 c 1.83224,0 3.30729,1.47505 3.30729,3.30729 0,1.83224 -1.47505,3.30729 -3.30729,3.30729 h -13.22918 c -1.83224,0 -3.30729,-1.47505 -3.30729,-3.30729 0,-1.83224 1.47505,-3.30729 3.30729,-3.30729 z m -2.24872,43.92236 h 56.88461 c 2.49138,0 4.49708,2.0057 4.49708,4.49708 v 4.49709 c 0,2.49138 -2.0057,4.49708 -4.49708,4.49708 h -56.88461 c -2.49138,0 -4.49708,-2.0057 -4.49708,-4.49708 v -4.49709 c 0,-2.49138 2.0057,-4.49708 4.49708,-4.49708 z m 0,-31.74994 h 56.88461 c 2.49138,0 4.49708,2.0057 4.49708,4.49708 v 4.49709 c 0,2.49138 -2.0057,4.49708 -4.49708,4.49708 h -56.88461 c -2.49138,0 -4.49708,-2.0057 -4.49708,-4.49708 v -4.49709 c 0,-2.49138 2.0057,-4.49708 4.49708,-4.49708 z m -4.49831,44.71289 h 66.14583 c 3.66448,0 6.61459,2.95011 6.61459,6.61458 v 6.61459 c 0,3.66448 -2.95011,6.61458 -6.61459,6.61458 h -66.14583 c -3.66448,0 -6.61458,-2.9501 -6.61458,-6.61458 v -6.61459 c 0,-3.66447 2.9501,-6.61458 6.61458,-6.61458 z m 0,-31.74994 h 66.14583 c 3.66448,0 6.61459,2.95011 6.61459,6.61459 v 6.61458 c 0,3.66448 -2.95011,6.61458 -6.61459,6.61458 h -66.14583 c -3.66448,0 -6.61458,-2.9501 -6.61458,-6.61458 v -6.61458 c 0,-3.66448 2.9501,-6.61459 6.61458,-6.61459 z m 0,-31.74994 h 66.14583 c 3.66448,0 6.61459,2.95011 6.61459,6.61459 v 6.61458 c 0,3.66448 -2.95011,6.61458 -6.61459,6.61458 h -66.14583 c -3.66448,0 -6.61458,-2.9501 -6.61458,-6.61458 v -6.61458 c 0,-3.66448 2.9501,-6.61459 6.61458,-6.61459 z" />
      <path
         style="fill:none;stroke:#9b4dca;stroke-width:3.2918;stroke-linecap:round;stroke-miterlimit:4;stroke-dasharray:none;stroke-opacity:1;paint-order:fill markers stroke"
         d="m 550.46522,331.04179 h 66.14583 c 3.66448,0 6.61459,2.95011 6.61459,6.61459 v 6.61458 c 0,3.66448 -2.95011,6.61458 -6.61459,6.61458 h -66.14583 c -3.66448,0 -6.61458,-2.9501 -6.61458,-6.61458 v -6.61458 c 0,-3.66448 2.9501,-6.61459 6.61458,-6.61459 z"
         id="path1276" />
      <path
         style="fill:none;stroke:#9b4dca;stroke-width:3.2918;stroke-linecap:round;stroke-miterlimit:4;stroke-dasharray:none;stroke-opacity:1;paint-order:fill markers stroke"
         d="m 557.21225,337.65636 h 13.22918 c 1.83224,0 3.30729,1.47505 3.30729,3.30729 0,1.83224 -1.47505,3.30729 -3.30729,3.30729 h -13.22918 c -1.83224,0 -3.30729,-1.47505 -3.30729,-3.30729 0,-1.83224 1.47505,-3.30729 3.30729,-3.30729 z"
         id="path1266" />
      <path
         style="fill:none;stroke:#9b4dca;stroke-width:3.2918;stroke-linecap:round;stroke-miterlimit:4;stroke-dasharray:none;stroke-opacity:1;paint-order:fill markers stroke"
         d="m 582.08335,337.34376 h 3.39115 c 2.00542,0 3.61989,1.61448 3.61989,3.61989 0,2.00542 -1.61447,3.61989 -3.61989,3.61989 h -3.39115 c -2.00542,0 -3.61989,-1.61447 -3.61989,-3.61989 0,-2.00541 1.61447,-3.61989 3.61989,-3.61989 z"
         id="path1264" />
      <path
         style="fill:none;stroke:#9b4dca;stroke-width:3.2918;stroke-linecap:round;stroke-miterlimit:4;stroke-dasharray:none;stroke-opacity:1;paint-order:fill markers stroke"
         d="m 599.54571,337.65636 h 13.22919 c 1.83224,0 3.30729,1.47505 3.30729,3.30729 0,1.83224 -1.47505,3.30729 -3.30729,3.30729 h -13.22919 c -1.83224,0 -3.30729,-1.47505 -3.30729,-3.30729 0,-1.83224 1.47505,-3.30729 3.30729,-3.30729 z"
         id="path1262" />
      <path
         d="m 639.76238,431.05422 h 13.22919 c 1.83224,0 3.30729,1.47506 3.30729,3.3073 0,1.83224 -1.47505,3.30729 -3.30729,3.30729 h -13.22919 c -1.83224,0 -3.30729,-1.47505 -3.30729,-3.30729 0,-1.83224 1.47505,-3.3073 3.30729,-3.3073 z m -17.46236,-0.31259 h 3.39115 c 2.00542,0 3.61989,1.61447 3.61989,3.61989 0,2.00542 -1.61447,3.61989 -3.61989,3.61989 h -3.39115 c -2.00542,0 -3.61989,-1.61447 -3.61989,-3.61989 0,-2.00542 1.61447,-3.61989 3.61989,-3.61989 z m -24.8711,0.31259 h 13.22918 c 1.83224,0 3.30729,1.47506 3.30729,3.3073 0,1.83224 -1.47505,3.30729 -3.30729,3.30729 h -13.22918 c -1.83224,0 -3.30729,-1.47505 -3.30729,-3.30729 0,-1.83224 1.47505,-3.3073 3.30729,-3.3073 z m 42.33346,-31.74993 h 13.22919 c 1.83224,0 3.30729,1.47505 3.30729,3.30729 0,1.83224 -1.47505,3.30729 -3.30729,3.30729 h -13.22919 c -1.83224,0 -3.30729,-1.47505 -3.30729,-3.30729 0,-1.83224 1.47505,-3.30729 3.30729,-3.30729 z m -17.46236,-0.3126 h 3.39115 c 2.00542,0 3.61989,1.61447 3.61989,3.61989 0,2.00542 -1.61447,3.61989 -3.61989,3.61989 h -3.39115 c -2.00542,0 -3.61989,-1.61447 -3.61989,-3.61989 0,-2.00542 1.61447,-3.61989 3.61989,-3.61989 z m -24.8711,0.3126 h 13.22918 c 1.83224,0 3.30729,1.47505 3.30729,3.30729 0,1.83224 -1.47505,3.30729 -3.30729,3.30729 h -13.22918 c -1.83224,0 -3.30729,-1.47505 -3.30729,-3.30729 0,-1.83224 1.47505,-3.30729 3.30729,-3.30729 z m 42.33346,-31.74994 h 13.22919 c 1.83224,0 3.30729,1.47505 3.30729,3.30729 0,1.83224 -1.47505,3.30729 -3.30729,3.30729 h -13.22919 c -1.83224,0 -3.30729,-1.47505 -3.30729,-3.30729 0,-1.83224 1.47505,-3.30729 3.30729,-3.30729 z m -17.46236,-0.3126 h 3.39115 c 2.00542,0 3.61989,1.61448 3.61989,3.61989 0,2.00542 -1.61447,3.61989 -3.61989,3.61989 h -3.39115 c -2.00542,0 -3.61989,-1.61447 -3.61989,-3.61989 0,-2.00541 1.61447,-3.61989 3.61989,-3.61989 z m -24.8711,0.3126 h 13.22918 c 1.83224,0 3.30729,1.47505 3.30729,3.30729 0,1.83224 -1.47505,3.30729 -3.30729,3.30729 h -13.22918 c -1.83224,0 -3.30729,-1.47505 -3.30729,-3.30729 0,-1.83224 1.47505,-3.30729 3.30729,-3.30729 z m -2.24872,43.92236 h 56.88461 c 2.49138,0 4.49708,2.0057 4.49708,4.49708 v 4.49709 c 0,2.49138 -2.0057,4.49708 -4.49708,4.49708 H 595.1802 c -2.49138,0 -4.49708,-2.0057 -4.49708,-4.49708 v -4.49709 c 0,-2.49138 2.0057,-4.49708 4.49708,-4.49708 z m 0,-31.74994 h 56.88461 c 2.49138,0 4.49708,2.0057 4.49708,4.49708 v 4.49709 c 0,2.49138 -2.0057,4.49708 -4.49708,4.49708 H 595.1802 c -2.49138,0 -4.49708,-2.0057 -4.49708,-4.49708 v -4.49709 c 0,-2.49138 2.0057,-4.49708 4.49708,-4.49708 z m -4.49831,44.71289 h 66.14583 c 3.66448,0 6.61459,2.95011 6.61459,6.61458 v 6.61459 c 0,3.66448 -2.95011,6.61458 -6.61459,6.61458 h -66.14583 c -3.66448,0 -6.61458,-2.9501 -6.61458,-6.61458 v -6.61459 c 0,-3.66447 2.9501,-6.61458 6.61458,-6.61458 z m 0,-31.74994 h 66.14583 c 3.66448,0 6.61459,2.95011 6.61459,6.61459 v 6.61458 c 0,3.66448 -2.95011,6.61458 -6.61459,6.61458 h -66.14583 c -3.66448,0 -6.61458,-2.9501 -6.61458,-6.61458 v -6.61458 c 0,-3.66448 2.9501,-6.61459 6.61458,-6.61459 z m 0,-31.74994 h 66.14583 c 3.66448,0 6.61459,2.95011 6.61459,6.61459 v 6.61458 c 0,3.66448 -2.95011,6.61458 -6.61459,6.61458 h -66.14583 c -3.66448,0 -6.61458,-2.9501 -6.61458,-6.61458 v -6.61458 c 0,-3.66448 2.9501,-6.61459 6.61458,-6.61459 z"
         style="fill:none;stroke:#9b4dca;stroke-width:3.2918;stroke-linecap:round;stroke-miterlimit:4;stroke-dasharray:none;stroke-opacity:1;paint-order:fill markers stroke"
         id="path1064" />
      <path
         id="path1283"
         style="fill:none;stroke:#9b4dca;stroke-width:3.2918;stroke-linecap:round;stroke-miterlimit:4;stroke-dasharray:none;stroke-opacity:1;paint-order:fill markers stroke"
         d="m 553.89698,350.28473 c -2.49137,0 -4.49689,2.00551 -4.49689,4.49688 v 4.49739 c 0,0.34896 0.0479,0.68456 0.12248,1.01029 h 65.6337 c 0.0745,-0.32573 0.12248,-0.66133 0.12248,-1.01029 v -4.49739 c 0,-2.49137 -2.00602,-4.49688 -4.49739,-4.49688 z" />
    </g>
  </g>
</svg>
