<?xml version="1.0" encoding="UTF-8" standalone="no"?>
<svg
   xmlns:dc="http://purl.org/dc/elements/1.1/"
   xmlns:cc="http://creativecommons.org/ns#"
   xmlns:rdf="http://www.w3.org/1999/02/22-rdf-syntax-ns#"
   xmlns:svg="http://www.w3.org/2000/svg"
   xmlns="http://www.w3.org/2000/svg"
   xmlns:sodipodi="http://sodipodi.sourceforge.net/DTD/sodipodi-0.dtd"
   xmlns:inkscape="http://www.inkscape.org/namespaces/inkscape"
   sodipodi:docname="responsive.svg"
   inkscape:version="1.0 (1.0+r73+1)"
   id="svg5152"
   version="1.1"
   viewBox="0 0 98.088738 36.301361"
   height="36.301361mm"
   width="98.088737mm">
  <defs
     id="defs5146" />
  <sodipodi:namedview
     inkscape:window-maximized="1"
     inkscape:window-y="0"
     inkscape:window-x="0"
     inkscape:window-height="843"
     inkscape:window-width="1440"
     fit-margin-bottom="0"
     fit-margin-right="0"
     fit-margin-left="0"
     fit-margin-top="0"
     showgrid="false"
     inkscape:document-rotation="0"
     inkscape:current-layer="layer1"
     inkscape:document-units="mm"
     inkscape:cy="266.54436"
     inkscape:cx="214.06929"
     inkscape:zoom="0.35"
     inkscape:pageshadow="2"
     inkscape:pageopacity="0.0"
     borderopacity="1.0"
     bordercolor="#666666"
     pagecolor="#ffffff"
     id="base" />
  <metadata
     id="metadata5149">
    <rdf:RDF>
      <cc:Work
         rdf:about="">
        <dc:format>image/svg+xml</dc:format>
        <dc:type
           rdf:resource="http://purl.org/dc/dcmitype/StillImage" />
        <dc:title></dc:title>
      </cc:Work>
    </rdf:RDF>
  </metadata>
  <g
     transform="translate(-49.194167,-77.643471)"
     id="layer1"
     inkscape:groupmode="layer"
     inkscape:label="Capa 1">
    <path
       id="path5901"
       style="fill:none;fill-opacity:1;stroke:#777777;stroke-width:0.636566;stroke-linecap:round;stroke-miterlimit:4;stroke-dasharray:none;stroke-opacity:1;paint-order:fill markers stroke"
       d="m 52.54535,87.646644 c -1.680227,0 -3.0329,1.76621 -3.0329,3.960013 v 17.917753 c 0,2.19401 1.352673,3.96029 3.0329,3.96029 h 12.162945 c 1.68023,0 3.0329,-1.76629 3.0329,-3.96029 V 91.606657 c 0,-2.193803 -1.35267,-3.960013 -3.0329,-3.960013 z m 0.59172,2.22156 h 10.979495 c 1.26748,0 2.28785,1.332253 2.28785,2.987293 v 13.516343 c 0,1.65484 -1.02037,2.98729 -2.28785,2.98729 H 53.13707 c -1.267474,0 -2.287848,-1.33245 -2.287848,-2.98729 V 92.855497 c 0,-1.65504 1.020374,-2.987293 2.287848,-2.987293 z m 5.667525,20.368016 a 0.9114372,1.0404701 0 0 1 0.005,0 0.9114372,1.0404701 0 0 1 0.91144,1.04047 0.9114372,1.0404701 0 0 1 -0.91144,1.04047 0.9114372,1.0404701 0 0 1 -0.91143,-1.04047 0.9114372,1.0404701 0 0 1 0.90692,-1.04047 z m 8.73129,-32.274266 c -2.9316,0 -5.29167,2.360071 -5.29167,5.291661 v 4.393019 h 2.46393 c 0.15213,0 0.30049,0.019 0.44649,0.047 v -3.64629 c 0,-2.345269 1.88807,-4.23333 4.23333,-4.23333 h 47.889585 c 1.9143,0 3.52293,1.2585 4.04988,2.9962 0.0135,-0.0108 0.0313,-0.0147 0.045,-0.0253 0.0443,-0.0344 0.0811,-0.0784 0.12661,-0.11111 0.24314,-0.17473 0.50304,-0.32563 0.77669,-0.44855 0.0731,-0.0328 0.15448,-0.0466 0.22945,-0.0754 0.13759,-0.0534 0.27664,-0.0986 0.42014,-0.13797 0.0715,-0.0194 0.13698,-0.0534 0.20979,-0.0693 0.0262,-0.006 0.0548,-0.004 0.0811,-0.009 0.27344,-0.0546 0.55335,-0.0899 0.84232,-0.0899 h 0.16847 c -0.6148,-2.24187 -2.65505,-3.88193 -5.09737,-3.88193 z m -1.61903,30.173336 c 0.0129,0.004 0.0243,0.0111 0.0372,0.0151 0.067,-0.11808 0.10367,-0.2618 0.1571,-0.39224 -0.0552,0.1351 -0.12444,0.25564 -0.1943,0.37724 z m -0.85524,-17.986486 c 0.0345,0.0205 0.0595,0.059 0.093,0.0816 v -0.0367 c -0.0292,-0.0194 -0.0631,-0.0272 -0.093,-0.045 z m 58.154595,-8.215 c -0.0264,0.005 -0.0549,0.003 -0.0811,0.009 -0.0728,0.0158 -0.13831,0.0498 -0.20979,0.0693 0.0969,-0.0266 0.19164,-0.0582 0.29093,-0.078 z m -0.71107,0.216 c -0.075,0.0288 -0.15638,0.0426 -0.22945,0.0754 -0.27366,0.12292 -0.53355,0.27382 -0.77669,0.44855 -0.0455,0.0327 -0.0823,0.0767 -0.12661,0.11111 0.34355,-0.26659 0.72613,-0.47721 1.13275,-0.63511 z m 1.91616,2.48306 v -0.009 c -0.0128,0.002 -0.0229,0.0107 -0.0357,0.0129 0.0117,-0.002 0.024,-0.002 0.0357,-0.004 z m -2.89439,3.34914 c -0.002,0.0265 -0.0147,0.0488 -0.016,0.0754 v 0.0956 c 0.001,-0.0582 0.0121,-0.11354 0.016,-0.17105 z m 0.8511,19.287206 c -0.14634,-0.17892 -0.26122,-0.38254 -0.3731,-0.58963 0.11275,0.20802 0.2005,0.43413 0.34778,0.61391 0.009,-0.007 0.0161,-0.0172 0.0253,-0.0243 z m -2.89129,-3.73724 c -0.64299,0.39325 -1.39719,0.62372 -2.20917,0.62372 H 69.387965 c -0.58476,0 -1.1412,-0.11713 -1.64693,-0.32969 v 4.56303 h 17.19843 v 1.0754 h -2.01073 c -0.7711,0 -1.39164,0.62052 -1.39164,1.39163 v 1.24126 c 0,0.7711 0.62054,1.39166 1.39164,1.39166 h 23.675045 c 0.77112,0 1.39165,-0.62056 1.39165,-1.39166 v -1.24126 c 0,-0.77111 -0.62053,-1.39163 -1.39165,-1.39163 h -2.29133 v -1.0754 h 14.81718 c 0.12022,0 0.23892,-0.005 0.35709,-0.013 z m -24.317385,1.41747 a 1.984375,1.6809373 0 0 1 0.0155,0 1.984375,1.6809373 0 0 1 1.98437,1.68053 1.984375,1.6809373 0 0 1 -1.98437,1.68103 1.984375,1.6809373 0 0 1 -1.98438,-1.68103 1.984375,1.6809373 0 0 1 1.96887,-1.68053 z M 124.05852,81.843844 c -2.53277,0 -4.57177,2.17258 -4.57177,4.87111 V 108.7551 c 0,2.6988 2.039,4.87145 4.57177,4.87145 h 18.33433 c 2.53276,0 4.57177,-2.17265 4.57177,-4.87145 V 86.714954 c 0,-2.69853 -2.03901,-4.87111 -4.57177,-4.87111 z m 0.89195,2.73269 h 16.55041 c 1.91059,0 3.4487,1.63876 3.4487,3.67458 v 16.626096 c 0,2.03559 -1.53811,3.6746 -3.4487,3.6746 h -16.55041 c -1.91058,0 -3.44868,-1.63901 -3.44868,-3.6746 V 88.251114 c 0,-2.03582 1.5381,-3.67458 3.44868,-3.67458 z m 8.5432,25.054136 a 1.3738939,1.2798539 0 0 1 0.007,0 1.3738939,1.2798539 0 0 1 1.37388,1.27985 1.3738939,1.2798539 0 0 1 -1.37388,1.27986 1.3738939,1.2798539 0 0 1 -1.3739,-1.27986 1.3738939,1.2798539 0 0 1 1.36709,-1.27985 z" />
  </g>
</svg>
