<?xml version="1.0" encoding="UTF-8" standalone="no"?>
<svg
   xmlns:dc="http://purl.org/dc/elements/1.1/"
   xmlns:cc="http://creativecommons.org/ns#"
   xmlns:rdf="http://www.w3.org/1999/02/22-rdf-syntax-ns#"
   xmlns:svg="http://www.w3.org/2000/svg"
   xmlns="http://www.w3.org/2000/svg"
   xmlns:sodipodi="http://sodipodi.sourceforge.net/DTD/sodipodi-0.dtd"
   xmlns:inkscape="http://www.inkscape.org/namespaces/inkscape"
   width="267.33401mm"
   height="267.09302mm"
   viewBox="0 0 267.33401 267.09302"
   version="1.1"
   id="svg11190"
   inkscape:version="1.0 (1.0+r73+1)"
   sodipodi:docname="rocket.svg">
  <defs
     id="defs11184" />
  <sodipodi:namedview
     id="base"
     pagecolor="#ffffff"
     bordercolor="#666666"
     borderopacity="1.0"
     inkscape:pageopacity="0.0"
     inkscape:pageshadow="2"
     inkscape:zoom="0.35"
     inkscape:cx="488.05528"
     inkscape:cy="970.45703"
     inkscape:document-units="mm"
     inkscape:current-layer="layer1"
     inkscape:document-rotation="0"
     showgrid="false"
     fit-margin-top="0"
     fit-margin-left="0"
     fit-margin-right="0"
     fit-margin-bottom="0"
     inkscape:window-width="1440"
     inkscape:window-height="843"
     inkscape:window-x="0"
     inkscape:window-y="0"
     inkscape:window-maximized="1" />
  <metadata
     id="metadata11187">
    <rdf:RDF>
      <cc:Work
         rdf:about="">
        <dc:format>image/svg+xml</dc:format>
        <dc:type
           rdf:resource="http://purl.org/dc/dcmitype/StillImage" />
        <dc:title />
      </cc:Work>
    </rdf:RDF>
  </metadata>
  <g
     inkscape:label="Capa 1"
     inkscape:groupmode="layer"
     id="layer1"
     transform="translate(23.29796,108.60009)">
    <path
       id="path4396"
       d="m -16.870898,153.22226 c -5.269548,-5.27916 -2.552145,-9.01949 30.830653,-42.43597 33.350941,-33.384808 37.090932,-36.111338 42.332169,-30.860438 5.269521,5.27915 2.552144,9.01948 -30.830626,42.435958 -33.3509677,33.38494 -37.090933,36.11135 -42.332196,30.86045 z m 69.166529,0 c -4.89077,-4.89982 -2.155852,-9.34713 18.499931,-30.08329 20.685288,-20.76579 25.138358,-23.516718 30.070348,-18.5756 4.93194,4.94093 2.18609,9.40223 -18.54187,30.12519 -20.698354,20.69346 -25.137613,23.43334 -30.028409,18.5337 z m 74.870149,-49.7648 c -7.76459,-13.511678 -12.04306,-19.459758 -14.30784,-19.891418 -1.77703,-0.33867 -8.97229,-1.66228 -15.98954,-2.94146 -24.134474,-4.39978 -36.869399,-17.12841 -41.250476,-41.22991 -1.289817,-7.09573 -2.632577,-14.40172 -2.98397,-16.23558 -0.456063,-2.37823 -5.816706,-6.30443 -18.702444,-13.6969199 -9.934972,-5.69934 -18.571765,-11.12832 -19.192848,-12.06418 -3.621538,-5.45679 -1.049946,-9.6960251 16.263646,-26.8090901 l 17.439825,-17.238028 h 30.498577 30.49857 l 25.45493,-25.1206 c 27.15165,-26.795411 33.6786,-31.252054 48.77512,-33.304504 10.50766,-1.42841 49.57236,2.21411 52.22311,4.86966 2.72396,2.729173 5.59145,30.577387 4.84785,47.088578 -0.90162,20.025889 -3.44781,24.211412 -33.02915,54.2960941 L 182.6361,26.681442 v 30.55424 30.55422 l -17.20662,17.471888 c -14.91178,15.1415 -17.87208,17.4716 -22.19669,17.4716 -4.77306,0 -5.47172,-0.83804 -16.06701,-19.27593 z M 165.7287,50.329372 v -29.81201 l 25.92149,-26.2690199 c 15.51313,-15.7206701 27.33035,-29.0503781 29.42979,-33.1958441 3.89916,-7.699295 4.52543,-16.56461 2.51891,-35.683534 l -1.23968,-11.813697 -11.79224,-1.163664 c -32.20598,-3.178228 -34.40205,-2.162254 -68.58129,31.727509 l -26.39357,26.170123 H 85.75005 55.907908 l -10.327349,10.266839 -10.327402,10.2669711 15.572766,9.01358699 c 8.565066,4.95742001 15.872831,9.31405001 16.23949,9.68145001 0.366581,0.36724 1.887591,8.2039599 3.379841,17.4147399 1.492276,9.21081 3.76338,18.76989 5.046847,21.24236 5.360619,10.32648 13.713219,14.80564 32.597859,17.48028 19.29757,2.73323 18.43558,2.25978 24.71547,13.57286 3.17471,5.71921 7.36497,12.95083 9.31164,16.07021 l 3.53946,5.671848 10.0361,-10.414498 10.03607,-10.41466 z m 6.91668,-74.514579 c -8.47823,-3.775101 -14.6018,-13.034036 -14.6018,-22.07805 0,-7.053686 5.6905,-16.49939 12.12136,-20.120319 15.5662,-8.764535 33.48495,0.526071 35.18416,18.243312 1.7027,17.751848 -16.57215,31.137754 -32.70372,23.955057 z m 14.29438,-16.61242 c 4.31141,-4.319376 1.06323,-12.01076 -5.07217,-12.01076 -1.7753,0 -4.05775,0.831506 -5.07225,1.847797 -1.01441,1.016291 -1.84441,3.302926 -1.84441,5.081481 0,1.778397 0.83,4.065191 1.84441,5.081482 1.0145,1.016291 3.29695,1.847797 5.07225,1.847797 1.77525,0 4.05778,-0.831506 5.07217,-1.847797 z M -16.836291,83.380172 c -6.607624,-4.63661 -4.513447,-8.20444 17.8412773,-30.39555 11.6915417,-11.60611 22.4123787,-21.10184 23.8240107,-21.10184 3.34047,0 8.714846,5.42279 8.714846,8.7934 0,3.22561 -41.4816937,45.10101 -44.676934,45.10101 -1.257962,0 -3.824367,-1.07855 -5.7032,-2.39702 z"
       style="fill:none;stroke:#9b4dca;stroke-width:6.35;stroke-miterlimit:4;stroke-dasharray:none;stroke-opacity:1" />
  </g>
</svg>
