<?xml version="1.0" encoding="UTF-8" standalone="no"?>
<svg
   xmlns:dc="http://purl.org/dc/elements/1.1/"
   xmlns:cc="http://creativecommons.org/ns#"
   xmlns:rdf="http://www.w3.org/1999/02/22-rdf-syntax-ns#"
   xmlns:svg="http://www.w3.org/2000/svg"
   xmlns="http://www.w3.org/2000/svg"
   xmlns:sodipodi="http://sodipodi.sourceforge.net/DTD/sodipodi-0.dtd"
   xmlns:inkscape="http://www.inkscape.org/namespaces/inkscape"
   width="267.63333mm"
   height="267.33374mm"
   viewBox="0 0 267.63333 267.33374"
   version="1.1"
   id="svg15214"
   inkscape:version="1.0 (1.0+r73+1)"
   sodipodi:docname="seguridad.svg">
  <defs
     id="defs15208" />
  <sodipodi:namedview
     id="base"
     pagecolor="#ffffff"
     bordercolor="#666666"
     borderopacity="1.0"
     inkscape:pageopacity="0.0"
     inkscape:pageshadow="2"
     inkscape:zoom="0.35"
     inkscape:cx="597.19234"
     inkscape:cy="879.48335"
     inkscape:document-units="mm"
     inkscape:current-layer="layer1"
     inkscape:document-rotation="0"
     showgrid="false"
     fit-margin-top="0"
     fit-margin-left="0"
     fit-margin-right="0"
     fit-margin-bottom="0"
     inkscape:window-width="1440"
     inkscape:window-height="843"
     inkscape:window-x="0"
     inkscape:window-y="0"
     inkscape:window-maximized="1" />
  <metadata
     id="metadata15211">
    <rdf:RDF>
      <cc:Work
         rdf:about="">
        <dc:format>image/svg+xml</dc:format>
        <dc:type
           rdf:resource="http://purl.org/dc/dcmitype/StillImage" />
        <dc:title />
      </cc:Work>
    </rdf:RDF>
  </metadata>
  <g
     inkscape:label="Capa 1"
     inkscape:groupmode="layer"
     id="layer1"
     transform="translate(52.173806,84.529969)">
    <path
       id="path4091"
       d="M 67.810274,175.75201 C 37.781866,165.37248 20.345374,155.86119 0.71863488,139.15397 -25.714324,116.65359 -39.499645,91.278561 -45.728651,53.659441 c -2.52402,-15.24449 -4.128691,-62.337919 -2.714943,-79.680325 1.328685,-16.298121 1.509236,-16.448987 20.959022,-17.503431 39.978991,-2.16781 67.19353,-10.747534 94.393436,-29.758693 6.79895,-4.752287 12.83457,-8.071961 14.67607,-8.071961 1.83719,0 7.89689,3.324225 14.69266,8.059923 27.239426,18.983404 54.559566,27.605381 94.298126,29.759989 8.61317,0.466963 15.4341,1.418617 16.98427,2.369317 3.55102,2.177733 4.65269,11.746548 4.7227,41.02102696 C 212.37679,39.815811 208.87071,64.318551 199.74414,87.446311 183.13267,129.54163 149.60168,157.70483 94.068134,176.206 c -5.73185,1.90961 -11.49509,3.4493 -12.80636,3.42154 -1.31181,-0.0269 -7.36513,-1.77167 -13.4515,-3.87553 z m 26.88672,-19.18328 c 21.522976,-7.82902 35.984866,-15.89489 51.738396,-28.85596 20.73256,-17.0576 33.28516,-38.127829 39.88657,-66.949819 2.47245,-10.79667 3.02091,-18.43315 3.56098,-49.596224 l 0.63841,-36.834657 h -4.46193 c -10.26417,0 -34.85306,-3.897577 -48.34012,-7.662254 -17.25197,-4.81576 -32.50859,-11.434206 -46.047396,-19.976015 -6.41149,-4.045188 -10.49948,-5.909151 -11.5457,-5.26415 -15.51517,9.564502 -20.85387,12.538234 -29.60759,16.492882 -18.902545,8.539003 -54.0553521,16.409537 -73.291433,16.409537 h -4.461907 l 0.638387,36.834657 c 0.542263,31.297034 1.082886,38.780664 3.595555,49.779524 9.116166,39.905339 30.9972869,66.842589 70.438856,86.716269 7.680962,3.8704 31.225252,13.19466 33.790232,13.3823 0.53271,0.0397 6.59352,-1.9753 13.46869,-4.47609 z M 44.004072,67.966441 c -20.139078,-16.88981 -21.52822,-19.17522 -14.990181,-24.6584 6.460702,-5.41816 10.649162,-4.14517 24.809473,7.54037 l 12.58835,10.3878 27.81366,-23.14948 C 118.72809,17.692671 122.56434,14.937145 126.458,14.937145 c 5.59792,0 11.20997,4.461616 11.20997,8.912036 0,2.65388 -5.87613,8.14496 -33.57666,31.3767 -28.601076,23.98631 -34.179216,28.15985 -37.639356,28.15985 -3.36812,0 -7.2041,-2.63512 -22.447882,-15.41929 z"
       style="fill:none;stroke:#9b4dca;stroke-width:6.35;stroke-miterlimit:4;stroke-dasharray:none;stroke-opacity:1" />
  </g>
</svg>
