<svg xmlns="http://www.w3.org/2000/svg" width="109.885" height="109.768" viewBox="0 0 109.885 109.768"><path d="M38.786,140.1a1.608,1.608,0,0,0,2.274-2.275l-3.905-3.905,3.905-3.9a1.608,1.608,0,1,0-2.274-2.275l-5.042,5.042a1.608,1.608,0,0,0,0,2.275Zm0,0" transform="translate(-26.132 -100.063)" fill="#777"/><path d="M117.307,133.917l-3.905,3.905a1.608,1.608,0,1,0,2.275,2.274l5.043-5.043a1.608,1.608,0,0,0,0-2.274l-5.043-5.043a1.608,1.608,0,0,0-2.274,2.275Zm0,0" transform="translate(-88.693 -100.06)" fill="#777"/><path d="M77.438,140.455a1.608,1.608,0,0,0,2.085-.909l3.961-10.085a1.608,1.608,0,1,0-2.993-1.176L76.529,138.37A1.609,1.609,0,0,0,77.438,140.455Zm0,0" transform="translate(-60.016 -100.059)" fill="#777"/><path d="M39.124,221.432H49.958a1.608,1.608,0,0,0,0-3.217H39.124a1.608,1.608,0,0,0,0,3.217Zm0,0" transform="translate(-29.464 -171.488)" fill="#777"/><path d="M136.168,218.215H117.12a1.608,1.608,0,0,0,0,3.217h19.048a1.608,1.608,0,1,0,0-3.217Zm0,0" transform="translate(-90.72 -171.488)" fill="#777"/><path d="M39.124,253.038h4.615a1.608,1.608,0,0,0,0-3.217H39.124a1.608,1.608,0,0,0,0,3.217Zm0,0" transform="translate(-29.464 -196.311)" fill="#777"/><path d="M178.456,249.82a1.608,1.608,0,0,0,0,3.217h2.81a1.608,1.608,0,1,0,0-3.217Zm0,0" transform="translate(-138.892 -196.31)" fill="#777"/><path d="M102.333,251.429a1.608,1.608,0,0,0-1.608-1.608H86.92a1.608,1.608,0,0,0,0,3.217h13.8A1.608,1.608,0,0,0,102.333,251.429Zm0,0" transform="translate(-67.002 -196.311)" fill="#777"/><path d="M213.7,251.429a1.608,1.608,0,0,0,1.608,1.609h5.264a1.608,1.608,0,1,0,0-3.217h-5.264A1.608,1.608,0,0,0,213.7,251.429Zm0,0" transform="translate(-167.837 -196.311)" fill="#777"/><path d="M167.008,152.495h5.553a1.608,1.608,0,1,0,0-3.217h-5.553a1.608,1.608,0,1,0,0,3.217Zm0,0" transform="translate(-129.901 -117.347)" fill="#777"/><path d="M221.855,152.495h33.879a1.608,1.608,0,0,0,0-3.217H221.855a1.608,1.608,0,1,0,0,3.217Zm0,0" transform="translate(-172.976 -117.347)" fill="#777"/><path d="M305.516,182.246H291.792a1.608,1.608,0,0,0,0,3.217h13.724a1.608,1.608,0,0,0,0-3.217Zm0,0" transform="translate(-227.904 -143.239)" fill="#777"/><path d="M250.552,182.246h-4.717a1.608,1.608,0,0,0,0,3.217h4.717a1.608,1.608,0,0,0,0-3.217Zm0,0" transform="translate(-191.81 -143.239)" fill="#777"/><path d="M167.008,185.463h11.557a1.608,1.608,0,0,0,0-3.217H167.008a1.608,1.608,0,1,0,0,3.217Zm0,0" transform="translate(-129.901 -143.239)" fill="#777"/><path d="M111.689,281.16H100.855a1.608,1.608,0,1,0,0,3.216h10.833a1.608,1.608,0,1,0,0-3.216Zm0,0" transform="translate(-77.946 -220.924)" fill="#777"/><path d="M47.447,281.16H39.124a1.608,1.608,0,1,0,0,3.216h8.323a1.608,1.608,0,1,0,0-3.216Zm0,0" transform="translate(-29.464 -220.924)" fill="#777"/><path d="M191.05,281.16H176.9a1.608,1.608,0,1,0,0,3.216H191.05a1.608,1.608,0,1,0,0-3.216Zm0,0" transform="translate(-137.668 -220.924)" fill="#777"/><path d="M303.694,242.668h-7.739a1.608,1.608,0,0,0,0,3.217h7.739a1.608,1.608,0,0,0,0-3.217Zm0,0" transform="translate(-231.174 -190.693)" fill="#777"/><path d="M394.585,245.885H405.51a1.608,1.608,0,1,0,0-3.217H394.585a1.608,1.608,0,0,0,0,3.217Zm0,0" transform="translate(-308.635 -190.693)" fill="#777"/><path d="M359.968,242.668h-2.5a1.608,1.608,0,1,0,0,3.217h2.5a1.608,1.608,0,0,0,0-3.217Zm0,0" transform="translate(-279.481 -190.693)" fill="#777"/><path d="M295.956,327.545h7.739a1.608,1.608,0,0,0,0-3.216h-7.739a1.608,1.608,0,1,0,0,3.216Zm0,0" transform="translate(-231.174 -254.828)" fill="#777"/><path d="M394.585,327.545H405.51a1.608,1.608,0,1,0,0-3.216H394.585a1.608,1.608,0,0,0,0,3.216Zm0,0" transform="translate(-308.635 -254.828)" fill="#777"/><path d="M357.468,327.545h2.5a1.608,1.608,0,1,0,0-3.216h-2.5a1.608,1.608,0,0,0,0,3.216Zm0,0" transform="translate(-279.484 -254.828)" fill="#777"/><path d="M303.694,405.988h-7.739a1.608,1.608,0,0,0,0,3.216h7.739a1.608,1.608,0,0,0,0-3.216Zm0,0" transform="translate(-231.174 -318.961)" fill="#777"/><path d="M405.509,405.988H394.584a1.608,1.608,0,0,0,0,3.216h10.925a1.608,1.608,0,1,0,0-3.216Zm0,0" transform="translate(-308.635 -318.961)" fill="#777"/><path d="M359.968,405.988h-2.5a1.608,1.608,0,1,0,0,3.216h2.5a1.608,1.608,0,1,0,0-3.216Zm0,0" transform="translate(-279.481 -318.961)" fill="#777"/><path d="M102.809.5H7.078A7.086,7.086,0,0,0,0,7.578V85.393a7.086,7.086,0,0,0,7.078,7.078H13.13a1.608,1.608,0,1,0,0-3.216H7.078a3.866,3.866,0,0,1-3.862-3.862v-6.1H61.807v2.772H60.532a3.166,3.166,0,0,0-3.163,3.163v4.028H22.908a1.608,1.608,0,1,0,0,3.216H38.371v5.768H33.515a5.881,5.881,0,0,0-5.874,5.874v3.474a2.683,2.683,0,0,0,2.68,2.68H79.442a2.683,2.683,0,0,0,2.68-2.68v-3.474a5.881,5.881,0,0,0-5.874-5.874H71.393V96.206h29.731a3.166,3.166,0,0,0,3.162-3.163v-.757a7.088,7.088,0,0,0,5.478-6.892l.122-77.816A7.084,7.084,0,0,0,102.809.5ZM60.586,75.463V67.755H101.07v7.709Zm4.437-10.926V61.154H96.632v3.384ZM96.632,78.679v3.384H65.023V78.679ZM41.587,92.471H57.369v.573a3.166,3.166,0,0,0,3.163,3.162h7.644v2.033H41.587Zm34.662,8.985a2.661,2.661,0,0,1,2.658,2.658v2.938H30.856v-2.938a2.661,2.661,0,0,1,2.658-2.658Zm24.821-8.467H60.586V85.281H101.07Zm5.478-7.6a3.862,3.862,0,0,1-2.261,3.509V85.226a3.167,3.167,0,0,0-3.163-3.162H99.848V79.292h6.7Zm0-9.317h-2.314c.033-.182.053-8.375.053-8.375a3.167,3.167,0,0,0-3.163-3.163H99.848V61.154h1.275a3.167,3.167,0,0,0,3.163-3.163V50.175a3.167,3.167,0,0,0-3.163-3.163H92.04a1.608,1.608,0,0,0,0,3.217h9.03v7.709H60.586V50.229H82.033a1.608,1.608,0,0,0,0-3.217h-21.5a3.167,3.167,0,0,0-3.163,3.163v7.816a3.167,3.167,0,0,0,3.163,3.163h1.275v3.384H60.532A3.167,3.167,0,0,0,57.369,67.7s.02,8.193.053,8.375H3.216v-53.7H106.547Zm0-56.917H3.334V7.577A3.865,3.865,0,0,1,7.2,3.717h95.49a3.866,3.866,0,0,1,3.862,3.862Zm0,0" transform="translate(0 -0.5)" fill="#777"/><path d="M37.993,29.262a4.72,4.72,0,1,0,4.72,4.719A4.724,4.724,0,0,0,37.993,29.262Zm0,6.222a1.5,1.5,0,1,1,1.5-1.5A1.505,1.505,0,0,1,37.993,35.484Zm0,0" transform="translate(-26.132 -23.089)" fill="#777"/><path d="M93.978,29.262A4.72,4.72,0,1,0,98.7,33.981,4.725,4.725,0,0,0,93.978,29.262Zm0,6.222a1.5,1.5,0,1,1,1.5-1.5A1.5,1.5,0,0,1,93.978,35.484Zm0,0" transform="translate(-70.101 -23.089)" fill="#777"/><path d="M149.965,29.262a4.72,4.72,0,1,0,4.72,4.719A4.724,4.724,0,0,0,149.965,29.262Zm0,6.222a1.5,1.5,0,1,1,1.5-1.5A1.505,1.505,0,0,1,149.965,35.484Zm0,0" transform="translate(-114.073 -23.089)" fill="#777"/></svg>