<?xml version="1.0" encoding="UTF-8" standalone="no"?>
<svg
   xmlns:dc="http://purl.org/dc/elements/1.1/"
   xmlns:cc="http://creativecommons.org/ns#"
   xmlns:rdf="http://www.w3.org/1999/02/22-rdf-syntax-ns#"
   xmlns:svg="http://www.w3.org/2000/svg"
   xmlns="http://www.w3.org/2000/svg"
   xmlns:sodipodi="http://sodipodi.sourceforge.net/DTD/sodipodi-0.dtd"
   xmlns:inkscape="http://www.inkscape.org/namespaces/inkscape"
   width="262.53149mm"
   height="262.24966mm"
   viewBox="0 0 262.53149 262.24966"
   version="1.1"
   id="svg5414"
   inkscape:version="1.0 (1.0+r73+1)"
   sodipodi:docname="software.svg">
  <defs
     id="defs5408" />
  <sodipodi:namedview
     id="base"
     pagecolor="#ffffff"
     bordercolor="#666666"
     borderopacity="1.0"
     inkscape:pageopacity="0.0"
     inkscape:pageshadow="2"
     inkscape:zoom="0.35"
     inkscape:cx="414.92867"
     inkscape:cy="321.53146"
     inkscape:document-units="mm"
     inkscape:current-layer="layer1"
     inkscape:document-rotation="0"
     showgrid="false"
     fit-margin-top="0"
     fit-margin-left="0"
     fit-margin-right="0"
     fit-margin-bottom="0"
     inkscape:window-width="1440"
     inkscape:window-height="843"
     inkscape:window-x="0"
     inkscape:window-y="0"
     inkscape:window-maximized="1" />
  <metadata
     id="metadata5411">
    <rdf:RDF>
      <cc:Work
         rdf:about="">
        <dc:format>image/svg+xml</dc:format>
        <dc:type
           rdf:resource="http://purl.org/dc/dcmitype/StillImage" />
        <dc:title />
      </cc:Work>
    </rdf:RDF>
  </metadata>
  <g
     inkscape:label="Capa 1"
     inkscape:groupmode="layer"
     id="layer1"
     transform="translate(141.09313,140.95221)">
    <path
       d="m -55.34262,-126.20414 a 11.276677,11.276679 0 1 0 11.276647,11.27429 11.286232,11.286233 0 0 0 -11.276647,-11.27429 z m 0,14.86516 a 3.5836929,3.5836934 0 1 1 3.583702,-3.58369 3.5956346,3.5956351 0 0 1 -3.583702,3.58369 z m 0,0 m -28.705334,-14.86516 a 11.276677,11.276679 0 1 0 11.281437,11.27429 11.288619,11.288621 0 0 0 -11.281437,-11.27429 z m 0,14.86516 a 3.5836929,3.5836934 0 1 1 3.583702,-3.58369 3.5836929,3.5836934 0 0 1 -3.583702,3.58369 z m 0,0 m -28.707736,-14.86516 a 11.276677,11.276679 0 1 0 11.27664,11.27429 11.286232,11.286233 0 0 0 -11.27664,-11.27429 z m 0,14.86516 a 3.5836929,3.5836934 0 1 1 3.5837,-3.58369 3.5956346,3.5956351 0 0 1 -3.5837,3.58369 z m 0,0 m 217.28624,-29.61323 h -228.71344 a 16.929347,16.92935 0 0 0 -16.91024,16.91023 V 61.867939 a 16.929347,16.92935 0 0 0 16.91024,16.91021 h 14.459 a 3.8417283,3.8417288 0 1 0 0,-7.68345 h -14.459 a 9.2363623,9.2363639 0 0 1 -9.22682,-9.22676 V 47.294199 H 6.571554 v 6.62269 h -3.04612 a 7.5639755,7.5639769 0 0 0 -7.55677,7.55677 v 9.62343 h -82.331696 a 3.8417295,3.84173 0 1 0 0,7.68346 h 36.943057 v 13.78048 h -11.601582 a 14.050449,14.050452 0 0 0 -14.033765,14.033681 v 8.29987 a 6.4100234,6.4100244 0 0 0 6.40289,6.40287 H 48.703834 a 6.4100234,6.4100244 0 0 0 6.40286,-6.40287 v -8.29987 A 14.050449,14.050452 0 0 0 41.072934,92.561029 h -11.59919 v -4.85949 h 71.031086 a 7.5639755,7.5639769 0 0 0 7.55445,-7.55684 v -1.80858 a 16.934123,16.934126 0 0 0 13.08761,-16.46587 l 0.29147,-185.912229 a 16.92457,16.924573 0 0 0 -16.90781,-16.91023 z M 3.654434,38.143879 v -18.41542 h 96.721396 v 18.41782 z m 10.60057,-26.10359 v -8.08244 h 75.51786 v 8.08484 z m 75.51786,33.78705 v 8.08476 h -75.51786 v -8.08476 z m -131.509366,32.95081 h 37.705166 v 1.36894 a 7.5639755,7.5639769 0 0 0 7.55677,7.55445 h 18.26246 v 4.85709 h -63.524396 z m 82.811836,21.466261 a 6.3574642,6.3574652 0 0 1 6.35031,6.3503 v 7.01928 h -114.7999 v -7.01928 a 6.3574642,6.3574652 0 0 1 6.350317,-6.3503 z M 100.37583,80.015689 H 3.654434 v -18.41534 h 96.721396 z m 13.08762,-18.15734 a 9.226808,9.2268096 0 0 1 -5.40177,8.38342 v -8.77282 a 7.5663637,7.566365 0 0 0 -7.55685,-7.55445 h -3.048506 v -6.6227 h 16.007126 z m 0,-22.2595 h -5.52846 c 0.0786,-0.43483 0.12669,-20.0089 0.12669,-20.0089 a 7.5663637,7.566365 0 0 0 -7.55683,-7.55685 h -3.048526 v -8.07525 h 3.046116 a 7.5663637,7.566365 0 0 0 7.55684,-7.55678 v -18.67342 a 7.5663637,7.566365 0 0 0 -7.55684,-7.55677 H 78.802064 a 3.8429123,3.8429128 0 0 0 0,7.68577 h 21.573766 v 18.41782 H 3.654434 v -18.41782 h 51.23963 a 3.8429123,3.8429128 0 0 0 0,-7.68577 H 3.527834 a 7.5663637,7.566365 0 0 0 -7.55677,7.55677 v 18.67342 a 7.5663637,7.566365 0 0 0 7.55677,7.55678 h 3.04611 v 8.08484 h -3.04851 a 7.5663637,7.566365 0 0 0 -7.55677,7.55437 c 0,0 0.0478,19.57412 0.1266,20.00897 H -133.40971 v -128.2961 h 246.87076 z m 0,-135.981881 h -246.59124 v -27.661328 a 9.2339737,9.2339753 0 0 1 9.23636,-9.22203 h 228.13762 a 9.2363623,9.2363639 0 0 1 9.22684,9.2268 z m 0,0 M 51.200474,66.966329 h -5.97282 a 3.841714,3.8417145 0 1 0 0,7.68338 h 5.97282 a 3.841714,3.8417145 0 1 0 0,-7.68338 z m 0,0 m 39.15062,0 h -26.10119 a 3.841714,3.8417145 0 0 0 0,7.68338 h 26.10119 a 3.841714,3.8417145 0 1 0 0,-7.68338 z m 0,0 m -58.18478,0 h -18.48946 a 3.841714,3.8417145 0 0 0 0,7.68338 h 18.48946 a 3.841714,3.8417145 0 0 0 0,-7.68338 z m 0,0 m 13.05416,-34.18843 h 5.97281 a 3.8417295,3.84173 0 1 0 0,-7.68346 h -5.97281 a 3.8417295,3.84173 0 0 0 0,7.68346 z m 0,0 m 19.03173,0 h 26.10129 a 3.8417295,3.84173 0 1 0 0,-7.68346 h -26.10129 a 3.8417295,3.84173 0 0 0 0,7.68346 z m 0,0 m -50.57295,0 h 18.48946 a 3.8417295,3.84173 0 0 0 0,-7.68346 h -18.48946 a 3.8417295,3.84173 0 1 0 0,7.68346 z m 0,0 m 37.52122,-49.55526 h -5.97282 a 3.8429255,3.8429261 0 1 0 0,7.68585 h 5.97282 a 3.8429255,3.8429261 0 0 0 0,-7.68585 z m 0,0 m 13.05173,7.68585 h 26.10129 a 3.8429255,3.8429261 0 1 0 0,-7.68585 h -26.10129 a 3.8429255,3.8429261 0 0 0 0,7.68585 z m 0,0 m -32.08589,-7.68585 h -18.48946 a 3.8429255,3.8429261 0 0 0 0,7.68585 h 18.48946 a 3.8429255,3.8429261 0 0 0 0,-7.68585 z m 0,0 m -45.72316,19.73658 h -33.806126 a 3.8417124,3.841713 0 1 0 0,7.68338 h 33.806126 a 3.8417124,3.841713 0 1 0 0,-7.68338 z m 0,0 m -84.57263,0 h -19.884704 a 3.8417124,3.841713 0 1 0 0,7.68338 h 19.884704 a 3.8417124,3.841713 0 1 0 0,-7.68338 z m 0,0 m 37.652616,0 h -25.883764 a 3.8417124,3.841713 0 1 0 0,7.68338 h 25.881357 a 3.8417124,3.841713 0 1 0 0,-7.68338 z m 0,0 m 8.037063,-43.03298 h 27.611101 a 3.8429105,3.842911 0 0 0 0,-7.685771 h -27.611101 a 3.8429105,3.842911 0 1 0 0,7.685771 z m 0,0 m 51.68871105,-7.685771 H -12.020566 a 3.8429105,3.842911 0 0 0 0,7.685771 h 11.26948005 a 3.8429105,3.842911 0 0 0 0,-7.685771 z m 0,0 m 45.08283995,0 h -32.78842 a 3.8429105,3.842911 0 0 0 0,7.685771 h 32.78842 a 3.8429105,3.842911 0 0 0 0,-7.685771 z m 0,0 m -68.64677,-9.219655 h 80.94119 a 3.8429242,3.8429247 0 0 0 0,-7.685849 h -80.94119 a 3.8429242,3.8429248 0 1 0 0,7.685849 z m 0,0 m -28.124781,0 h 13.266791 a 3.8429242,3.8429247 0 1 0 0,-7.685849 h -13.266791 a 3.8429242,3.8429248 0 1 0 0,7.685849 z m 0,0 m 20.919171,47.710826 a 3.8417116,3.8417122 0 0 0 3.84167,3.84416 h 12.57642 a 3.8429255,3.8429261 0 1 0 0,-7.68585 h -12.57642 a 3.8417116,3.8417122 0 0 0 -3.84167,3.84169 z m 0,0 m -25.16232,0 a 3.8417116,3.8417122 0 0 0 -3.841698,-3.84169 h -32.981873 a 3.8429255,3.8429261 0 0 0 0,7.68585 h 32.969967 a 3.8417116,3.8417122 0 0 0 3.853604,-3.84416 z m 0,0 m 10.113221,-3.84169 a 3.8429255,3.8429261 0 0 0 0,7.68585 h 6.713429 a 3.8429255,3.8429261 0 1 0 0,-7.68585 z m 0,0 m -71.444455,7.68585 h 11.02585 a 3.8429255,3.8429261 0 0 0 0,-7.68585 h -11.02585 a 3.8429255,3.8429261 0 0 0 0,7.68585 z m 0,0 m 85.502034,-23.89131 H -78.02019 a 3.8429255,3.8429261 0 0 0 0,7.68585 h 45.508044 a 3.8429255,3.8429261 0 1 0 0,-7.68585 z m 0,0 m -85.502034,7.68585 h 25.883787 a 3.8429255,3.8429261 0 0 0 0,-7.68585 h -25.883787 a 3.8429255,3.8429261 0 0 0 0,7.68585 z m 0,0 m 18.544431,-22.811377 a 3.8417116,3.8417122 0 0 0 4.98131,-2.171697 l 9.463352,-24.094366 a 3.8417116,3.8417122 0 1 0 -7.150682,-2.809597 l -9.465731,24.094287 a 3.8441003,3.8441008 0 0 0 2.171751,4.981373 z m 0,0 m 26.739083,-15.622521 -9.329553,9.329563 a 3.8424665,3.842467 0 1 0 5.435256,5.432843 l 12.048411,-12.048342 a 3.8417116,3.8417122 0 0 0 0,-5.432922 l -12.048411,-12.048339 a 3.8424646,3.8424652 0 0 0 -5.432848,5.435234 z m 0,0 m -38.130424,14.764803 a 3.8424668,3.8424673 0 0 0 5.43285,-5.43524 l -9.32956,-9.329563 9.32956,-9.317585 a 3.8424644,3.8424649 0 1 0 -5.43285,-5.435235 l -12.04601,12.045942 a 3.8417116,3.8417122 0 0 0 0,5.43524 z m 0,0"
       style="fill:#9b4dca;stroke-width:2.38912;fill-opacity:1"
       id="path1236"
       inkscape:transform-center-x="79.055686"
       inkscape:transform-center-y="-1317.5659" />
  </g>
</svg>
