<?xml version="1.0" encoding="UTF-8" standalone="no"?>
<svg
   xmlns:dc="http://purl.org/dc/elements/1.1/"
   xmlns:cc="http://creativecommons.org/ns#"
   xmlns:rdf="http://www.w3.org/1999/02/22-rdf-syntax-ns#"
   xmlns:svg="http://www.w3.org/2000/svg"
   xmlns="http://www.w3.org/2000/svg"
   xmlns:sodipodi="http://sodipodi.sourceforge.net/DTD/sodipodi-0.dtd"
   xmlns:inkscape="http://www.inkscape.org/namespaces/inkscape"
   width="229.16449mm"
   height="341.65936mm"
   viewBox="0 0 229.16449 341.65936"
   version="1.1"
   id="svg9986"
   inkscape:version="1.0 (1.0+r73+1)"
   sodipodi:docname="tablet.svg">
  <defs
     id="defs9980" />
  <sodipodi:namedview
     id="base"
     pagecolor="#ffffff"
     bordercolor="#666666"
     borderopacity="1.0"
     inkscape:pageopacity="0.0"
     inkscape:pageshadow="2"
     inkscape:zoom="0.35"
     inkscape:cx="241.18077"
     inkscape:cy="613.02985"
     inkscape:document-units="mm"
     inkscape:current-layer="layer1"
     inkscape:document-rotation="0"
     showgrid="false"
     fit-margin-top="0"
     fit-margin-left="0"
     fit-margin-right="0"
     fit-margin-bottom="0"
     inkscape:window-width="1440"
     inkscape:window-height="843"
     inkscape:window-x="0"
     inkscape:window-y="0"
     inkscape:window-maximized="1" />
  <metadata
     id="metadata9983">
    <rdf:RDF>
      <cc:Work
         rdf:about="">
        <dc:format>image/svg+xml</dc:format>
        <dc:type
           rdf:resource="http://purl.org/dc/dcmitype/StillImage" />
        <dc:title />
      </cc:Work>
    </rdf:RDF>
  </metadata>
  <g
     inkscape:label="Capa 1"
     inkscape:groupmode="layer"
     id="layer1"
     transform="translate(-16.197517,128.49635)">
    <path
       id="path2013"
       style="fill:none;fill-opacity:1;stroke:#9b4dca;stroke-width:6.35;stroke-linecap:round;stroke-miterlimit:4;stroke-dasharray:none;stroke-opacity:1;paint-order:fill markers stroke"
       d="m 64.241564,-125.32106 c -22.176978,0 -41.007956,14.25681 -44.869047,32.647333 V 177.11095 c 0,0.0904 0.01402,0.17637 0.01402,0.26823 3.878527,18.37423 22.69871,32.60884 44.86021,32.60884 H 196.57819 c 24.90197,0 45.60882,-17.97415 45.60882,-39.59614 l -0.003,-256.116669 c -4.4e-4,-21.622301 -20.70385,-39.596561 -45.60926,-39.596561 z m 0.0034,36.31049 H 196.57782 c 2.46221,0 3.78822,1.150064 3.78822,3.286045 V 170.39214 c 0,2.13442 -1.32601,3.28952 -3.78822,3.28952 H 64.244501 c -2.460387,0 -3.785658,-1.15496 -3.785658,-3.28952 V -85.724525 c 0,-2.13614 1.325271,-3.286045 3.785658,-3.286045 z m 63.883106,269.17666 a 11.562641,11.562641 0 0 1 11.55988,11.56433 11.562641,11.562641 0 0 1 -11.55988,11.56496 11.562641,11.562641 0 0 1 -11.56621,-11.56496 11.562641,11.562641 0 0 1 11.56621,-11.56433 z" />
  </g>
</svg>
