<?xml version="1.0" encoding="UTF-8" standalone="no"?>
<svg
   xmlns:dc="http://purl.org/dc/elements/1.1/"
   xmlns:cc="http://creativecommons.org/ns#"
   xmlns:rdf="http://www.w3.org/1999/02/22-rdf-syntax-ns#"
   xmlns:svg="http://www.w3.org/2000/svg"
   xmlns="http://www.w3.org/2000/svg"
   xmlns:sodipodi="http://sodipodi.sourceforge.net/DTD/sodipodi-0.dtd"
   xmlns:inkscape="http://www.inkscape.org/namespaces/inkscape"
   width="267.70389mm"
   height="267.41937mm"
   viewBox="0 0 267.70389 267.41937"
   version="1.1"
   id="svg16448"
   inkscape:version="1.0 (1.0+r73+1)"
   sodipodi:docname="time.svg">
  <defs
     id="defs16442" />
  <sodipodi:namedview
     id="base"
     pagecolor="#ffffff"
     bordercolor="#666666"
     borderopacity="1.0"
     inkscape:pageopacity="0.0"
     inkscape:pageshadow="2"
     inkscape:zoom="0.35"
     inkscape:cx="643.03995"
     inkscape:cy="939.64515"
     inkscape:document-units="mm"
     inkscape:current-layer="layer1"
     inkscape:document-rotation="0"
     showgrid="false"
     fit-margin-top="0"
     fit-margin-left="0"
     fit-margin-right="0"
     fit-margin-bottom="0"
     inkscape:window-width="1440"
     inkscape:window-height="843"
     inkscape:window-x="0"
     inkscape:window-y="0"
     inkscape:window-maximized="1" />
  <metadata
     id="metadata16445">
    <rdf:RDF>
      <cc:Work
         rdf:about="">
        <dc:format>image/svg+xml</dc:format>
        <dc:type
           rdf:resource="http://purl.org/dc/dcmitype/StillImage" />
        <dc:title />
      </cc:Work>
    </rdf:RDF>
  </metadata>
  <g
     inkscape:label="Capa 1"
     inkscape:groupmode="layer"
     id="layer1"
     transform="translate(64.304321,100.44778)">
    <path
       id="path16507"
       d="M 52.888639,162.7425 C 0.56707785,155.96766 -43.3768,117.56622 -56.803161,66.884964 -66.24577,31.243794 -60.031765,-7.5626962 -39.959336,-38.305798 -32.649084,-49.502012 -13.303254,-68.804742 -2.0824071,-76.098537 49.341239,-109.52436 116.64849,-102.85384 160.86976,-59.949349 c 52.50033,50.9360748 52.50033,135.354273 0,186.290449 -28.89189,28.03144 -68.778651,41.47772 -107.981121,36.4014 z m 41.93689,-27.91965 c 28.899321,-6.85184 54.885401,-27.75117 68.537821,-55.121916 7.89321,-15.82452 10.86895,-28.55648 10.86895,-46.50512 0,-40.2761222 -21.94065,-75.647394 -58.0449,-93.576037 -15.85947,-7.875746 -28.619551,-10.844689 -46.608601,-10.844689 -17.98847,0 -30.74903,2.968943 -46.60863,10.844689 -36.104354,17.928643 -58.04498,53.2999148 -58.04498,93.576037 0,17.94864 2.975716,30.6806 10.869057,46.50512 15.6931789,31.461866 45.386996,52.583876 80.934613,57.570236 9.7536,1.36811 26.55295,0.28871 38.09667,-2.44832 z m -5.01431,-68.782696 c -24.76537,-14.85728 -29.88863,-18.38944 -31.6185,-21.79929 -1.85759,-3.66103 -2.03285,-7.41976 -1.74784,-37.4642002 0.31263,-32.7778548 0.36555,-33.4428588 2.91238,-35.9833878 3.82529,-3.814207 10.29692,-3.526896 13.86856,0.615606 2.75677,3.197913 2.76169,3.261466 2.76169,34.2790218 V 36.763164 l 25.946921,15.32763 c 14.27057,8.43023 26.5929,15.97228 27.38255,16.76021 0.78968,0.78804 1.43568,3.40027 1.43568,5.80536 0,5.2134 -3.52793,9.11381 -8.24383,9.11381 -1.98483,0 -14.03356,-6.53333 -32.697611,-17.73002 z"
       style="fill:none;stroke:#9b4dca;stroke-width:6.35;stroke-miterlimit:4;stroke-dasharray:none;stroke-opacity:1" />
  </g>
</svg>
