<?xml version="1.0" encoding="UTF-8" standalone="no"?>
<svg
   xmlns:dc="http://purl.org/dc/elements/1.1/"
   xmlns:cc="http://creativecommons.org/ns#"
   xmlns:rdf="http://www.w3.org/1999/02/22-rdf-syntax-ns#"
   xmlns:svg="http://www.w3.org/2000/svg"
   xmlns="http://www.w3.org/2000/svg"
   xmlns:sodipodi="http://sodipodi.sourceforge.net/DTD/sodipodi-0.dtd"
   xmlns:inkscape="http://www.inkscape.org/namespaces/inkscape"
   width="268.25272mm"
   height="267.39249mm"
   viewBox="0 0 268.25272 267.39249"
   version="1.1"
   id="svg18254"
   inkscape:version="1.0 (1.0+r73+1)"
   sodipodi:docname="work.svg">
  <defs
     id="defs18248" />
  <sodipodi:namedview
     id="base"
     pagecolor="#ffffff"
     bordercolor="#666666"
     borderopacity="1.0"
     inkscape:pageopacity="0.0"
     inkscape:pageshadow="2"
     inkscape:zoom="0.35"
     inkscape:cx="472.64539"
     inkscape:cy="805.30864"
     inkscape:document-units="mm"
     inkscape:current-layer="layer1"
     inkscape:document-rotation="0"
     showgrid="false"
     fit-margin-top="0"
     fit-margin-left="0"
     fit-margin-right="0"
     fit-margin-bottom="0"
     inkscape:window-width="1440"
     inkscape:window-height="843"
     inkscape:window-x="0"
     inkscape:window-y="0"
     inkscape:window-maximized="1" />
  <metadata
     id="metadata18251">
    <rdf:RDF>
      <cc:Work
         rdf:about="">
        <dc:format>image/svg+xml</dc:format>
        <dc:type
           rdf:resource="http://purl.org/dc/dcmitype/StillImage" />
        <dc:title />
      </cc:Work>
    </rdf:RDF>
  </metadata>
  <g
     inkscape:label="Capa 1"
     inkscape:groupmode="layer"
     id="layer1"
     transform="translate(19.22076,64.904579)">
    <path
       id="path16631"
       d="m 50.151879,197.9207 c -0.957422,-0.88431 -1.507332,-5.35 -1.507332,-12.24118 v -10.84895 l -4.583297,-1.76871 -4.583271,-1.76882 -8.323501,7.62894 c -4.577927,4.19584 -9.168368,7.62884 -10.200958,7.62884 -1.032589,0 -7.153328,-4.89323 -13.6016468,-10.8739 -13.480706,-12.50313 -13.394875,-11.36314 -1.657112,-22.01762 l 7.4774158,-6.78736 -1.907751,-4.48564 -1.9077519,-4.48577 -12.7011899,-0.3289 -12.7012442,-0.32893 v -16.24256 -16.24267 l 12.7012442,-0.3289 12.7011899,-0.32893 1.9077519,-4.485749 1.907751,-4.48566 -7.4774158,-6.78733 c -11.737763,-10.65451 -11.823594,-9.5145 1.657112,-22.01765 6.4483188,-5.98067 12.5690578,-10.8739 13.6016468,-10.8739 1.03259,0 5.623031,3.43302 10.200958,7.62884 l 8.323501,7.62894 4.583271,-1.76882 4.583297,-1.76871 v -10.84895 c 0,-6.89118 0.54991,-11.35687 1.507332,-12.24129 2.088462,-1.92892 32.580551,-1.92892 34.668991,0 0.95745,0.88442 1.50733,5.35011 1.50733,12.24129 v 10.84895 l 4.5833,1.76871 4.58327,1.76882 8.3235,-7.62894 c 4.57793,-4.19582 9.16839,-7.62884 10.20096,-7.62884 1.03261,0 7.15332,4.89323 13.60164,10.8739 13.48071,12.50315 13.3949,11.36314 1.65714,22.01765 l -7.47744,6.78733 1.90775,4.48566 1.90775,4.485749 12.70122,0.32893 12.70124,0.3289 v 16.24267 16.24256 l -12.70124,0.32893 -12.70122,0.3289 -1.90775,4.48577 -1.90775,4.48564 7.47744,6.78736 c 11.73776,10.65448 11.82357,9.51449 -1.65714,22.01762 -6.44832,5.98067 -12.56903,10.8739 -13.60164,10.8739 -1.03257,0 -5.62303,-3.433 -10.20096,-7.62884 l -8.3235,-7.62894 -4.58327,1.76882 -4.5833,1.76871 v 10.84895 c 0,6.89118 -0.54988,11.35687 -1.50733,12.24118 -1.01291,0.93557 -6.699331,1.39221 -17.334497,1.39221 -10.635165,0 -16.32159,-0.45664 -17.334494,-1.39221 z m 27.383475,-18.20989 c 0.467651,-8.11948 1.108816,-11.11547 2.512219,-11.74195 7.620797,-3.40214 14.212567,-5.78204 16.015387,-5.78204 1.17192,0 5.67738,3.24667 10.01202,7.21463 l 7.88122,7.21466 6.91775,-6.31005 6.91774,-6.31005 -8.37597,-7.79602 -8.37591,-7.7959 3.40878,-7.32091 c 1.87484,-4.02657 3.86419,-8.10406 4.42085,-9.06122 0.76215,-1.31056 3.84865,-1.82276 12.4982,-2.07396 l 11.48609,-0.33367 v -8.6578 -8.65793 h -11.15129 c -7.45617,0 -11.54115,-0.48056 -12.32784,-1.45023 -0.64709,-0.79764 -2.77706,-5.01518 -4.73323,-9.37216 l -3.55674,-7.921879 8.3535,-7.77516 8.35356,-7.77512 -6.91774,-6.30994 -6.91775,-6.31016 -7.88122,7.21466 c -4.33464,3.96809 -8.8401,7.21463 -10.01202,7.21463 -1.80282,0 -8.39459,-2.37977 -16.015387,-5.78204 -1.403403,-0.62651 -2.044436,-3.62247 -2.512219,-11.74181 l -0.628041,-10.90081 h -9.42094 -9.420886 l -0.628095,10.90081 c -0.467651,8.11934 -1.108789,11.1153 -2.512218,11.74181 -7.620768,3.40227 -14.212544,5.78204 -16.015388,5.78204 -1.171919,0 -5.67735,-3.24654 -10.011992,-7.21463 l -7.88125,-7.21466 -6.917716,6.31016 -6.9177168,6.30994 8.3759148,7.79603 8.375914,7.796 -3.408785,7.320939 c -1.874811,4.02643 -3.86424,8.10403 -4.420844,9.06118 -0.762159,1.31046 -3.848629,1.82267 -12.4982018,2.07386 l -11.486065,0.33367 v 8.61441 8.6143 l 11.486065,0.33367 c 8.6495728,0.2513 11.7360428,0.76343 12.4982018,2.07385 0.556604,0.95716 2.546033,5.03476 4.420844,9.06122 l 3.408785,7.32091 -8.375914,7.79603 -8.3759148,7.796 6.9177168,6.30994 6.917716,6.31015 7.88125,-7.21463 c 4.334642,-3.96809 8.840073,-7.21466 10.011992,-7.21466 1.80332,0 8.442933,2.39766 16.015388,5.78321 1.40888,0.62987 1.969267,3.29936 2.221574,10.58175 0.185631,5.35673 0.601371,10.41503 0.923898,11.24074 0.423969,1.08559 3.11359,1.40698 9.711584,1.1602 l 9.125083,-0.3411 z M 54.013922,153.30671 C 46.413157,150.82087 36.991345,142.54256 33.459052,135.2466 29.150339,126.347 29.336737,113.95304 33.90244,105.7745 40.499561,93.956781 53.194931,86.774511 67.486532,86.774511 c 9.802045,0 17.741818,2.7927 24.944568,8.77395 11.78904,9.789929 15.55594,26.269849 9.07397,39.698139 -3.63501,7.53033 -13.0039,15.59668 -21.060305,18.13203 -7.231803,2.27594 -19.352524,2.243 -26.430684,-0.0719 z m 26.122472,-9.39278 c 17.476496,-8.1761 20.945236,-28.50312 7.050746,-41.31755 -17.839476,-16.452899 -47.983243,-4.848439 -47.805629,18.40376 0.153353,20.05634 21.36738,31.98368 40.754883,22.91379 z M 187.0692,128.30936 c -0.82902,-0.76573 -1.50733,-3.47385 -1.50733,-6.01803 v -4.62582 l -3.52306,3.11746 c -1.93765,1.71476 -4.67437,3.11753 -6.08153,3.11753 -2.56812,0 -18.03008,-13.76659 -18.03008,-16.0532 0,-0.64439 1.46336,-2.77786 3.25197,-4.74112 l 3.25197,-3.569679 h -3.33457 c -7.32058,0 -8.19386,-1.40152 -8.19386,-13.15087 0,-12.02725 0.80933,-13.53342 7.27154,-13.53342 h 4.25689 l -3.25197,-3.56967 c -1.78861,-1.96327 -3.25197,-4.09673 -3.25197,-4.74113 0,-2.28661 15.46196,-16.05319 18.03008,-16.05319 1.40716,0 4.14388,1.40276 6.08153,3.11753 l 3.52306,3.11745 v -4.62581 c 0,-2.54418 0.67831,-5.2523 1.50733,-6.01803 2.03581,-1.88021 22.58425,-1.88021 24.62004,0 0.82902,0.76573 1.50736,3.47385 1.50736,6.01803 v 4.62581 l 3.52305,-3.11745 c 1.93765,-1.71477 4.67432,-3.11753 6.08151,-3.11753 2.56815,0 18.03011,13.76658 18.03011,16.05319 0,0.6444 -1.46339,2.77786 -3.25197,4.74113 l -3.25199,3.56967 h 4.25688 c 6.46223,0 7.27154,1.50617 7.27154,13.53342 0,11.74935 -0.87326,13.15087 -8.19385,13.15087 h -3.33457 l 3.25199,3.569679 c 1.78858,1.96326 3.25197,4.09673 3.25197,4.74112 0,2.28661 -15.46196,16.0532 -18.03011,16.0532 -1.40719,0 -4.14386,-1.40277 -6.08151,-3.11753 l -3.52305,-3.11746 v 4.62582 c 0,2.54418 -0.67834,5.2523 -1.50736,6.01803 -2.03579,1.88021 -22.58423,1.88021 -24.62004,0 z m 17.3345,-13.04449 c 0,-5.21078 0.48823,-6.63109 2.79175,-8.12123 4.02611,-2.60463 5.40075,-2.301 11.09519,2.45068 l 5.10133,4.25672 3.14698,-2.90674 3.14706,-2.90674 -4.47633,-4.13445 c -4.90355,-4.529039 -5.4988,-7.142829 -2.52097,-11.069509 1.57223,-2.07325 3.17214,-2.57852 8.16483,-2.57852 h 6.20937 v -4.06067 -4.06077 h -5.86772 c -10.9067,0 -13.59791,-6.06872 -6.0934,-13.74085 l 4.36851,-4.46616 -3.07287,-2.66634 -3.07288,-2.66637 -5.06761,4.22868 c -5.66016,4.72302 -7.03877,5.02502 -11.06149,2.42247 -2.30352,-1.49013 -2.79175,-2.91044 -2.79175,-8.12122 v -6.31537 h -5.02447 -5.02446 v 6.31537 c 0,5.21078 -0.48826,6.63109 -2.79178,8.12122 -4.02272,2.60255 -5.40131,2.30055 -11.06149,-2.42247 l -5.06759,-4.22868 -3.04697,2.64385 -3.04691,2.64385 4.34255,4.89485 c 4.85968,5.47772 5.20949,7.05696 2.38718,10.77865 -1.57223,2.07324 -3.17217,2.57852 -8.16486,2.57852 h -6.20934 v 4.06077 4.06067 h 5.86766 c 10.96867,0 13.79201,6.43768 5.98554,13.648029 l -4.47633,4.13445 3.14706,2.90674 3.14701,2.90674 5.1013,-4.25672 c 5.69444,-4.75168 7.06908,-5.05531 11.09519,-2.45068 2.30352,1.49014 2.79178,2.91045 2.79178,8.12123 v 6.31537 h 5.02446 5.02447 z m -15.20174,-14.88133 c -11.21728,-6.921339 -11.21728,-21.457019 0,-28.378359 7.99615,-4.93385 20.62263,-2.66438 25.80274,4.63761 1.06953,1.50768 2.26145,5.05669 2.64864,7.88662 1.37602,10.05621 -6.95809,18.487659 -18.27411,18.487659 -4.05238,0 -7.25021,-0.82746 -10.17727,-2.63353 z M 204.314,93.779991 c 1.24159,-0.61376 2.94471,-2.64851 3.78476,-4.52162 4.45559,-9.93529 -11.60542,-16.55326 -16.96048,-6.98876 -4.38986,7.84079 4.64027,15.72953 13.17572,11.51038 z M 40.393728,36.517461 c -0.353219,-0.85005 -0.478314,-6.466204 -0.278209,-12.480395 l 0.364146,-10.934673 9.060127,-0.339831 9.060074,-0.339937 0.596715,-3.7206223 c 0.328056,-2.046341 1.221158,-7.610502 1.98448,-12.36472 4.465215,-27.8127897 18.906411,-47.4588957 38.571887,-52.4740457 2.611862,-0.666195 5.496482,-2.197047 6.410292,-3.402039 1.48252,-1.954927 3.40432,-2.190777 17.84856,-2.190777 14.44424,0 16.36604,0.23585 17.84852,2.190777 0.91382,1.204992 3.79844,2.735844 6.4103,3.402039 12.6941,3.237282 22.40209,11.736149 29.87681,26.155676 5.0089,9.662768 9.83578,26.6769857 9.91867,34.9623597 0.0238,2.552435 0.47733,5.2669283 1.00396,6.0321823 0.55187,0.801819 4.66852,1.53924 9.71574,1.740296 l 8.7581,0.348986 v 12.181999 12.181995 l -83.25405,0.29829 c -68.408181,0.24504 -83.368622,0.022 -83.896201,-1.24732 z M 199.37923,25.284286 v -4.64066 H 147.87819 96.37721 V 16.58296 12.522162 h 41.45203 41.45203 V 7.9834997 c 0,-6.864614 -3.15431,-20.6219167 -6.74298,-29.4088617 -5.70617,-13.971958 -13.48121,-22.159304 -24.43232,-25.728057 l -5.25224,-1.71151 v 19.671745 19.6718504 h -4.36869 -4.36875 l -0.34184,-21.7536984 -0.34179,-21.75346 h -9.42097 -9.42088 l -0.34185,21.75346 -0.34181,21.7536984 h -4.36875 -4.36869 V -29.174267 -48.826988 l -5.922382,1.863858 C 83.70396,-42.07154 71.114446,-20.763718 69.070672,4.1107937 l -0.691145,8.4113683 h 8.974191 8.974162 v 4.060798 4.060666 H 67.486056 48.644204 v 4.64066 4.640765 h 75.367356 75.36736 z"
       style="fill:none;stroke:#9b4dca;stroke-width:6.35;stroke-miterlimit:4;stroke-dasharray:none;stroke-opacity:1" />
  </g>
</svg>
